%FSLAX23Y23*%
%MOIN*%
G70*
G01*
G75*
%ADD10C,0.012*%
%ADD11C,0.014*%
%ADD12R,0.118X0.073*%
%ADD13R,0.031X0.031*%
%ADD14R,0.087X0.024*%
%ADD15R,0.087X0.024*%
%ADD16O,0.010X0.080*%
%ADD17O,0.080X0.010*%
%ADD18R,0.079X0.047*%
%ADD19R,0.014X0.014*%
%ADD20R,0.020X0.020*%
%ADD21R,0.030X0.030*%
%ADD22R,0.030X0.030*%
%ADD23C,0.008*%
%ADD24C,0.031*%
%ADD25C,0.024*%
%ADD26C,0.020*%
%ADD27C,0.016*%
%ADD28C,0.059*%
%ADD29R,0.059X0.059*%
%ADD30R,0.059X0.059*%
%ADD31C,0.024*%
%ADD32C,0.030*%
%ADD33R,0.060X0.060*%
%ADD34R,0.040X0.050*%
%ADD35R,0.040X0.060*%
%ADD36R,0.085X0.043*%
%ADD37R,0.085X0.043*%
%ADD38R,0.085X0.138*%
%ADD39R,0.022X0.061*%
%ADD40R,0.059X0.051*%
%ADD41R,0.039X0.043*%
%ADD42R,0.059X0.057*%
%ADD43C,0.010*%
%ADD44C,0.010*%
%ADD45C,0.008*%
%ADD46C,0.004*%
%ADD47C,0.005*%
%ADD48C,0.006*%
D23*
X3234Y4562D02*
G03*
X3206Y4562I-14J0D01*
G01*
X2810Y5440D02*
G03*
X2810Y5440I-12J0D01*
G01*
X2453Y5693D02*
Y5769D01*
X2571Y5693D02*
Y5769D01*
X2453Y5693D02*
X2571D01*
X2453Y5700D02*
X2571D01*
X2261Y5733D02*
Y5933D01*
Y5733D02*
X2361D01*
Y5933D01*
X2261D02*
X2361D01*
X3450Y5050D02*
X3650D01*
X3450Y4550D02*
X3650D01*
X3450D02*
Y5050D01*
X3650Y4550D02*
Y5050D01*
X2350Y5950D02*
Y6150D01*
X3650Y5950D02*
Y6150D01*
X2350Y5950D02*
X3650D01*
X2350Y6150D02*
X3650D01*
X3234Y4562D02*
X3263D01*
X3177D02*
X3206D01*
X3177Y4758D02*
X3263D01*
Y4562D02*
Y4758D01*
X3177Y4562D02*
Y4758D01*
X2290Y5034D02*
X2487D01*
Y5152D01*
X2290D02*
X2487D01*
X2290Y5034D02*
Y5152D01*
X2050Y4550D02*
X2250D01*
X2050Y5850D02*
X2250D01*
Y4550D02*
Y5850D01*
X2050Y4550D02*
Y5850D01*
X2350Y4250D02*
X3650D01*
X2350Y4450D02*
X3650D01*
X2350Y4250D02*
Y4450D01*
X3650Y4250D02*
Y4450D01*
X3950Y4550D02*
Y5850D01*
X3750Y4550D02*
Y5850D01*
Y4550D02*
X3950D01*
X3750Y5850D02*
X3950D01*
D43*
X3327Y4552D02*
G03*
X3327Y4552I-5J0D01*
G01*
X3930Y6120D02*
Y6140D01*
Y6160D01*
X3870D02*
X3930D01*
X3870Y6120D02*
Y6160D01*
Y6040D02*
Y6090D01*
Y6040D02*
X3930D01*
Y6080D01*
Y5980D02*
Y6000D01*
Y6020D01*
X3870D02*
X3930D01*
X3870Y5980D02*
Y6020D01*
Y5900D02*
Y5950D01*
Y5900D02*
X3930D01*
Y5940D01*
X3830Y5980D02*
Y6000D01*
Y6020D01*
X3770D02*
X3830D01*
X3770Y5980D02*
Y6020D01*
Y5900D02*
Y5950D01*
Y5900D02*
X3830D01*
Y5940D01*
Y6120D02*
Y6140D01*
Y6160D01*
X3770D02*
X3830D01*
X3770Y6120D02*
Y6160D01*
Y6040D02*
Y6090D01*
Y6040D02*
X3830D01*
Y6080D01*
D44*
X2307Y5020D02*
G03*
X2307Y5020I-4J0D01*
G01*
X3915Y6040D02*
X3930Y6055D01*
Y6060D01*
X3870Y6055D02*
X3885Y6040D01*
X3915Y5900D02*
X3930Y5915D01*
Y5920D01*
X3870Y5915D02*
X3885Y5900D01*
X3815D02*
X3830Y5915D01*
Y5920D01*
X3770Y5915D02*
X3785Y5900D01*
X3815Y6040D02*
X3830Y6055D01*
Y6060D01*
X3770Y6055D02*
X3785Y6040D01*
D45*
X2700Y5499D02*
X2739Y5539D01*
X3330Y5480D02*
Y5539D01*
Y4909D02*
Y4968D01*
X2700Y4909D02*
Y4968D01*
Y5480D02*
Y5499D01*
X3271Y5539D02*
X3330D01*
X3271Y4909D02*
X3330Y4909D01*
X2700Y4909D02*
X2759D01*
X2739Y5539D02*
X2759D01*
D46*
X2442Y4960D02*
X2442Y5009D01*
X2442Y4959D02*
X2442Y4960D01*
X2337Y4959D02*
X2442D01*
X2337D02*
Y5009D01*
X2442D01*
X2507Y5139D02*
X2556Y5139D01*
X2556Y5138D01*
Y5034D02*
Y5138D01*
X2507Y5034D02*
X2556D01*
X2507D02*
Y5139D01*
X3664Y4549D02*
X3713Y4549D01*
X3714Y4548D01*
Y4444D02*
Y4548D01*
X3664Y4444D02*
X3714D01*
X3664D02*
Y4549D01*
X2416Y5168D02*
X2416Y5217D01*
X2417Y5218D01*
X2521D01*
Y5168D02*
Y5218D01*
X2416Y5168D02*
X2521D01*
D47*
X2608Y5751D02*
X2602Y5756D01*
X2592D01*
X2587Y5751D01*
Y5730D01*
X2592Y5724D01*
X2602D01*
X2608Y5730D01*
X2618D02*
X2623Y5724D01*
X2634D01*
X2639Y5730D01*
Y5751D01*
X2634Y5756D01*
X2623D01*
X2618Y5751D01*
Y5745D01*
X2623Y5740D01*
X2639D01*
X3933Y6110D02*
Y6079D01*
X3949D01*
X3954Y6084D01*
Y6105D01*
X3949Y6110D01*
X3933D01*
X3980Y6079D02*
Y6110D01*
X3965Y6094D01*
X3986D01*
X2297Y5976D02*
X2286D01*
X2291D01*
Y5950D01*
X2286Y5945D01*
X2281D01*
X2276Y5950D01*
X2307Y5945D02*
Y5976D01*
X2323D01*
X2328Y5971D01*
Y5961D01*
X2323Y5955D01*
X2307D01*
X3533Y5154D02*
X3522D01*
X3528D01*
Y5127D01*
X3522Y5122D01*
X3517D01*
X3512Y5127D01*
X3543Y5154D02*
X3564D01*
X3554D01*
Y5122D01*
X3575D02*
Y5143D01*
X3585Y5154D01*
X3596Y5143D01*
Y5122D01*
Y5138D01*
X3575D01*
X3627Y5148D02*
X3622Y5154D01*
X3612D01*
X3606Y5148D01*
Y5127D01*
X3612Y5122D01*
X3622D01*
X3627Y5127D01*
Y5138D01*
X3617D01*
X3520Y4521D02*
Y4500D01*
X3499Y4521D01*
X3494D01*
X3489Y4516D01*
Y4505D01*
X3494Y4500D01*
X3620Y4520D02*
Y4530D01*
Y4525D01*
X3589D01*
X3594Y4520D01*
X3615Y5060D02*
X3620Y5065D01*
Y5076D01*
X3615Y5081D01*
X3594D01*
X3589Y5076D01*
Y5065D01*
X3594Y5060D01*
X3599D01*
X3604Y5065D01*
Y5081D01*
X3520Y5060D02*
Y5070D01*
Y5065D01*
X3489D01*
X3494Y5060D01*
Y5086D02*
X3489Y5091D01*
Y5102D01*
X3494Y5107D01*
X3515D01*
X3520Y5102D01*
Y5091D01*
X3515Y5086D01*
X3494D01*
X2343Y6098D02*
X2311D01*
Y6114D01*
X2316Y6119D01*
X2327D01*
X2332Y6114D01*
Y6098D01*
X2343Y6146D02*
X2311D01*
X2327Y6130D01*
Y6151D01*
X3198Y4550D02*
X3193Y4555D01*
X3182D01*
X3177Y4550D01*
Y4545D01*
X3182Y4539D01*
X3193D01*
X3198Y4534D01*
Y4529D01*
X3193Y4524D01*
X3182D01*
X3177Y4529D01*
X3209Y4555D02*
Y4524D01*
X3219Y4534D01*
X3230Y4524D01*
Y4555D01*
X3240Y4524D02*
X3251D01*
X3245D01*
Y4555D01*
X3240Y4550D01*
X2661Y5551D02*
Y5525D01*
X2667Y5520D01*
X2677D01*
X2682Y5525D01*
Y5551D01*
X2693Y5520D02*
X2703D01*
X2698D01*
Y5551D01*
X2693Y5546D01*
X2311Y5193D02*
X2332Y5161D01*
Y5193D02*
X2311Y5161D01*
X2343D02*
X2353D01*
X2348D01*
Y5193D01*
X2343Y5188D01*
X2217Y6012D02*
Y5980D01*
X2227Y5991D01*
X2238Y5980D01*
Y6012D01*
X2248Y6007D02*
X2253Y6012D01*
X2264D01*
X2269Y6007D01*
Y6001D01*
X2264Y5996D01*
X2259D01*
X2264D01*
X2269Y5991D01*
Y5986D01*
X2264Y5980D01*
X2253D01*
X2248Y5986D01*
X2474Y4991D02*
X2468Y4996D01*
X2458D01*
X2453Y4991D01*
Y4970D01*
X2458Y4965D01*
X2468D01*
X2474Y4970D01*
X2484Y4965D02*
X2495D01*
X2489D01*
Y4996D01*
X2484Y4991D01*
X3937Y5976D02*
Y5945D01*
X3953D01*
X3958Y5950D01*
Y5971D01*
X3953Y5976D01*
X3937D01*
X3968Y5945D02*
X3979D01*
X3974D01*
Y5976D01*
X3968Y5971D01*
X3705Y5980D02*
Y5949D01*
X3720D01*
X3726Y5954D01*
Y5975D01*
X3720Y5980D01*
X3705D01*
X3757Y5949D02*
X3736D01*
X3757Y5970D01*
Y5975D01*
X3752Y5980D01*
X3741D01*
X3736Y5975D01*
X3705Y6118D02*
Y6087D01*
X3720D01*
X3726Y6092D01*
Y6113D01*
X3720Y6118D01*
X3705D01*
X3736Y6113D02*
X3741Y6118D01*
X3752D01*
X3757Y6113D01*
Y6108D01*
X3752Y6102D01*
X3747D01*
X3752D01*
X3757Y6097D01*
Y6092D01*
X3752Y6087D01*
X3741D01*
X3736Y6092D01*
X2122Y5858D02*
Y5890D01*
X2138D01*
X2143Y5885D01*
Y5874D01*
X2138Y5869D01*
X2122D01*
X2154Y5858D02*
X2164D01*
X2159D01*
Y5890D01*
X2154Y5885D01*
X2327Y4323D02*
X2295D01*
Y4339D01*
X2301Y4344D01*
X2311D01*
X2316Y4339D01*
Y4323D01*
X2327Y4375D02*
Y4354D01*
X2306Y4375D01*
X2301D01*
X2295Y4370D01*
Y4360D01*
X2301Y4354D01*
X3831Y4504D02*
Y4535D01*
X3846D01*
X3852Y4530D01*
Y4520D01*
X3846Y4514D01*
X3831D01*
X3862Y4530D02*
X3867Y4535D01*
X3878D01*
X3883Y4530D01*
Y4525D01*
X3878Y4520D01*
X3873D01*
X3878D01*
X3883Y4514D01*
Y4509D01*
X3878Y4504D01*
X3867D01*
X3862Y4509D01*
X2572Y5088D02*
X2567Y5083D01*
Y5072D01*
X2572Y5067D01*
X2593D01*
X2598Y5072D01*
Y5083D01*
X2593Y5088D01*
X2567Y5098D02*
Y5119D01*
X2572D01*
X2593Y5098D01*
X2598D01*
X3756Y4476D02*
X3724D01*
Y4492D01*
X3730Y4497D01*
X3740D01*
X3745Y4492D01*
Y4476D01*
Y4487D02*
X3756Y4497D01*
Y4529D02*
Y4508D01*
X3735Y4529D01*
X3730D01*
X3724Y4524D01*
Y4513D01*
X3730Y4508D01*
X2445Y5228D02*
Y5260D01*
X2461D01*
X2466Y5255D01*
Y5244D01*
X2461Y5239D01*
X2445D01*
X2455D02*
X2466Y5228D01*
X2476Y5255D02*
X2482Y5260D01*
X2492D01*
X2497Y5255D01*
Y5249D01*
X2492Y5244D01*
X2497Y5239D01*
Y5234D01*
X2492Y5228D01*
X2482D01*
X2476Y5234D01*
Y5239D01*
X2482Y5244D01*
X2476Y5249D01*
Y5255D01*
X2482Y5244D02*
X2492D01*
X3366Y4551D02*
Y4520D01*
X3377Y4530D01*
X3387Y4520D01*
Y4551D01*
X3398Y4520D02*
X3408D01*
X3403D01*
Y4551D01*
X3398Y4546D01*
X3785Y4262D02*
X3807Y4240D01*
X3822Y4255D01*
X3807Y4285D02*
X3815Y4292D01*
X3811Y4288D01*
X3833Y4266D01*
X3829Y4262D01*
X3837Y4270D01*
X3844Y4314D02*
X3837D01*
X3829Y4307D01*
X3829Y4300D01*
X3844Y4285D01*
X3852D01*
X3859Y4292D01*
X3859Y4300D01*
X3863Y4340D02*
X3848Y4326D01*
X3870Y4303D01*
X3885Y4318D01*
X3859Y4314D02*
X3866Y4322D01*
X3892Y4326D02*
X3870Y4348D01*
X3907Y4340D01*
X3885Y4363D01*
X3911Y4381D02*
X3904D01*
X3896Y4374D01*
Y4366D01*
X3900Y4363D01*
X3907Y4363D01*
X3915Y4370D01*
X3922Y4370D01*
X3926Y4366D01*
Y4359D01*
X3918Y4351D01*
X3911D01*
X3930Y4407D02*
X3915Y4392D01*
X3937Y4370D01*
X3952Y4385D01*
X3926Y4381D02*
X3933Y4389D01*
X3709Y4270D02*
X3701D01*
X3694Y4262D01*
X3694Y4255D01*
X3709Y4240D01*
X3716D01*
X3724Y4247D01*
X3724Y4255D01*
X3731Y4292D02*
X3724D01*
X3716Y4284D01*
X3716Y4277D01*
X3731Y4262D01*
X3739D01*
X3746Y4270D01*
X3746Y4277D01*
Y4292D02*
X3761Y4307D01*
X3757Y4325D02*
X3779Y4303D01*
X3791Y4314D01*
X3791Y4322D01*
X3787Y4325D01*
X3779D01*
X3768Y4314D01*
X3779Y4325D01*
Y4333D01*
X3776Y4336D01*
X3768D01*
X3757Y4325D01*
X3779Y4348D02*
X3783Y4344D01*
X3798D01*
Y4359D01*
X3794Y4362D01*
X3798Y4344D02*
X3809Y4333D01*
X3813Y4359D02*
X3828Y4374D01*
X3842Y4403D02*
X3835D01*
X3828Y4396D01*
X3828Y4388D01*
X3831Y4385D01*
X3839D01*
X3846Y4392D01*
X3854D01*
X3857Y4388D01*
Y4381D01*
X3850Y4374D01*
X3842D01*
X3868Y4392D02*
X3854Y4407D01*
Y4422D01*
X3868D01*
X3883Y4407D01*
X3872Y4418D01*
X3857Y4403D01*
X3894Y4455D02*
Y4463D01*
X3902Y4470D01*
X3909D01*
X3913Y4466D01*
Y4459D01*
X3909Y4455D01*
X3913Y4459D01*
X3920Y4459D01*
X3924Y4455D01*
Y4448D01*
X3917Y4440D01*
X3909D01*
X3935Y4459D02*
X3932Y4463D01*
X3935Y4466D01*
X3939Y4463D01*
X3935Y4459D01*
Y4496D02*
X3935Y4503D01*
X3943Y4511D01*
X3950D01*
X3965Y4496D01*
X3965Y4489D01*
X3958Y4481D01*
X3950D01*
X3935Y4496D01*
X2373Y5907D02*
X2378D01*
X2383Y5912D01*
Y5938D01*
X2367D01*
X2362Y5933D01*
Y5923D01*
X2367Y5917D01*
X2383D01*
X2394D02*
Y5938D01*
X2409D01*
X2415Y5933D01*
Y5917D01*
X2446Y5949D02*
Y5917D01*
X2430D01*
X2425Y5923D01*
Y5933D01*
X2430Y5938D01*
X2446D01*
X2016Y4921D02*
Y4911D01*
Y4916D01*
X2047D01*
X2042Y4921D01*
X2021Y4895D02*
X2016Y4890D01*
Y4879D01*
X2021Y4874D01*
X2042D01*
X2047Y4879D01*
Y4890D01*
X2042Y4895D01*
X2037D01*
X2031Y4890D01*
Y4874D01*
X2016Y4802D02*
Y4823D01*
X2037Y4802D01*
X2042D01*
X2047Y4807D01*
Y4818D01*
X2042Y4823D01*
X2016Y4791D02*
Y4781D01*
Y4786D01*
X2047D01*
X2042Y4791D01*
X3570Y4446D02*
X3575D01*
X3580Y4451D01*
Y4478D01*
X3564D01*
X3559Y4472D01*
Y4462D01*
X3564Y4457D01*
X3580D01*
X3591D02*
Y4478D01*
X3606D01*
X3612Y4472D01*
Y4457D01*
X3643Y4488D02*
Y4457D01*
X3627D01*
X3622Y4462D01*
Y4472D01*
X3627Y4478D01*
X3643D01*
X3476Y4457D02*
Y4488D01*
X3497Y4457D01*
Y4488D01*
X3529Y4483D02*
X3524Y4488D01*
X3513D01*
X3508Y4483D01*
Y4462D01*
X3513Y4457D01*
X3524D01*
X3529Y4462D01*
X3374Y4457D02*
Y4488D01*
X3395Y4457D01*
Y4488D01*
X3426Y4483D02*
X3421Y4488D01*
X3411D01*
X3406Y4483D01*
Y4462D01*
X3411Y4457D01*
X3421D01*
X3426Y4462D01*
X3283Y4457D02*
Y4488D01*
X3268Y4472D01*
X3289D01*
X3320Y4488D02*
X3299D01*
Y4472D01*
X3310Y4478D01*
X3315D01*
X3320Y4472D01*
Y4462D01*
X3315Y4457D01*
X3304D01*
X3299Y4462D01*
X3185Y4457D02*
Y4488D01*
X3169Y4472D01*
X3190D01*
X3201Y4483D02*
X3206Y4488D01*
X3217D01*
X3222Y4483D01*
Y4478D01*
X3217Y4472D01*
X3211D01*
X3217D01*
X3222Y4467D01*
Y4462D01*
X3217Y4457D01*
X3206D01*
X3201Y4462D01*
X3094Y4457D02*
Y4488D01*
X3079Y4472D01*
X3100D01*
X3110Y4457D02*
X3121D01*
X3115D01*
Y4488D01*
X3110Y4483D01*
X2972D02*
X2978Y4488D01*
X2988D01*
X2993Y4483D01*
Y4478D01*
X2988Y4472D01*
X2983D01*
X2988D01*
X2993Y4467D01*
Y4462D01*
X2988Y4457D01*
X2978D01*
X2972Y4462D01*
X3004Y4488D02*
Y4467D01*
X3014Y4457D01*
X3025Y4467D01*
Y4488D01*
X2874Y4457D02*
Y4488D01*
X2895Y4457D01*
Y4488D01*
X2926Y4483D02*
X2921Y4488D01*
X2911D01*
X2906Y4483D01*
Y4462D01*
X2911Y4457D01*
X2921D01*
X2926Y4462D01*
X2776Y4483D02*
X2781Y4488D01*
X2791D01*
X2797Y4483D01*
Y4478D01*
X2791Y4472D01*
X2786D01*
X2791D01*
X2797Y4467D01*
Y4462D01*
X2791Y4457D01*
X2781D01*
X2776Y4462D01*
X2828Y4488D02*
X2807D01*
Y4472D01*
X2818Y4478D01*
X2823D01*
X2828Y4472D01*
Y4462D01*
X2823Y4457D01*
X2812D01*
X2807Y4462D01*
X2673Y4483D02*
X2678Y4488D01*
X2689D01*
X2694Y4483D01*
Y4478D01*
X2689Y4472D01*
X2684D01*
X2689D01*
X2694Y4467D01*
Y4462D01*
X2689Y4457D01*
X2678D01*
X2673Y4462D01*
X2705Y4483D02*
X2710Y4488D01*
X2720D01*
X2726Y4483D01*
Y4478D01*
X2720Y4472D01*
X2715D01*
X2720D01*
X2726Y4467D01*
Y4462D01*
X2720Y4457D01*
X2710D01*
X2705Y4462D01*
X2575Y4483D02*
X2580Y4488D01*
X2591D01*
X2596Y4483D01*
Y4478D01*
X2591Y4472D01*
X2585D01*
X2591D01*
X2596Y4467D01*
Y4462D01*
X2591Y4457D01*
X2580D01*
X2575Y4462D01*
X2606Y4457D02*
X2617D01*
X2612D01*
Y4488D01*
X2606Y4483D01*
X2493Y4457D02*
X2472D01*
X2493Y4478D01*
Y4483D01*
X2488Y4488D01*
X2478D01*
X2472Y4483D01*
X2504Y4462D02*
X2509Y4457D01*
X2520D01*
X2525Y4462D01*
Y4483D01*
X2520Y4488D01*
X2509D01*
X2504Y4483D01*
Y4478D01*
X2509Y4472D01*
X2525D01*
X2399Y4457D02*
X2378D01*
X2399Y4478D01*
Y4483D01*
X2394Y4488D01*
X2383D01*
X2378Y4483D01*
X2409Y4488D02*
X2430D01*
Y4483D01*
X2409Y4462D01*
Y4457D01*
X3937Y5928D02*
X3942Y5933D01*
X3953D01*
X3958Y5928D01*
Y5923D01*
X3953Y5917D01*
X3958Y5912D01*
Y5907D01*
X3953Y5902D01*
X3942D01*
X3937Y5907D01*
Y5912D01*
X3942Y5917D01*
X3937Y5923D01*
Y5928D01*
X3942Y5917D02*
X3953D01*
X3989Y5902D02*
X3968D01*
X3989Y5923D01*
Y5928D01*
X3984Y5933D01*
X3974D01*
X3968Y5928D01*
X3705Y5936D02*
X3710Y5941D01*
X3720D01*
X3726Y5936D01*
Y5930D01*
X3720Y5925D01*
X3726Y5920D01*
Y5915D01*
X3720Y5909D01*
X3710D01*
X3705Y5915D01*
Y5920D01*
X3710Y5925D01*
X3705Y5930D01*
Y5936D01*
X3710Y5925D02*
X3720D01*
X3736Y5936D02*
X3741Y5941D01*
X3752D01*
X3757Y5936D01*
Y5930D01*
X3752Y5925D01*
X3747D01*
X3752D01*
X3757Y5920D01*
Y5915D01*
X3752Y5909D01*
X3741D01*
X3736Y5915D01*
X3933Y6066D02*
X3938Y6071D01*
X3949D01*
X3954Y6066D01*
Y6060D01*
X3949Y6055D01*
X3954Y6050D01*
Y6045D01*
X3949Y6039D01*
X3938D01*
X3933Y6045D01*
Y6050D01*
X3938Y6055D01*
X3933Y6060D01*
Y6066D01*
X3938Y6055D02*
X3949D01*
X3986Y6071D02*
X3965D01*
Y6055D01*
X3975Y6060D01*
X3980D01*
X3986Y6055D01*
Y6045D01*
X3980Y6039D01*
X3970D01*
X3965Y6045D01*
X3705Y6066D02*
X3710Y6071D01*
X3720D01*
X3726Y6066D01*
Y6060D01*
X3720Y6055D01*
X3726Y6050D01*
Y6045D01*
X3720Y6039D01*
X3710D01*
X3705Y6045D01*
Y6050D01*
X3710Y6055D01*
X3705Y6060D01*
Y6066D01*
X3710Y6055D02*
X3720D01*
X3752Y6039D02*
Y6071D01*
X3736Y6055D01*
X3757D01*
X3031Y4567D02*
Y4598D01*
X3016Y4583D01*
X3037D01*
X3047Y4567D02*
X3058D01*
X3052D01*
Y4598D01*
X3047Y4593D01*
X3024Y4618D02*
Y4650D01*
X3008Y4634D01*
X3029D01*
X3060Y4618D02*
X3039D01*
X3060Y4639D01*
Y4644D01*
X3055Y4650D01*
X3045D01*
X3039Y4644D01*
X3024Y4669D02*
Y4701D01*
X3008Y4685D01*
X3029D01*
X3039Y4696D02*
X3045Y4701D01*
X3055D01*
X3060Y4696D01*
Y4690D01*
X3055Y4685D01*
X3050D01*
X3055D01*
X3060Y4680D01*
Y4675D01*
X3055Y4669D01*
X3045D01*
X3039Y4675D01*
X3024Y4720D02*
Y4752D01*
X3008Y4736D01*
X3029D01*
X3055Y4720D02*
Y4752D01*
X3039Y4736D01*
X3060D01*
X3413Y4724D02*
X3445D01*
X3413Y4703D01*
X3445D01*
X3440Y4672D02*
X3445Y4677D01*
Y4688D01*
X3440Y4693D01*
X3419D01*
X3413Y4688D01*
Y4677D01*
X3419Y4672D01*
X3444Y4807D02*
X3449Y4802D01*
Y4791D01*
X3444Y4786D01*
X3438D01*
X3433Y4791D01*
Y4797D01*
Y4791D01*
X3428Y4786D01*
X3423D01*
X3417Y4791D01*
Y4802D01*
X3423Y4807D01*
X3449Y4776D02*
X3428D01*
X3417Y4765D01*
X3428Y4755D01*
X3449D01*
X3445Y4941D02*
Y4920D01*
Y4930D01*
X3413D01*
Y4909D02*
X3445D01*
Y4894D01*
X3440Y4888D01*
X3429D01*
X3424Y4894D01*
Y4909D01*
Y4899D02*
X3413Y4888D01*
X3440Y4857D02*
X3445Y4862D01*
Y4873D01*
X3440Y4878D01*
X3434D01*
X3429Y4873D01*
Y4862D01*
X3424Y4857D01*
X3419D01*
X3413Y4862D01*
Y4873D01*
X3419Y4878D01*
X3445Y4846D02*
Y4825D01*
Y4836D01*
X3413D01*
X3685Y5031D02*
Y5011D01*
Y5021D01*
X3654D01*
X3685Y5000D02*
X3654D01*
Y4984D01*
X3659Y4979D01*
X3680D01*
X3685Y4984D01*
Y5000D01*
Y4969D02*
Y4958D01*
Y4963D01*
X3654D01*
Y4969D01*
Y4958D01*
X3685Y4925D02*
X3664D01*
X3654Y4915D01*
X3664Y4904D01*
X3685D01*
X3654Y4894D02*
X3685D01*
Y4878D01*
X3680Y4873D01*
X3669D01*
X3664Y4878D01*
Y4894D01*
X3685Y4846D02*
Y4825D01*
Y4836D01*
X3654D01*
Y4815D02*
X3685D01*
X3675Y4804D01*
X3685Y4794D01*
X3654D01*
X3680Y4762D02*
X3685Y4768D01*
Y4778D01*
X3680Y4783D01*
X3675D01*
X3669Y4778D01*
Y4768D01*
X3664Y4762D01*
X3659D01*
X3654Y4768D01*
Y4778D01*
X3659Y4783D01*
X3685Y4740D02*
Y4719D01*
Y4730D01*
X3654D01*
X3685Y4709D02*
X3654D01*
Y4693D01*
X3659Y4688D01*
X3680D01*
X3685Y4693D01*
Y4709D01*
Y4661D02*
Y4672D01*
X3680Y4677D01*
X3659D01*
X3654Y4672D01*
Y4661D01*
X3659Y4656D01*
X3680D01*
X3685Y4661D01*
Y4638D02*
Y4617D01*
Y4627D01*
X3654D01*
X3680Y4585D02*
X3685Y4591D01*
Y4601D01*
X3680Y4606D01*
X3659D01*
X3654Y4601D01*
Y4591D01*
X3659Y4585D01*
X3685Y4575D02*
X3654D01*
X3664D01*
X3685Y4554D01*
X3669Y4570D01*
X3654Y4554D01*
X3411Y4631D02*
Y4626D01*
X3416Y4621D01*
X3442D01*
Y4636D01*
X3437Y4642D01*
X3427D01*
X3421Y4636D01*
Y4621D01*
Y4610D02*
X3442D01*
Y4595D01*
X3437Y4589D01*
X3421D01*
X3453Y4558D02*
X3421D01*
Y4574D01*
X3427Y4579D01*
X3437D01*
X3442Y4574D01*
Y4558D01*
X3411Y5029D02*
Y5024D01*
X3416Y5018D01*
X3442D01*
Y5034D01*
X3437Y5039D01*
X3427D01*
X3421Y5034D01*
Y5018D01*
Y5008D02*
X3442D01*
Y4992D01*
X3437Y4987D01*
X3421D01*
X3453Y4955D02*
X3421D01*
Y4971D01*
X3427Y4976D01*
X3437D01*
X3442Y4971D01*
Y4955D01*
X2016Y5803D02*
Y5793D01*
Y5798D01*
X2047D01*
X2042Y5803D01*
X2234Y5854D02*
X2213D01*
X2234Y5875D01*
Y5881D01*
X2228Y5886D01*
X2218D01*
X2213Y5881D01*
X2042Y5713D02*
X2047Y5707D01*
Y5697D01*
X2042Y5692D01*
X2037D01*
X2031Y5697D01*
Y5702D01*
Y5697D01*
X2026Y5692D01*
X2021D01*
X2016Y5697D01*
Y5707D01*
X2021Y5713D01*
X2268Y5681D02*
Y5713D01*
X2252Y5697D01*
X2273D01*
X2294Y5681D02*
X2283Y5692D01*
Y5702D01*
X2294Y5713D01*
X2310Y5702D02*
Y5681D01*
Y5692D01*
X2315Y5697D01*
X2320Y5702D01*
X2325D01*
X2341Y5681D02*
X2357D01*
X2362Y5686D01*
X2357Y5692D01*
X2346D01*
X2341Y5697D01*
X2346Y5702D01*
X2362D01*
X2378Y5707D02*
Y5702D01*
X2373D01*
X2383D01*
X2378D01*
Y5686D01*
X2383Y5681D01*
X2399D02*
X2409Y5692D01*
Y5702D01*
X2399Y5713D01*
X2047Y5589D02*
Y5610D01*
X2031D01*
X2037Y5600D01*
Y5594D01*
X2031Y5589D01*
X2021D01*
X2016Y5594D01*
Y5605D01*
X2021Y5610D01*
X2287Y5589D02*
X2282Y5600D01*
X2272Y5610D01*
X2261D01*
X2256Y5605D01*
Y5594D01*
X2261Y5589D01*
X2266D01*
X2272Y5594D01*
Y5610D01*
X2047Y5508D02*
Y5487D01*
X2042D01*
X2021Y5508D01*
X2016D01*
X2282D02*
X2287Y5503D01*
Y5492D01*
X2282Y5487D01*
X2277D01*
X2272Y5492D01*
X2266Y5487D01*
X2261D01*
X2256Y5492D01*
Y5503D01*
X2261Y5508D01*
X2266D01*
X2272Y5503D01*
X2277Y5508D01*
X2282D01*
X2272Y5503D02*
Y5492D01*
X2013Y5430D02*
Y5425D01*
X2018Y5420D01*
X2045D01*
Y5436D01*
X2039Y5441D01*
X2029D01*
X2024Y5436D01*
Y5420D01*
Y5409D02*
X2045D01*
Y5394D01*
X2039Y5388D01*
X2024D01*
X2055Y5357D02*
X2024D01*
Y5373D01*
X2029Y5378D01*
X2039D01*
X2045Y5373D01*
Y5357D01*
X2252Y5417D02*
Y5407D01*
Y5412D01*
X2283D01*
X2278Y5417D01*
Y5391D02*
X2283Y5386D01*
Y5375D01*
X2278Y5370D01*
X2257D01*
X2252Y5375D01*
Y5386D01*
X2257Y5391D01*
X2278D01*
X2020Y5319D02*
Y5308D01*
Y5314D01*
X2051D01*
X2046Y5319D01*
X2020Y5293D02*
Y5282D01*
Y5287D01*
X2051D01*
X2046Y5293D01*
X2245Y5324D02*
Y5319D01*
X2251Y5314D01*
X2277D01*
Y5329D01*
X2272Y5335D01*
X2261D01*
X2256Y5329D01*
Y5314D01*
Y5303D02*
X2277D01*
Y5287D01*
X2272Y5282D01*
X2256D01*
X2287Y5251D02*
X2256D01*
Y5266D01*
X2261Y5272D01*
X2272D01*
X2277Y5266D01*
Y5251D01*
X2278Y5228D02*
X2283Y5223D01*
Y5213D01*
X2278Y5207D01*
X2273D01*
X2268Y5213D01*
Y5218D01*
Y5213D01*
X2262Y5207D01*
X2257D01*
X2252Y5213D01*
Y5223D01*
X2257Y5228D01*
X2283Y5197D02*
X2262D01*
X2252Y5186D01*
X2262Y5176D01*
X2283D01*
X2016Y5220D02*
Y5210D01*
Y5215D01*
X2047D01*
X2042Y5220D01*
Y5194D02*
X2047Y5189D01*
Y5178D01*
X2042Y5173D01*
X2037D01*
X2031Y5178D01*
Y5184D01*
Y5178D01*
X2026Y5173D01*
X2021D01*
X2016Y5178D01*
Y5189D01*
X2021Y5194D01*
X2016Y5126D02*
Y5115D01*
Y5121D01*
X2047D01*
X2042Y5126D01*
X2047Y5079D02*
Y5100D01*
X2031D01*
X2037Y5089D01*
Y5084D01*
X2031Y5079D01*
X2021D01*
X2016Y5084D01*
Y5094D01*
X2021Y5100D01*
X2257Y5084D02*
X2252Y5079D01*
Y5068D01*
X2257Y5063D01*
X2278D01*
X2283Y5068D01*
Y5079D01*
X2278Y5084D01*
X2252Y5094D02*
X2283D01*
Y5115D01*
X2252Y5126D02*
X2283D01*
X2273D01*
X2252Y5147D01*
X2268Y5131D01*
X2283Y5147D01*
X2283Y4986D02*
X2264Y4994D01*
X2258Y4979D01*
X2270Y4980D01*
X2274Y4978D01*
X2277Y4971D01*
X2273Y4962D01*
X2267Y4959D01*
X2257Y4963D01*
X2254Y4969D01*
X2293Y4982D02*
X2285Y4962D01*
X2291Y4949D01*
X2305Y4955D01*
X2312Y4974D01*
X2320Y4937D02*
X2314Y4951D01*
X2318Y4960D01*
X2332Y4966D01*
X2335Y4931D02*
X2344Y4927D01*
X2340Y4929D01*
X2347Y4949D01*
X2343Y4951D01*
X2359Y4921D02*
X2367Y4941D01*
X2381Y4935D01*
X2384Y4928D01*
X2378Y4913D01*
X2388Y4909D02*
X2402Y4915D01*
X2406Y4925D01*
X2400Y4939D01*
X2016Y5016D02*
X2047D01*
X2016Y4995D01*
X2047D01*
X2042Y4963D02*
X2047Y4969D01*
Y4979D01*
X2042Y4984D01*
X2021D01*
X2016Y4979D01*
Y4969D01*
X2021Y4963D01*
X2256Y4908D02*
Y4929D01*
X2277Y4908D01*
X2282D01*
X2287Y4913D01*
Y4924D01*
X2282Y4929D01*
Y4898D02*
X2287Y4892D01*
Y4882D01*
X2282Y4877D01*
X2261D01*
X2256Y4882D01*
Y4892D01*
X2261Y4898D01*
X2282D01*
X2256Y4802D02*
Y4823D01*
X2277Y4802D01*
X2282D01*
X2287Y4807D01*
Y4818D01*
X2282Y4823D01*
X2256Y4770D02*
Y4791D01*
X2277Y4770D01*
X2282D01*
X2287Y4776D01*
Y4786D01*
X2282Y4791D01*
X2016Y4703D02*
Y4724D01*
X2037Y4703D01*
X2042D01*
X2047Y4709D01*
Y4719D01*
X2042Y4724D01*
Y4693D02*
X2047Y4688D01*
Y4677D01*
X2042Y4672D01*
X2037D01*
X2031Y4677D01*
Y4682D01*
Y4677D01*
X2026Y4672D01*
X2021D01*
X2016Y4677D01*
Y4688D01*
X2021Y4693D01*
X2281Y4713D02*
X2260D01*
Y4697D01*
X2270Y4702D01*
X2276D01*
X2281Y4697D01*
Y4686D01*
X2276Y4681D01*
X2265D01*
X2260Y4686D01*
X2291Y4713D02*
Y4692D01*
X2302Y4681D01*
X2312Y4692D01*
Y4713D01*
X2333Y4681D02*
X2323Y4692D01*
Y4702D01*
X2333Y4713D01*
X2349Y4681D02*
X2360D01*
X2354D01*
Y4702D01*
X2349D01*
X2375Y4681D02*
Y4702D01*
X2391D01*
X2396Y4697D01*
Y4681D01*
X2407D02*
X2417Y4692D01*
Y4702D01*
X2407Y4713D01*
X2009Y4631D02*
Y4626D01*
X2014Y4621D01*
X2041D01*
Y4636D01*
X2035Y4642D01*
X2025D01*
X2020Y4636D01*
Y4621D01*
Y4610D02*
X2041D01*
Y4595D01*
X2035Y4589D01*
X2020D01*
X2051Y4558D02*
X2020D01*
Y4574D01*
X2025Y4579D01*
X2035D01*
X2041Y4574D01*
Y4558D01*
X2245Y4631D02*
Y4626D01*
X2251Y4621D01*
X2277D01*
Y4636D01*
X2272Y4642D01*
X2261D01*
X2256Y4636D01*
Y4621D01*
Y4610D02*
X2277D01*
Y4595D01*
X2272Y4589D01*
X2256D01*
X2287Y4558D02*
X2256D01*
Y4574D01*
X2261Y4579D01*
X2272D01*
X2277Y4574D01*
Y4558D01*
X2395Y4213D02*
X2374D01*
X2395Y4234D01*
Y4239D01*
X2390Y4244D01*
X2379D01*
X2374Y4239D01*
X2426Y4244D02*
X2416Y4239D01*
X2406Y4228D01*
Y4218D01*
X2411Y4213D01*
X2421D01*
X2426Y4218D01*
Y4223D01*
X2421Y4228D01*
X2406D01*
X2493Y4213D02*
X2472D01*
X2493Y4234D01*
Y4239D01*
X2488Y4244D01*
X2478D01*
X2472Y4239D01*
X2504D02*
X2509Y4244D01*
X2520D01*
X2525Y4239D01*
Y4234D01*
X2520Y4228D01*
X2525Y4223D01*
Y4218D01*
X2520Y4213D01*
X2509D01*
X2504Y4218D01*
Y4223D01*
X2509Y4228D01*
X2504Y4234D01*
Y4239D01*
X2509Y4228D02*
X2520D01*
X2579Y4239D02*
X2584Y4244D01*
X2594D01*
X2600Y4239D01*
Y4234D01*
X2594Y4228D01*
X2589D01*
X2594D01*
X2600Y4223D01*
Y4218D01*
X2594Y4213D01*
X2584D01*
X2579Y4218D01*
X2610Y4239D02*
X2615Y4244D01*
X2626D01*
X2631Y4239D01*
Y4218D01*
X2626Y4213D01*
X2615D01*
X2610Y4218D01*
Y4239D01*
X2677D02*
X2682Y4244D01*
X2693D01*
X2698Y4239D01*
Y4234D01*
X2693Y4228D01*
X2688D01*
X2693D01*
X2698Y4223D01*
Y4218D01*
X2693Y4213D01*
X2682D01*
X2677Y4218D01*
X2730Y4213D02*
X2709D01*
X2730Y4234D01*
Y4239D01*
X2724Y4244D01*
X2714D01*
X2709Y4239D01*
X2776D02*
X2781Y4244D01*
X2791D01*
X2797Y4239D01*
Y4234D01*
X2791Y4228D01*
X2786D01*
X2791D01*
X2797Y4223D01*
Y4218D01*
X2791Y4213D01*
X2781D01*
X2776Y4218D01*
X2823Y4213D02*
Y4244D01*
X2807Y4228D01*
X2828D01*
X2874Y4239D02*
X2879Y4244D01*
X2890D01*
X2895Y4239D01*
Y4234D01*
X2890Y4228D01*
X2885D01*
X2890D01*
X2895Y4223D01*
Y4218D01*
X2890Y4213D01*
X2879D01*
X2874Y4218D01*
X2926Y4244D02*
X2916Y4239D01*
X2906Y4228D01*
Y4218D01*
X2911Y4213D01*
X2921D01*
X2926Y4218D01*
Y4223D01*
X2921Y4228D01*
X2906D01*
X2967Y4210D02*
X2972D01*
X2978Y4215D01*
Y4241D01*
X2962D01*
X2957Y4236D01*
Y4226D01*
X2962Y4220D01*
X2978D01*
X2988D02*
Y4241D01*
X3004D01*
X3009Y4236D01*
Y4220D01*
X3041Y4252D02*
Y4220D01*
X3025D01*
X3020Y4226D01*
Y4236D01*
X3025Y4241D01*
X3041D01*
X3091Y4213D02*
Y4244D01*
X3075Y4228D01*
X3096D01*
X3106Y4239D02*
X3112Y4244D01*
X3122D01*
X3127Y4239D01*
Y4218D01*
X3122Y4213D01*
X3112D01*
X3106Y4218D01*
Y4239D01*
X3189Y4213D02*
Y4244D01*
X3173Y4228D01*
X3194D01*
X3226Y4213D02*
X3205D01*
X3226Y4234D01*
Y4239D01*
X3220Y4244D01*
X3210D01*
X3205Y4239D01*
X3295Y4213D02*
Y4244D01*
X3280Y4228D01*
X3301D01*
X3327Y4213D02*
Y4244D01*
X3311Y4228D01*
X3332D01*
X3390Y4213D02*
Y4244D01*
X3374Y4228D01*
X3395D01*
X3426Y4244D02*
X3416Y4239D01*
X3406Y4228D01*
Y4218D01*
X3411Y4213D01*
X3421D01*
X3426Y4218D01*
Y4223D01*
X3421Y4228D01*
X3406D01*
X3437Y4239D02*
X3458Y4218D01*
X3437D02*
X3458Y4239D01*
X3437Y4228D02*
X3458D01*
X3447Y4218D02*
Y4239D01*
X3480Y4213D02*
Y4244D01*
X3501Y4213D01*
Y4244D01*
X3533Y4239D02*
X3528Y4244D01*
X3517D01*
X3512Y4239D01*
Y4218D01*
X3517Y4213D01*
X3528D01*
X3533Y4218D01*
X3579Y4239D02*
X3584Y4244D01*
X3594D01*
X3600Y4239D01*
Y4234D01*
X3594Y4228D01*
X3589D01*
X3594D01*
X3600Y4223D01*
Y4218D01*
X3594Y4213D01*
X3584D01*
X3579Y4218D01*
X3610Y4244D02*
Y4223D01*
X3621Y4213D01*
X3631Y4223D01*
Y4244D01*
X3744Y5622D02*
Y5601D01*
X3739D01*
X3718Y5622D01*
X3713D01*
Y5570D02*
Y5591D01*
X3734Y5570D01*
X3739D01*
X3744Y5575D01*
Y5585D01*
X3739Y5591D01*
X3744Y5516D02*
Y5495D01*
X3739D01*
X3718Y5516D01*
X3713D01*
X3739Y5484D02*
X3744Y5479D01*
Y5469D01*
X3739Y5463D01*
X3718D01*
X3713Y5469D01*
Y5479D01*
X3718Y5484D01*
X3739D01*
X3717Y5417D02*
X3748D01*
X3717Y5396D01*
X3748D01*
X3743Y5365D02*
X3748Y5370D01*
Y5381D01*
X3743Y5386D01*
X3722D01*
X3717Y5381D01*
Y5370D01*
X3722Y5365D01*
X3739Y5319D02*
X3744Y5314D01*
Y5303D01*
X3739Y5298D01*
X3734D01*
X3728Y5303D01*
Y5308D01*
Y5303D01*
X3723Y5298D01*
X3718D01*
X3713Y5303D01*
Y5314D01*
X3718Y5319D01*
X3744Y5287D02*
X3723D01*
X3713Y5277D01*
X3723Y5266D01*
X3744D01*
Y5207D02*
X3739Y5218D01*
X3728Y5228D01*
X3718D01*
X3713Y5223D01*
Y5213D01*
X3718Y5207D01*
X3723D01*
X3728Y5213D01*
Y5228D01*
X3713Y5181D02*
X3744D01*
X3728Y5197D01*
Y5176D01*
X3744Y5105D02*
X3739Y5115D01*
X3728Y5126D01*
X3718D01*
X3713Y5121D01*
Y5110D01*
X3718Y5105D01*
X3723D01*
X3728Y5110D01*
Y5126D01*
X3713Y5074D02*
Y5094D01*
X3734Y5074D01*
X3739D01*
X3744Y5079D01*
Y5089D01*
X3739Y5094D01*
X3744Y5003D02*
X3739Y5013D01*
X3728Y5024D01*
X3718D01*
X3713Y5018D01*
Y5008D01*
X3718Y5003D01*
X3723D01*
X3728Y5008D01*
Y5024D01*
X3739Y4992D02*
X3744Y4987D01*
Y4976D01*
X3739Y4971D01*
X3718D01*
X3713Y4976D01*
Y4987D01*
X3718Y4992D01*
X3739D01*
X3744Y4908D02*
Y4929D01*
X3728D01*
X3734Y4919D01*
Y4913D01*
X3728Y4908D01*
X3718D01*
X3713Y4913D01*
Y4924D01*
X3718Y4929D01*
X3739Y4898D02*
X3744Y4892D01*
Y4882D01*
X3739Y4877D01*
X3734D01*
X3728Y4882D01*
X3723Y4877D01*
X3718D01*
X3713Y4882D01*
Y4892D01*
X3718Y4898D01*
X3723D01*
X3728Y4892D01*
X3734Y4898D01*
X3739D01*
X3728Y4892D02*
Y4882D01*
X3739Y4827D02*
X3744Y4822D01*
Y4811D01*
X3739Y4806D01*
X3734D01*
X3728Y4811D01*
Y4816D01*
Y4811D01*
X3723Y4806D01*
X3718D01*
X3713Y4811D01*
Y4822D01*
X3718Y4827D01*
X3744Y4795D02*
X3723D01*
X3713Y4785D01*
X3723Y4774D01*
X3744D01*
X3946Y4627D02*
Y4622D01*
X3951Y4617D01*
X3978D01*
Y4633D01*
X3972Y4638D01*
X3962D01*
X3957Y4633D01*
Y4617D01*
Y4606D02*
X3978D01*
Y4591D01*
X3972Y4585D01*
X3957D01*
X3988Y4554D02*
X3957D01*
Y4570D01*
X3962Y4575D01*
X3972D01*
X3978Y4570D01*
Y4554D01*
X3713Y4626D02*
X3744D01*
X3713Y4605D01*
X3744D01*
X3739Y4574D02*
X3744Y4579D01*
Y4589D01*
X3739Y4594D01*
X3718D01*
X3713Y4589D01*
Y4579D01*
X3718Y4574D01*
X3713Y4724D02*
X3744D01*
X3713Y4703D01*
X3744D01*
X3739Y4672D02*
X3744Y4677D01*
Y4688D01*
X3739Y4693D01*
X3718D01*
X3713Y4688D01*
Y4677D01*
X3718Y4672D01*
X3957Y4720D02*
X3988D01*
X3957Y4699D01*
X3988D01*
X3983Y4668D02*
X3988Y4673D01*
Y4684D01*
X3983Y4689D01*
X3962D01*
X3957Y4684D01*
Y4673D01*
X3962Y4668D01*
X3953Y4827D02*
X3984D01*
X3953Y4806D01*
X3984D01*
X3979Y4774D02*
X3984Y4780D01*
Y4790D01*
X3979Y4795D01*
X3958D01*
X3953Y4790D01*
Y4780D01*
X3958Y4774D01*
X3984Y4904D02*
Y4925D01*
X3968D01*
X3974Y4915D01*
Y4909D01*
X3968Y4904D01*
X3958D01*
X3953Y4909D01*
Y4920D01*
X3958Y4925D01*
X3984Y4894D02*
Y4873D01*
X3979D01*
X3958Y4894D01*
X3953D01*
X3984Y5007D02*
Y5028D01*
X3968D01*
X3974Y5017D01*
Y5012D01*
X3968Y5007D01*
X3958D01*
X3953Y5012D01*
Y5022D01*
X3958Y5028D01*
Y4996D02*
X3953Y4991D01*
Y4980D01*
X3958Y4975D01*
X3979D01*
X3984Y4980D01*
Y4991D01*
X3979Y4996D01*
X3974D01*
X3968Y4991D01*
Y4975D01*
X3984Y5105D02*
X3979Y5115D01*
X3968Y5126D01*
X3958D01*
X3953Y5121D01*
Y5110D01*
X3958Y5105D01*
X3963D01*
X3968Y5110D01*
Y5126D01*
X3953Y5094D02*
Y5084D01*
Y5089D01*
X3984D01*
X3979Y5094D01*
X3984Y5207D02*
X3979Y5218D01*
X3968Y5228D01*
X3958D01*
X3953Y5223D01*
Y5213D01*
X3958Y5207D01*
X3963D01*
X3968Y5213D01*
Y5228D01*
X3979Y5197D02*
X3984Y5192D01*
Y5181D01*
X3979Y5176D01*
X3974D01*
X3968Y5181D01*
Y5186D01*
Y5181D01*
X3963Y5176D01*
X3958D01*
X3953Y5181D01*
Y5192D01*
X3958Y5197D01*
X3984Y5310D02*
X3979Y5320D01*
X3968Y5331D01*
X3958D01*
X3953Y5325D01*
Y5315D01*
X3958Y5310D01*
X3963D01*
X3968Y5315D01*
Y5331D01*
X3984Y5278D02*
Y5299D01*
X3968D01*
X3974Y5289D01*
Y5283D01*
X3968Y5278D01*
X3958D01*
X3953Y5283D01*
Y5294D01*
X3958Y5299D01*
X3946Y5430D02*
Y5425D01*
X3951Y5420D01*
X3978D01*
Y5436D01*
X3972Y5441D01*
X3962D01*
X3957Y5436D01*
Y5420D01*
Y5409D02*
X3978D01*
Y5394D01*
X3972Y5388D01*
X3957D01*
X3988Y5357D02*
X3957D01*
Y5373D01*
X3962Y5378D01*
X3972D01*
X3978Y5373D01*
Y5357D01*
X3988Y5507D02*
X3983Y5517D01*
X3972Y5528D01*
X3962D01*
X3957Y5522D01*
Y5512D01*
X3962Y5507D01*
X3967D01*
X3972Y5512D01*
Y5528D01*
X3962Y5496D02*
X3957Y5491D01*
Y5480D01*
X3962Y5475D01*
X3983D01*
X3988Y5480D01*
Y5491D01*
X3983Y5496D01*
X3978D01*
X3972Y5491D01*
Y5475D01*
X3988Y5622D02*
Y5601D01*
X3983D01*
X3962Y5622D01*
X3957D01*
Y5591D02*
Y5580D01*
Y5585D01*
X3988D01*
X3983Y5591D01*
X3988Y5724D02*
Y5703D01*
X3983D01*
X3962Y5724D01*
X3957D01*
X3983Y5693D02*
X3988Y5688D01*
Y5677D01*
X3983Y5672D01*
X3978D01*
X3972Y5677D01*
Y5682D01*
Y5677D01*
X3967Y5672D01*
X3962D01*
X3957Y5677D01*
Y5688D01*
X3962Y5693D01*
X3739Y5728D02*
X3744Y5723D01*
Y5713D01*
X3739Y5707D01*
X3734D01*
X3728Y5713D01*
Y5718D01*
Y5713D01*
X3723Y5707D01*
X3718D01*
X3713Y5713D01*
Y5723D01*
X3718Y5728D01*
X3744Y5697D02*
X3723D01*
X3713Y5686D01*
X3723Y5676D01*
X3744D01*
X3946Y5836D02*
Y5831D01*
X3951Y5825D01*
X3978D01*
Y5841D01*
X3972Y5846D01*
X3962D01*
X3957Y5841D01*
Y5825D01*
Y5815D02*
X3978D01*
Y5799D01*
X3972Y5794D01*
X3957D01*
X3988Y5762D02*
X3957D01*
Y5778D01*
X3962Y5783D01*
X3972D01*
X3978Y5778D01*
Y5762D01*
X3714Y5836D02*
Y5831D01*
X3719Y5825D01*
X3745D01*
Y5841D01*
X3740Y5846D01*
X3730D01*
X3724Y5841D01*
Y5825D01*
Y5815D02*
X3745D01*
Y5799D01*
X3740Y5794D01*
X3724D01*
X3756Y5762D02*
X3724D01*
Y5778D01*
X3730Y5783D01*
X3740D01*
X3745Y5778D01*
Y5762D01*
X2980Y5913D02*
Y5945D01*
X3001Y5913D01*
Y5945D01*
X3033Y5940D02*
X3028Y5945D01*
X3017D01*
X3012Y5940D01*
Y5919D01*
X3017Y5913D01*
X3028D01*
X3033Y5919D01*
X3173Y5940D02*
X3178Y5945D01*
X3189D01*
X3194Y5940D01*
Y5934D01*
X3189Y5929D01*
X3194Y5924D01*
Y5919D01*
X3189Y5913D01*
X3178D01*
X3173Y5919D01*
Y5924D01*
X3178Y5929D01*
X3173Y5934D01*
Y5940D01*
X3178Y5929D02*
X3189D01*
X3226Y5945D02*
X3205D01*
Y5929D01*
X3215Y5934D01*
X3220D01*
X3226Y5929D01*
Y5919D01*
X3220Y5913D01*
X3210D01*
X3205Y5919D01*
X3283Y5940D02*
X3289Y5945D01*
X3299D01*
X3304Y5940D01*
Y5934D01*
X3299Y5929D01*
X3304Y5924D01*
Y5919D01*
X3299Y5913D01*
X3289D01*
X3283Y5919D01*
Y5924D01*
X3289Y5929D01*
X3283Y5934D01*
Y5940D01*
X3289Y5929D02*
X3299D01*
X3315Y5940D02*
X3320Y5945D01*
X3331D01*
X3336Y5940D01*
Y5934D01*
X3331Y5929D01*
X3325D01*
X3331D01*
X3336Y5924D01*
Y5919D01*
X3331Y5913D01*
X3320D01*
X3315Y5919D01*
X3382Y5940D02*
X3387Y5945D01*
X3398D01*
X3403Y5940D01*
Y5934D01*
X3398Y5929D01*
X3403Y5924D01*
Y5919D01*
X3398Y5913D01*
X3387D01*
X3382Y5919D01*
Y5924D01*
X3387Y5929D01*
X3382Y5934D01*
Y5940D01*
X3387Y5929D02*
X3398D01*
X3413Y5913D02*
X3424D01*
X3419D01*
Y5945D01*
X3413Y5940D01*
X3476Y5945D02*
X3497D01*
Y5940D01*
X3476Y5919D01*
Y5913D01*
X3508Y5919D02*
X3513Y5913D01*
X3524D01*
X3529Y5919D01*
Y5940D01*
X3524Y5945D01*
X3513D01*
X3508Y5940D01*
Y5934D01*
X3513Y5929D01*
X3529D01*
X3575Y5945D02*
X3596D01*
Y5940D01*
X3575Y5919D01*
Y5913D01*
X3606Y5945D02*
X3627D01*
Y5940D01*
X3606Y5919D01*
Y5913D01*
X3575Y6185D02*
X3596D01*
Y6180D01*
X3575Y6159D01*
Y6154D01*
X3627Y6185D02*
X3617Y6180D01*
X3606Y6169D01*
Y6159D01*
X3612Y6154D01*
X3622D01*
X3627Y6159D01*
Y6164D01*
X3622Y6169D01*
X3606D01*
X3472Y6185D02*
X3493D01*
Y6180D01*
X3472Y6159D01*
Y6154D01*
X3504Y6180D02*
X3509Y6185D01*
X3520D01*
X3525Y6180D01*
Y6175D01*
X3520Y6169D01*
X3525Y6164D01*
Y6159D01*
X3520Y6154D01*
X3509D01*
X3504Y6159D01*
Y6164D01*
X3509Y6169D01*
X3504Y6175D01*
Y6180D01*
X3509Y6169D02*
X3520D01*
X3374Y6180D02*
X3379Y6185D01*
X3390D01*
X3395Y6180D01*
Y6175D01*
X3390Y6169D01*
X3395Y6164D01*
Y6159D01*
X3390Y6154D01*
X3379D01*
X3374Y6159D01*
Y6164D01*
X3379Y6169D01*
X3374Y6175D01*
Y6180D01*
X3379Y6169D02*
X3390D01*
X3406Y6180D02*
X3411Y6185D01*
X3421D01*
X3426Y6180D01*
Y6159D01*
X3421Y6154D01*
X3411D01*
X3406Y6159D01*
Y6180D01*
X3272D02*
X3277Y6185D01*
X3287D01*
X3293Y6180D01*
Y6175D01*
X3287Y6169D01*
X3293Y6164D01*
Y6159D01*
X3287Y6154D01*
X3277D01*
X3272Y6159D01*
Y6164D01*
X3277Y6169D01*
X3272Y6175D01*
Y6180D01*
X3277Y6169D02*
X3287D01*
X3324Y6154D02*
X3303D01*
X3324Y6175D01*
Y6180D01*
X3319Y6185D01*
X3308D01*
X3303Y6180D01*
X3177D02*
X3182Y6185D01*
X3193D01*
X3198Y6180D01*
Y6175D01*
X3193Y6169D01*
X3198Y6164D01*
Y6159D01*
X3193Y6154D01*
X3182D01*
X3177Y6159D01*
Y6164D01*
X3182Y6169D01*
X3177Y6175D01*
Y6180D01*
X3182Y6169D02*
X3193D01*
X3224Y6154D02*
Y6185D01*
X3209Y6169D01*
X3230D01*
X3075Y6180D02*
X3080Y6185D01*
X3091D01*
X3096Y6180D01*
Y6175D01*
X3091Y6169D01*
X3096Y6164D01*
Y6159D01*
X3091Y6154D01*
X3080D01*
X3075Y6159D01*
Y6164D01*
X3080Y6169D01*
X3075Y6175D01*
Y6180D01*
X3080Y6169D02*
X3091D01*
X3127Y6185D02*
X3117Y6180D01*
X3106Y6169D01*
Y6159D01*
X3112Y6154D01*
X3122D01*
X3127Y6159D01*
Y6164D01*
X3122Y6169D01*
X3106D01*
X2971Y6143D02*
X2976D01*
X2982Y6148D01*
Y6175D01*
X2966D01*
X2961Y6169D01*
Y6159D01*
X2966Y6154D01*
X2982D01*
X2992D02*
Y6175D01*
X3008D01*
X3013Y6169D01*
Y6154D01*
X3045Y6185D02*
Y6154D01*
X3029D01*
X3024Y6159D01*
Y6169D01*
X3029Y6175D01*
X3045D01*
X2874Y6159D02*
X2879Y6154D01*
X2890D01*
X2895Y6159D01*
Y6180D01*
X2890Y6185D01*
X2879D01*
X2874Y6180D01*
Y6175D01*
X2879Y6169D01*
X2895D01*
X2906Y6180D02*
X2911Y6185D01*
X2921D01*
X2926Y6180D01*
Y6159D01*
X2921Y6154D01*
X2911D01*
X2906Y6159D01*
Y6180D01*
X2772Y6159D02*
X2777Y6154D01*
X2787D01*
X2793Y6159D01*
Y6180D01*
X2787Y6185D01*
X2777D01*
X2772Y6180D01*
Y6175D01*
X2777Y6169D01*
X2793D01*
X2824Y6154D02*
X2803D01*
X2824Y6175D01*
Y6180D01*
X2819Y6185D01*
X2808D01*
X2803Y6180D01*
X2673Y6159D02*
X2678Y6154D01*
X2689D01*
X2694Y6159D01*
Y6180D01*
X2689Y6185D01*
X2678D01*
X2673Y6180D01*
Y6175D01*
X2678Y6169D01*
X2694D01*
X2720Y6154D02*
Y6185D01*
X2705Y6169D01*
X2726D01*
X2575Y6159D02*
X2580Y6154D01*
X2591D01*
X2596Y6159D01*
Y6180D01*
X2591Y6185D01*
X2580D01*
X2575Y6180D01*
Y6175D01*
X2580Y6169D01*
X2596D01*
X2627Y6185D02*
X2617Y6180D01*
X2606Y6169D01*
Y6159D01*
X2612Y6154D01*
X2622D01*
X2627Y6159D01*
Y6164D01*
X2622Y6169D01*
X2606D01*
X3083Y5773D02*
Y5752D01*
X3098D01*
X3093Y5762D01*
Y5768D01*
X3098Y5773D01*
X3109D01*
X3114Y5768D01*
Y5757D01*
X3109Y5752D01*
X3083Y5783D02*
X3104D01*
X3114Y5794D01*
X3104Y5804D01*
X3083D01*
X3114Y5857D02*
X3104Y5846D01*
X3093D01*
X3083Y5857D01*
X3114Y5873D02*
Y5883D01*
Y5878D01*
X3093D01*
Y5873D01*
X3114Y5899D02*
X3093D01*
Y5915D01*
X3098Y5920D01*
X3114D01*
Y5930D02*
X3104Y5941D01*
X3093D01*
X3083Y5930D01*
X2886Y5919D02*
X2891Y5913D01*
X2902D01*
X2907Y5919D01*
Y5940D01*
X2902Y5945D01*
X2891D01*
X2886Y5940D01*
Y5934D01*
X2891Y5929D01*
X2907D01*
X2917Y5913D02*
X2928D01*
X2923D01*
Y5945D01*
X2917Y5940D01*
X2780Y5919D02*
X2785Y5913D01*
X2795D01*
X2801Y5919D01*
Y5940D01*
X2795Y5945D01*
X2785D01*
X2780Y5940D01*
Y5934D01*
X2785Y5929D01*
X2801D01*
X2811Y5940D02*
X2816Y5945D01*
X2827D01*
X2832Y5940D01*
Y5934D01*
X2827Y5929D01*
X2822D01*
X2827D01*
X2832Y5924D01*
Y5919D01*
X2827Y5913D01*
X2816D01*
X2811Y5919D01*
X2681Y5923D02*
X2686Y5917D01*
X2697D01*
X2702Y5923D01*
Y5944D01*
X2697Y5949D01*
X2686D01*
X2681Y5944D01*
Y5938D01*
X2686Y5933D01*
X2702D01*
X2734Y5949D02*
X2713D01*
Y5933D01*
X2723Y5938D01*
X2728D01*
X2734Y5933D01*
Y5923D01*
X2728Y5917D01*
X2718D01*
X2713Y5923D01*
X2583Y5919D02*
X2588Y5913D01*
X2598D01*
X2604Y5919D01*
Y5940D01*
X2598Y5945D01*
X2588D01*
X2583Y5940D01*
Y5934D01*
X2588Y5929D01*
X2604D01*
X2614Y5945D02*
X2635D01*
Y5940D01*
X2614Y5919D01*
Y5913D01*
X2476Y6159D02*
X2482Y6154D01*
X2492D01*
X2497Y6159D01*
Y6180D01*
X2492Y6185D01*
X2482D01*
X2476Y6180D01*
Y6175D01*
X2482Y6169D01*
X2497D01*
X2508Y6180D02*
X2513Y6185D01*
X2524D01*
X2529Y6180D01*
Y6175D01*
X2524Y6169D01*
X2529Y6164D01*
Y6159D01*
X2524Y6154D01*
X2513D01*
X2508Y6159D01*
Y6164D01*
X2513Y6169D01*
X2508Y6175D01*
Y6180D01*
X2513Y6169D02*
X2524D01*
X2327Y6157D02*
X2337D01*
X2332D01*
Y6189D01*
X2327Y6184D01*
X2353D02*
X2358Y6189D01*
X2369D01*
X2374Y6184D01*
Y6163D01*
X2369Y6157D01*
X2358D01*
X2353Y6163D01*
Y6184D01*
X2384D02*
X2390Y6189D01*
X2400D01*
X2405Y6184D01*
Y6163D01*
X2400Y6157D01*
X2390D01*
X2384Y6163D01*
Y6184D01*
X2416D02*
X2437Y6163D01*
X2416D02*
X2437Y6184D01*
X2416Y6173D02*
X2437D01*
X2426Y6163D02*
Y6184D01*
X2394Y4619D02*
Y4604D01*
X2399Y4598D01*
X2404Y4604D01*
X2409Y4598D01*
X2415Y4604D01*
Y4619D01*
X2425D02*
Y4604D01*
X2430Y4598D01*
X2436Y4604D01*
X2441Y4598D01*
X2446Y4604D01*
Y4619D01*
X2457D02*
Y4604D01*
X2462Y4598D01*
X2467Y4604D01*
X2472Y4598D01*
X2478Y4604D01*
Y4619D01*
X2488Y4598D02*
Y4604D01*
X2493D01*
Y4598D01*
X2488D01*
X2514D02*
Y4619D01*
X2530D01*
X2535Y4614D01*
Y4598D01*
X2546Y4630D02*
Y4598D01*
X2562D01*
X2567Y4604D01*
Y4609D01*
Y4614D01*
X2562Y4619D01*
X2546D01*
X2593Y4598D02*
X2583D01*
X2577Y4604D01*
Y4614D01*
X2583Y4619D01*
X2593D01*
X2598Y4614D01*
Y4609D01*
X2577D01*
X2625Y4598D02*
X2614D01*
X2609Y4604D01*
Y4614D01*
X2614Y4619D01*
X2625D01*
X2630Y4614D01*
Y4609D01*
X2609D01*
X2640Y4598D02*
Y4604D01*
X2646D01*
Y4598D01*
X2640D01*
X2682D02*
X2672D01*
X2667Y4604D01*
Y4614D01*
X2672Y4619D01*
X2682D01*
X2688Y4614D01*
Y4609D01*
X2667D01*
X2698Y4598D02*
X2714D01*
X2719Y4604D01*
X2714Y4609D01*
X2703D01*
X2698Y4614D01*
X2703Y4619D01*
X2719D01*
X2469Y5919D02*
X2474Y5913D01*
X2484D01*
X2489Y5919D01*
Y5940D01*
X2484Y5945D01*
X2474D01*
X2469Y5940D01*
Y5934D01*
X2474Y5929D01*
X2489D01*
X2500Y5919D02*
X2505Y5913D01*
X2516D01*
X2521Y5919D01*
Y5940D01*
X2516Y5945D01*
X2505D01*
X2500Y5940D01*
Y5934D01*
X2505Y5929D01*
X2521D01*
X2531Y5940D02*
X2552Y5919D01*
X2531D02*
X2552Y5940D01*
X2531Y5929D02*
X2552D01*
X2542Y5919D02*
Y5940D01*
D48*
X2027Y5941D02*
X2055Y5913D01*
X2027Y5941D02*
X2039Y5953D01*
X2045Y5956D01*
X2047Y5956D01*
X2051Y5954D01*
X2054Y5952D01*
X2055Y5948D01*
Y5945D01*
X2052Y5940D01*
X2041Y5928D01*
X2050Y5937D02*
X2074Y5932D01*
X2069Y5983D02*
X2052Y5966D01*
X2080Y5938D01*
X2097Y5955D01*
X2065Y5953D02*
X2076Y5963D01*
X2074Y5988D02*
X2102Y5960D01*
X2118Y5976D01*
X2109Y5991D02*
X2133Y6015D01*
X2133Y6034D02*
X2132Y6035D01*
X2130Y6039D01*
Y6042D01*
X2132Y6046D01*
X2137Y6051D01*
X2141Y6052D01*
X2144D01*
X2147Y6051D01*
X2150Y6048D01*
X2151Y6044D01*
X2153Y6038D01*
Y6011D01*
X2171Y6030D01*
X2176Y6040D02*
Y6037D01*
X2179D01*
X2179Y6040D01*
X2176D01*
X2166Y6080D02*
X2164Y6075D01*
X2165Y6068D01*
X2170Y6061D01*
X2174Y6057D01*
X2182Y6051D01*
X2189Y6050D01*
X2194Y6053D01*
X2197Y6055D01*
X2200Y6061D01*
X2198Y6067D01*
X2193Y6075D01*
X2189Y6079D01*
X2181Y6084D01*
X2174Y6086D01*
X2169Y6083D01*
X2166Y6080D01*
X2191Y6105D02*
X2189Y6100D01*
X2190Y6093D01*
X2195Y6085D01*
X2199Y6081D01*
X2207Y6076D01*
X2214Y6075D01*
X2219Y6077D01*
X2222Y6080D01*
X2224Y6085D01*
X2223Y6092D01*
X2218Y6100D01*
X2214Y6104D01*
X2206Y6109D01*
X2199Y6110D01*
X2194Y6108D01*
X2191Y6105D01*
X2208Y6122D02*
X2236Y6094D01*
X2208Y6122D02*
X2220Y6134D01*
X2225Y6137D01*
X2228D01*
X2232Y6135D01*
X2235Y6133D01*
X2236Y6129D01*
Y6126D01*
X2233Y6121D01*
X2221Y6109D02*
X2233Y6121D01*
X2239Y6123D01*
X2241Y6123D01*
X2245Y6122D01*
X2249Y6118D01*
X2250Y6114D01*
Y6111D01*
X2248Y6106D01*
X2236Y6094D01*
X2420Y4535D02*
X2405Y4575D01*
X2390Y4535D01*
X2395Y4549D02*
X2414D01*
X2457Y4565D02*
X2455Y4569D01*
X2451Y4573D01*
X2448Y4575D01*
X2440D01*
X2436Y4573D01*
X2433Y4569D01*
X2431Y4565D01*
X2429Y4560D01*
Y4550D01*
X2431Y4545D01*
X2433Y4541D01*
X2436Y4537D01*
X2440Y4535D01*
X2448D01*
X2451Y4537D01*
X2455Y4541D01*
X2457Y4545D01*
X2481Y4575D02*
Y4535D01*
X2468Y4575D02*
X2494D01*
X2523D02*
X2499D01*
Y4535D01*
X2523D01*
X2499Y4556D02*
X2514D01*
X2530Y4575D02*
Y4535D01*
X2552D01*
X2618D02*
X2603Y4575D01*
X2588Y4535D01*
X2593Y4549D02*
X2612D01*
X2631Y4575D02*
X2651D01*
X2640Y4560D01*
X2646D01*
X2649Y4558D01*
X2651Y4556D01*
X2653Y4550D01*
Y4547D01*
X2651Y4541D01*
X2647Y4537D01*
X2642Y4535D01*
X2636D01*
X2631Y4537D01*
X2629Y4539D01*
X2627Y4543D01*
X2662Y4554D02*
X2679D01*
X2684Y4556D01*
X2686Y4558D01*
X2688Y4562D01*
Y4567D01*
X2686Y4571D01*
X2684Y4573D01*
X2679Y4575D01*
X2662D01*
Y4535D01*
X2728Y4575D02*
Y4535D01*
Y4575D02*
X2741D01*
X2747Y4573D01*
X2750Y4569D01*
X2752Y4565D01*
X2754Y4560D01*
Y4550D01*
X2752Y4545D01*
X2750Y4541D01*
X2747Y4537D01*
X2741Y4535D01*
X2728D01*
X2763Y4550D02*
X2785D01*
Y4554D01*
X2784Y4558D01*
X2782Y4560D01*
X2778Y4562D01*
X2772D01*
X2769Y4560D01*
X2765Y4556D01*
X2763Y4550D01*
Y4547D01*
X2765Y4541D01*
X2769Y4537D01*
X2772Y4535D01*
X2778D01*
X2782Y4537D01*
X2785Y4541D01*
X2794Y4562D02*
X2805Y4535D01*
X2816Y4562D02*
X2805Y4535D01*
X2823Y4550D02*
X2845D01*
Y4554D01*
X2843Y4558D01*
X2841Y4560D01*
X2838Y4562D01*
X2832D01*
X2828Y4560D01*
X2825Y4556D01*
X2823Y4550D01*
Y4547D01*
X2825Y4541D01*
X2828Y4537D01*
X2832Y4535D01*
X2838D01*
X2841Y4537D01*
X2845Y4541D01*
X2854Y4575D02*
Y4535D01*
M02*
