%FSLAX23Y23*%
%MOIN*%
G70*
G01*
G75*
G04 Layer_Physical_Order=2*
G04 Layer_Color=16711680*
%ADD10C,0.012*%
%ADD11C,0.014*%
%ADD12R,0.118X0.073*%
%ADD13R,0.031X0.031*%
%ADD14R,0.087X0.024*%
%ADD15R,0.087X0.024*%
%ADD16O,0.010X0.080*%
%ADD17O,0.080X0.010*%
%ADD18R,0.079X0.047*%
%ADD19R,0.014X0.014*%
%ADD20R,0.020X0.020*%
%ADD21R,0.030X0.030*%
%ADD22R,0.030X0.030*%
%ADD23C,0.008*%
%ADD24C,0.031*%
%ADD25C,0.024*%
%ADD26C,0.020*%
%ADD27C,0.016*%
%ADD28C,0.059*%
%ADD29R,0.059X0.059*%
%ADD30R,0.059X0.059*%
%ADD31C,0.024*%
%ADD32C,0.030*%
%ADD33R,0.060X0.060*%
%ADD34R,0.040X0.050*%
%ADD35R,0.040X0.060*%
%ADD36R,0.085X0.043*%
%ADD37R,0.085X0.043*%
%ADD38R,0.085X0.138*%
%ADD39R,0.022X0.061*%
%ADD40R,0.059X0.051*%
%ADD41R,0.039X0.043*%
%ADD42R,0.059X0.057*%
G36*
X2205Y6161D02*
X2234Y6132D01*
X2234Y6128D01*
X2229Y6122D01*
X2229Y6119D01*
X2248D01*
Y6114D01*
X2253D01*
Y6094D01*
X2256Y6092D01*
Y6031D01*
Y6019D01*
X2252Y6016D01*
X2252Y6016D01*
X2244Y6015D01*
X2238Y6010D01*
X2233Y6004D01*
X2233Y6001D01*
X2252D01*
Y5991D01*
X2233D01*
X2233Y5988D01*
X2238Y5982D01*
X2244Y5978D01*
X2252Y5976D01*
X2252Y5976D01*
X2256Y5973D01*
Y5968D01*
X2252Y5965D01*
X2252Y5965D01*
X2244Y5963D01*
X2238Y5959D01*
X2233Y5953D01*
X2233Y5950D01*
X2252D01*
Y5940D01*
X2233D01*
X2233Y5937D01*
X2238Y5931D01*
X2244Y5926D01*
X2252Y5925D01*
X2252Y5925D01*
X2256Y5922D01*
Y5882D01*
X2295Y5843D01*
X2312Y5825D01*
X2310Y5821D01*
X2274D01*
Y5780D01*
X2269Y5778D01*
X2236Y5812D01*
X2233Y5819D01*
X2227Y5827D01*
X2219Y5833D01*
X2212Y5836D01*
X2122Y5925D01*
Y5938D01*
X2125D01*
Y5984D01*
X2080D01*
Y5974D01*
X2075Y5972D01*
X2039Y6008D01*
X2035Y6012D01*
Y6043D01*
X2043Y6044D01*
X2050Y6049D01*
X2054Y6055D01*
X2055Y6058D01*
X2035D01*
Y6068D01*
X2055D01*
X2054Y6071D01*
X2050Y6077D01*
X2043Y6082D01*
X2035Y6083D01*
Y6094D01*
X2043Y6096D01*
X2050Y6100D01*
X2054Y6106D01*
X2054D01*
X2060Y6105D01*
X2061Y6104D01*
X2067Y6100D01*
X2070Y6099D01*
Y6118D01*
X2075D01*
Y6123D01*
X2094D01*
X2093Y6126D01*
X2089Y6132D01*
X2082Y6137D01*
X2081Y6137D01*
Y6142D01*
X2086Y6143D01*
X2093Y6147D01*
X2097Y6154D01*
X2098Y6156D01*
X2079D01*
Y6166D01*
X2099D01*
X2101Y6169D01*
X2197D01*
X2205Y6161D01*
D02*
G37*
G36*
X3979Y5780D02*
Y4447D01*
X3975Y4446D01*
X3971Y4451D01*
X3964Y4456D01*
X3962Y4456D01*
Y4437D01*
Y4418D01*
X3964Y4418D01*
X3971Y4423D01*
X3975Y4428D01*
X3979Y4427D01*
Y4209D01*
X2027D01*
X2023Y4213D01*
X2015D01*
Y4226D01*
X2019Y4229D01*
X2024Y4226D01*
X2026Y4225D01*
Y4244D01*
Y4263D01*
X2024Y4263D01*
X2019Y4260D01*
X2015Y4262D01*
Y4447D01*
X2020Y4449D01*
X2021Y4446D01*
X2028Y4442D01*
X2030Y4442D01*
Y4461D01*
Y4480D01*
X2028Y4479D01*
X2021Y4475D01*
X2020Y4472D01*
X2015Y4474D01*
Y4863D01*
Y6042D01*
X2020Y6043D01*
X2021Y6041D01*
X2027Y6037D01*
Y6012D01*
X2027Y6012D01*
X2028Y6009D01*
X2030Y6006D01*
X2030Y6006D01*
X2034Y6002D01*
X2034Y6002D01*
X2069Y5967D01*
X2071Y5965D01*
X2072Y5965D01*
X2074Y5964D01*
X2075Y5964D01*
X2075D01*
X2075D01*
X2075D01*
X2076Y5964D01*
Y5964D01*
X2080Y5946D01*
Y5938D01*
X2082D01*
Y5837D01*
X2063D01*
Y5805D01*
X2137D01*
Y5837D01*
X2122D01*
Y5907D01*
X2127Y5909D01*
X2194Y5842D01*
X2193Y5837D01*
X2190Y5836D01*
X2181Y5833D01*
X2173Y5827D01*
X2167Y5819D01*
X2164Y5810D01*
X2162Y5800D01*
X2164Y5790D01*
X2167Y5781D01*
X2173Y5773D01*
X2181Y5767D01*
X2190Y5764D01*
X2200Y5762D01*
X2210Y5764D01*
X2219Y5767D01*
X2227Y5773D01*
X2233Y5781D01*
X2236Y5790D01*
X2237Y5793D01*
X2242Y5794D01*
X2263Y5773D01*
X2265Y5771D01*
X2266Y5771D01*
X2268Y5770D01*
X2269Y5770D01*
X2269D01*
X2269D01*
X2269D01*
X2270Y5770D01*
Y5770D01*
X2274Y5752D01*
Y5746D01*
X2295D01*
X2298Y5742D01*
X2298Y5741D01*
X2298Y5740D01*
X2298Y5738D01*
X2300Y5736D01*
X2300Y5736D01*
X2376Y5660D01*
X2379Y5658D01*
X2382Y5657D01*
X2657D01*
X2657Y5657D01*
X2661Y5658D01*
X2663Y5660D01*
X2663Y5660D01*
X2718Y5715D01*
X2718Y5715D01*
X2720Y5716D01*
X2839D01*
X2842Y5717D01*
X2844Y5719D01*
X2846Y5720D01*
X2850Y5718D01*
Y5701D01*
X2799D01*
X2792Y5700D01*
X2790Y5699D01*
X2721D01*
Y5640D01*
X2822D01*
Y5661D01*
X2850D01*
Y5636D01*
X2984D01*
Y5724D01*
X2984Y5724D01*
X2984D01*
X2983Y5727D01*
X3114Y5857D01*
X3119Y5864D01*
X3120Y5872D01*
Y5968D01*
X3127Y5973D01*
X3133Y5981D01*
X3136Y5990D01*
X3138Y6000D01*
X3136Y6010D01*
X3133Y6019D01*
X3127Y6027D01*
X3119Y6033D01*
X3110Y6036D01*
X3100Y6038D01*
X3090Y6036D01*
X3081Y6033D01*
X3073Y6027D01*
X3067Y6019D01*
X3064Y6010D01*
X3062Y6000D01*
X3064Y5990D01*
X3067Y5981D01*
X3073Y5973D01*
X3080Y5968D01*
Y5880D01*
X2924Y5724D01*
X2856D01*
X2855Y5729D01*
X2899Y5774D01*
X2899Y5774D01*
X2903Y5778D01*
X2905Y5780D01*
X2906Y5783D01*
X2905Y5787D01*
X2903Y5789D01*
X2903Y5789D01*
X2892Y5801D01*
X2894Y5805D01*
X2912D01*
Y5850D01*
Y5894D01*
X2850D01*
Y5870D01*
X2822D01*
Y5880D01*
X2777D01*
Y5850D01*
X2767D01*
Y5880D01*
X2721D01*
Y5870D01*
X2525D01*
Y5850D01*
X2515D01*
Y5870D01*
X2485D01*
Y5850D01*
X2480D01*
Y5845D01*
X2457D01*
X2458Y5843D01*
X2462Y5836D01*
X2469Y5832D01*
X2468Y5827D01*
X2446D01*
X2444Y5831D01*
X2444Y5834D01*
X2406D01*
X2407Y5831D01*
X2405Y5827D01*
X2348D01*
X2345Y5826D01*
X2343Y5825D01*
X2341Y5822D01*
X2341Y5821D01*
X2323D01*
X2320Y5825D01*
X2320Y5825D01*
X2320Y5827D01*
X2320Y5829D01*
X2318Y5831D01*
X2318D01*
Y5831D01*
X2308Y5841D01*
X2310Y5846D01*
X2311Y5846D01*
X2321Y5847D01*
X2330Y5851D01*
X2338Y5857D01*
X2344Y5865D01*
X2347Y5874D01*
X2349Y5883D01*
X2347Y5893D01*
X2344Y5902D01*
X2338Y5910D01*
X2330Y5916D01*
X2321Y5920D01*
X2320Y5920D01*
Y5961D01*
X2325Y5967D01*
X2326Y5976D01*
X2325Y5985D01*
X2320Y5993D01*
X2312Y5998D01*
X2303Y6000D01*
X2294Y5998D01*
X2287Y5993D01*
X2282Y5985D01*
X2280Y5976D01*
X2281Y5972D01*
X2280Y5969D01*
Y5904D01*
X2278Y5902D01*
X2275Y5893D01*
X2273Y5883D01*
X2273Y5882D01*
X2269Y5880D01*
X2264Y5885D01*
Y5922D01*
X2264Y5922D01*
X2264Y5922D01*
X2264Y5924D01*
X2263Y5925D01*
X2263Y5925D01*
X2263Y5925D01*
D01*
X2263Y5925D01*
D01*
X2263Y5925D01*
X2263Y5925D01*
X2263Y5925D01*
X2263Y5925D01*
X2262Y5928D01*
X2262Y5928D01*
X2262Y5928D01*
X2266Y5931D01*
X2271Y5937D01*
X2272Y5945D01*
X2271Y5953D01*
X2266Y5959D01*
X2261Y5962D01*
X2263Y5964D01*
X2263Y5964D01*
X2263D01*
X2263Y5964D01*
X2263Y5964D01*
X2263D01*
X2263Y5965D01*
X2263Y5965D01*
X2263Y5966D01*
X2264Y5967D01*
X2264Y5968D01*
X2264Y5968D01*
Y5973D01*
X2264Y5973D01*
X2264Y5974D01*
X2263Y5975D01*
X2263Y5976D01*
X2263Y5976D01*
X2263Y5977D01*
X2263Y5977D01*
X2263Y5977D01*
X2263Y5977D01*
X2263D01*
X2263Y5977D01*
X2261Y5979D01*
D01*
X2266Y5982D01*
X2271Y5988D01*
X2272Y5996D01*
X2271Y6004D01*
X2266Y6010D01*
X2262Y6013D01*
X2262Y6013D01*
X2263Y6016D01*
X2263Y6016D01*
X2263Y6016D01*
X2263Y6016D01*
X2263Y6016D01*
X2264Y6017D01*
X2264Y6019D01*
X2264Y6019D01*
X2264Y6019D01*
Y6031D01*
Y6092D01*
X2264Y6092D01*
X2264Y6093D01*
X2264Y6094D01*
X2263Y6095D01*
X2263Y6095D01*
X2263Y6096D01*
X2262Y6096D01*
X2262Y6097D01*
D01*
X2267Y6106D01*
X2267Y6106D01*
X2268Y6114D01*
X2267Y6122D01*
X2262Y6128D01*
X2256Y6133D01*
X2248Y6134D01*
X2242Y6133D01*
X2242Y6134D01*
Y6134D01*
D01*
D01*
D01*
X2242Y6134D01*
X2242Y6135D01*
X2242Y6135D01*
X2241Y6136D01*
X2240Y6137D01*
X2240Y6137D01*
X2240Y6138D01*
X2212Y6165D01*
X2211Y6169D01*
X2209Y6173D01*
X2211Y6178D01*
X2263D01*
X2265Y6173D01*
X2265Y6173D01*
X2264Y6170D01*
X2303D01*
X2302Y6173D01*
X2302Y6173D01*
X2304Y6178D01*
X3166D01*
X3168Y6173D01*
X3149Y6154D01*
X3146Y6150D01*
X3145Y6146D01*
X3145Y6146D01*
Y6039D01*
X3145Y6039D01*
X3146Y6035D01*
X3149Y6031D01*
X3165Y6014D01*
X3164Y6010D01*
X3162Y6000D01*
X3164Y5990D01*
X3167Y5981D01*
X3173Y5973D01*
X3181Y5967D01*
X3190Y5964D01*
X3200Y5962D01*
X3210Y5964D01*
X3219Y5967D01*
X3227Y5973D01*
X3233Y5981D01*
X3236Y5990D01*
X3238Y6000D01*
X3236Y6010D01*
X3233Y6019D01*
X3227Y6027D01*
X3219Y6033D01*
X3210Y6036D01*
X3200Y6038D01*
X3190Y6036D01*
X3181Y6033D01*
X3170Y6044D01*
Y6071D01*
X3174Y6073D01*
X3181Y6067D01*
X3190Y6064D01*
X3200Y6062D01*
X3210Y6064D01*
X3219Y6067D01*
X3227Y6073D01*
X3233Y6081D01*
X3236Y6090D01*
X3238Y6100D01*
X3236Y6110D01*
X3234Y6115D01*
X3253Y6134D01*
X3275D01*
X3276Y6129D01*
X3273Y6127D01*
X3267Y6119D01*
X3264Y6110D01*
X3262Y6100D01*
X3263Y6091D01*
X3247Y6075D01*
X3245Y6072D01*
X3244Y6067D01*
X3244Y6067D01*
Y5957D01*
X3244Y5957D01*
X3245Y5952D01*
X3247Y5948D01*
X3298Y5898D01*
X3302Y5895D01*
X3306Y5894D01*
X3306Y5894D01*
X3819D01*
X3819Y5894D01*
X3824Y5895D01*
X3828Y5898D01*
X3851Y5921D01*
X3879D01*
Y5910D01*
X3924D01*
Y5956D01*
X3879D01*
Y5945D01*
X3846D01*
X3846Y5945D01*
X3841Y5944D01*
X3837Y5942D01*
X3837Y5942D01*
X3827Y5931D01*
X3822Y5933D01*
Y5956D01*
X3776D01*
Y5945D01*
X3359D01*
X3329Y5976D01*
X3333Y5981D01*
X3336Y5990D01*
X3338Y6000D01*
X3336Y6010D01*
X3333Y6019D01*
X3327Y6027D01*
X3319Y6033D01*
X3310Y6036D01*
X3300Y6038D01*
X3290Y6036D01*
X3281Y6033D01*
X3273Y6027D01*
X3273Y6026D01*
X3268Y6027D01*
Y6062D01*
X3277Y6071D01*
X3281Y6067D01*
X3290Y6064D01*
X3300Y6062D01*
X3310Y6064D01*
X3319Y6067D01*
X3327Y6073D01*
X3333Y6081D01*
X3336Y6090D01*
X3338Y6100D01*
X3336Y6110D01*
X3333Y6119D01*
X3327Y6127D01*
X3324Y6129D01*
X3325Y6134D01*
X3375D01*
X3376Y6129D01*
X3373Y6127D01*
X3367Y6119D01*
X3364Y6110D01*
X3362Y6100D01*
X3364Y6090D01*
X3367Y6081D01*
X3373Y6073D01*
X3381Y6067D01*
X3390Y6064D01*
X3400Y6062D01*
X3410Y6064D01*
X3419Y6067D01*
X3427Y6073D01*
X3433Y6081D01*
X3436Y6090D01*
X3438Y6100D01*
X3436Y6110D01*
X3433Y6119D01*
X3427Y6127D01*
X3424Y6129D01*
X3425Y6134D01*
X3475D01*
X3476Y6129D01*
X3473Y6127D01*
X3467Y6119D01*
X3464Y6110D01*
X3462Y6100D01*
X3464Y6090D01*
X3467Y6081D01*
X3473Y6073D01*
X3481Y6067D01*
X3490Y6064D01*
X3500Y6062D01*
X3510Y6064D01*
X3519Y6067D01*
X3527Y6073D01*
X3533Y6081D01*
X3536Y6090D01*
X3538Y6100D01*
X3536Y6110D01*
X3533Y6119D01*
X3527Y6127D01*
X3524Y6129D01*
X3525Y6134D01*
X3563D01*
Y6063D01*
X3637D01*
Y6134D01*
X3723D01*
X3776Y6081D01*
Y6052D01*
X3822D01*
Y6098D01*
X3793D01*
X3789Y6102D01*
X3791Y6107D01*
X3822D01*
Y6153D01*
X3818D01*
X3818Y6153D01*
X3813Y6160D01*
X3813Y6160D01*
X3814Y6165D01*
X3830D01*
X3838Y6156D01*
Y6094D01*
X3838Y6094D01*
X3839Y6090D01*
X3842Y6086D01*
X3862Y6066D01*
X3862Y6066D01*
X3865Y6064D01*
X3870Y6063D01*
X3870Y6063D01*
X3879D01*
Y6052D01*
X3924D01*
Y6098D01*
X3879D01*
Y6090D01*
X3874Y6088D01*
X3862Y6099D01*
Y6161D01*
X3862Y6161D01*
X3862Y6161D01*
Y6161D01*
X3862D01*
X3862Y6161D01*
X3862Y6166D01*
X3860Y6168D01*
X3859Y6170D01*
X3859Y6170D01*
X3856Y6173D01*
X3858Y6178D01*
X3979D01*
Y5780D01*
D02*
G37*
G36*
X2850Y5805D02*
X2876D01*
X2898Y5783D01*
X2894Y5780D01*
X2839Y5724D01*
X2717D01*
X2713Y5720D01*
X2657Y5665D01*
X2382D01*
X2306Y5741D01*
X2308Y5746D01*
X2348D01*
Y5778D01*
X2311D01*
Y5788D01*
X2348D01*
Y5819D01*
X2423D01*
X2425Y5819D01*
X2427Y5819D01*
X2477D01*
Y5765D01*
X2578D01*
Y5819D01*
X2850D01*
Y5805D01*
D02*
G37*
%LPC*%
G36*
X3046Y4893D02*
X3028D01*
Y4875D01*
X3046D01*
Y4893D01*
D02*
G37*
G36*
X3019D02*
X3001D01*
Y4875D01*
X3019D01*
Y4893D01*
D02*
G37*
G36*
X3074D02*
X3056D01*
Y4875D01*
X3074D01*
Y4893D01*
D02*
G37*
G36*
X3223Y4897D02*
X3206D01*
Y4879D01*
X3223D01*
Y4897D01*
D02*
G37*
G36*
X3251D02*
X3233D01*
Y4879D01*
X3251D01*
Y4897D01*
D02*
G37*
G36*
X3900Y4938D02*
X3890Y4936D01*
X3881Y4933D01*
X3873Y4927D01*
X3867Y4919D01*
X3864Y4910D01*
X3862Y4900D01*
X3864Y4890D01*
X3867Y4881D01*
X3873Y4873D01*
X3881Y4867D01*
X3890Y4864D01*
X3900Y4862D01*
X3910Y4864D01*
X3919Y4867D01*
X3927Y4873D01*
X3933Y4881D01*
X3936Y4890D01*
X3938Y4900D01*
X3936Y4910D01*
X3933Y4919D01*
X3927Y4927D01*
X3919Y4933D01*
X3910Y4936D01*
X3900Y4938D01*
D02*
G37*
G36*
X3600D02*
X3590Y4936D01*
X3581Y4933D01*
X3573Y4927D01*
X3567Y4919D01*
X3564Y4910D01*
X3562Y4900D01*
X3564Y4890D01*
X3567Y4881D01*
X3573Y4873D01*
X3581Y4867D01*
X3590Y4864D01*
X3600Y4862D01*
X3610Y4864D01*
X3619Y4867D01*
X3627Y4873D01*
X3633Y4881D01*
X3636Y4890D01*
X3638Y4900D01*
X3636Y4910D01*
X3633Y4919D01*
X3627Y4927D01*
X3619Y4933D01*
X3610Y4936D01*
X3600Y4938D01*
D02*
G37*
G36*
X3500D02*
X3490Y4936D01*
X3481Y4933D01*
X3473Y4927D01*
X3467Y4919D01*
X3464Y4910D01*
X3462Y4900D01*
X3464Y4890D01*
X3467Y4881D01*
X3473Y4873D01*
X3481Y4867D01*
X3490Y4864D01*
X3500Y4862D01*
X3510Y4864D01*
X3519Y4867D01*
X3527Y4873D01*
X3533Y4881D01*
X3536Y4890D01*
X3538Y4900D01*
X3536Y4910D01*
X3533Y4919D01*
X3527Y4927D01*
X3519Y4933D01*
X3510Y4936D01*
X3500Y4938D01*
D02*
G37*
G36*
X2991Y4893D02*
X2973D01*
Y4875D01*
X2991D01*
Y4893D01*
D02*
G37*
G36*
X2200Y4938D02*
X2190Y4936D01*
X2181Y4933D01*
X2173Y4927D01*
X2167Y4919D01*
X2164Y4910D01*
X2162Y4900D01*
X2164Y4890D01*
X2167Y4881D01*
X2173Y4873D01*
X2181Y4867D01*
X2190Y4864D01*
X2200Y4862D01*
X2210Y4864D01*
X2219Y4867D01*
X2227Y4873D01*
X2233Y4881D01*
X2236Y4890D01*
X2238Y4900D01*
X2236Y4910D01*
X2233Y4919D01*
X2227Y4927D01*
X2219Y4933D01*
X2210Y4936D01*
X2200Y4938D01*
D02*
G37*
G36*
X3394Y4918D02*
X3386Y4916D01*
X3381Y4913D01*
X3351D01*
Y4867D01*
X3397D01*
Y4878D01*
X3401Y4879D01*
X3408Y4883D01*
X3412Y4890D01*
X3414Y4898D01*
X3412Y4905D01*
X3408Y4912D01*
X3401Y4916D01*
X3394Y4918D01*
D02*
G37*
G36*
X2991Y4921D02*
X2973D01*
Y4903D01*
X2991D01*
Y4921D01*
D02*
G37*
G36*
X2669Y4948D02*
X2655D01*
Y4934D01*
X2657Y4934D01*
X2664Y4939D01*
X2668Y4945D01*
X2669Y4948D01*
D02*
G37*
G36*
X2645D02*
X2631D01*
X2631Y4945D01*
X2635Y4939D01*
X2642Y4934D01*
X2645Y4934D01*
Y4948D01*
D02*
G37*
G36*
X2996Y5067D02*
X2988Y5066D01*
X2982Y5061D01*
X2978Y5055D01*
X2976Y5047D01*
X2978Y5040D01*
X2982Y5033D01*
X2984Y5032D01*
Y4984D01*
X2982Y4983D01*
X2978Y4976D01*
X2977Y4976D01*
X2973D01*
Y4930D01*
X3019D01*
Y4972D01*
X3019Y4973D01*
D01*
X3024Y4973D01*
D01*
X3024Y4973D01*
X3025Y4969D01*
X3028Y4963D01*
Y4930D01*
X3074D01*
Y4976D01*
X3064D01*
X3063Y4976D01*
X3062Y4984D01*
X3057Y4991D01*
X3051Y4995D01*
X3043Y4996D01*
X3036Y4995D01*
X3029Y4991D01*
X3025Y4984D01*
X3023Y4976D01*
X3019Y4976D01*
Y4976D01*
X3019D01*
Y4976D01*
X3015D01*
X3015Y4976D01*
X3010Y4983D01*
X3008Y4984D01*
Y5032D01*
X3010Y5033D01*
X3015Y5040D01*
X3016Y5047D01*
X3015Y5055D01*
X3010Y5061D01*
X3004Y5066D01*
X2996Y5067D01*
D02*
G37*
G36*
X2428Y4971D02*
X2414D01*
X2415Y4969D01*
X2419Y4962D01*
X2425Y4958D01*
X2428Y4957D01*
Y4971D01*
D02*
G37*
G36*
X2200Y5238D02*
X2190Y5236D01*
X2181Y5233D01*
X2173Y5227D01*
X2167Y5219D01*
X2164Y5210D01*
X2162Y5200D01*
X2164Y5190D01*
X2167Y5181D01*
X2173Y5173D01*
X2181Y5167D01*
X2190Y5164D01*
X2200Y5162D01*
X2208Y5163D01*
X2307Y5065D01*
Y4980D01*
Y4976D01*
X2308Y4969D01*
X2313Y4962D01*
X2319Y4958D01*
X2327Y4956D01*
X2329Y4957D01*
X2331Y4956D01*
X2338Y4958D01*
X2345Y4962D01*
X2349Y4969D01*
X2351Y4976D01*
X2349Y4984D01*
X2347Y4988D01*
Y4989D01*
X2349Y4992D01*
X2351Y5000D01*
X2349Y5008D01*
X2347Y5011D01*
Y5073D01*
X2345Y5081D01*
X2341Y5087D01*
X2237Y5192D01*
X2238Y5200D01*
X2236Y5210D01*
X2233Y5219D01*
X2227Y5227D01*
X2219Y5233D01*
X2210Y5236D01*
X2200Y5238D01*
D02*
G37*
G36*
X3369Y4972D02*
X3351D01*
Y4954D01*
X3369D01*
Y4972D01*
D02*
G37*
G36*
X3074Y4921D02*
X3056D01*
Y4903D01*
X3074D01*
Y4921D01*
D02*
G37*
G36*
X3046D02*
X3028D01*
Y4903D01*
X3046D01*
Y4921D01*
D02*
G37*
G36*
X3019D02*
X3001D01*
Y4903D01*
X3019D01*
Y4921D01*
D02*
G37*
G36*
X3398Y5028D02*
X3392Y5027D01*
X3351D01*
Y4981D01*
X3380D01*
X3382Y4976D01*
X3380Y4975D01*
X3379Y4974D01*
Y4949D01*
Y4926D01*
X3397D01*
Y4941D01*
X3401Y4942D01*
X3408Y4946D01*
X3412Y4953D01*
X3413Y4956D01*
X3394D01*
Y4966D01*
X3413D01*
X3412Y4968D01*
X3408Y4975D01*
X3401Y4979D01*
X3397Y4980D01*
Y4981D01*
X3397Y4981D01*
X3397Y4981D01*
Y4981D01*
D01*
Y4987D01*
X3398Y4988D01*
X3405Y4989D01*
X3412Y4994D01*
X3416Y5000D01*
X3418Y5008D01*
X3416Y5016D01*
X3412Y5022D01*
X3405Y5026D01*
X3398Y5028D01*
D02*
G37*
G36*
X3369Y4944D02*
X3351D01*
Y4926D01*
X3369D01*
Y4944D01*
D02*
G37*
G36*
X3223Y4924D02*
X3206D01*
Y4907D01*
X3223D01*
Y4924D01*
D02*
G37*
G36*
X2100Y4938D02*
X2090Y4936D01*
X2081Y4933D01*
X2073Y4927D01*
X2067Y4919D01*
X2064Y4910D01*
X2062Y4900D01*
X2064Y4890D01*
X2067Y4881D01*
X2073Y4873D01*
X2081Y4867D01*
X2090Y4864D01*
X2100Y4862D01*
X2110Y4864D01*
X2119Y4867D01*
X2127Y4873D01*
X2133Y4881D01*
X2136Y4890D01*
X2138Y4900D01*
X2136Y4910D01*
X2133Y4919D01*
X2127Y4927D01*
X2119Y4933D01*
X2110Y4936D01*
X2100Y4938D01*
D02*
G37*
G36*
X2618Y4775D02*
X2603D01*
Y4760D01*
X2606Y4761D01*
X2613Y4765D01*
X2617Y4772D01*
X2618Y4775D01*
D02*
G37*
G36*
X2593D02*
X2579D01*
X2580Y4772D01*
X2584Y4765D01*
X2591Y4761D01*
X2593Y4760D01*
Y4775D01*
D02*
G37*
G36*
X2945Y4796D02*
X2937Y4794D01*
X2931Y4790D01*
X2926Y4783D01*
X2926Y4782D01*
X2919Y4775D01*
X2835D01*
Y4742D01*
X2831Y4740D01*
X2827Y4743D01*
X2819Y4744D01*
X2811Y4743D01*
X2805Y4739D01*
X2800Y4732D01*
X2799Y4727D01*
X2794Y4725D01*
X2784Y4736D01*
X2783Y4736D01*
X2782Y4740D01*
X2778Y4746D01*
X2771Y4751D01*
X2764Y4752D01*
X2756Y4751D01*
X2750Y4746D01*
X2745Y4740D01*
X2744Y4732D01*
X2745Y4725D01*
X2747Y4721D01*
X2745Y4717D01*
X2733D01*
Y4725D01*
X2631D01*
Y4685D01*
X2730D01*
X2730Y4684D01*
X2730D01*
X2731Y4681D01*
X2730Y4680D01*
X2727Y4675D01*
X2631D01*
Y4635D01*
X2733D01*
Y4644D01*
X2734Y4644D01*
X2738Y4646D01*
X2744Y4645D01*
X2752Y4647D01*
X2758Y4651D01*
X2763Y4658D01*
X2764Y4665D01*
X2763Y4673D01*
X2758Y4680D01*
X2752Y4684D01*
X2744Y4685D01*
X2737Y4684D01*
X2736Y4685D01*
X2735Y4686D01*
Y4686D01*
X2734Y4688D01*
D01*
X2733Y4689D01*
X2736Y4693D01*
X2770D01*
X2785Y4679D01*
X2781Y4673D01*
X2779Y4665D01*
X2781Y4658D01*
X2785Y4651D01*
X2792Y4647D01*
X2799Y4645D01*
X2807Y4647D01*
X2813Y4651D01*
X2818Y4658D01*
X2818Y4661D01*
X2823Y4662D01*
X2835Y4650D01*
Y4635D01*
X2938D01*
Y4675D01*
X2845D01*
X2839Y4681D01*
X2841Y4685D01*
X2938D01*
Y4725D01*
X2839D01*
X2838Y4731D01*
X2839Y4733D01*
X2842Y4735D01*
X2938D01*
Y4753D01*
X2942Y4756D01*
X2945Y4756D01*
X2953Y4757D01*
X2959Y4761D01*
X2963Y4768D01*
X2965Y4776D01*
X2963Y4783D01*
X2959Y4790D01*
X2953Y4794D01*
X2945Y4796D01*
D02*
G37*
G36*
X3900Y4838D02*
X3890Y4836D01*
X3881Y4833D01*
X3873Y4827D01*
X3867Y4819D01*
X3864Y4810D01*
X3862Y4800D01*
X3864Y4790D01*
X3867Y4781D01*
X3873Y4773D01*
X3881Y4767D01*
X3890Y4764D01*
X3900Y4762D01*
X3910Y4764D01*
X3919Y4767D01*
X3927Y4773D01*
X3933Y4781D01*
X3936Y4790D01*
X3938Y4800D01*
X3936Y4810D01*
X3933Y4819D01*
X3927Y4827D01*
X3919Y4833D01*
X3910Y4836D01*
X3900Y4838D01*
D02*
G37*
G36*
X2200D02*
X2190Y4836D01*
X2181Y4833D01*
X2173Y4827D01*
X2167Y4819D01*
X2164Y4810D01*
X2162Y4800D01*
X2164Y4790D01*
X2167Y4781D01*
X2173Y4773D01*
X2181Y4767D01*
X2190Y4764D01*
X2200Y4762D01*
X2210Y4764D01*
X2219Y4767D01*
X2227Y4773D01*
X2233Y4781D01*
X2236Y4790D01*
X2238Y4800D01*
X2236Y4810D01*
X2233Y4819D01*
X2227Y4827D01*
X2219Y4833D01*
X2210Y4836D01*
X2200Y4838D01*
D02*
G37*
G36*
X2100D02*
X2090Y4836D01*
X2081Y4833D01*
X2073Y4827D01*
X2067Y4819D01*
X2064Y4810D01*
X2062Y4800D01*
X2064Y4790D01*
X2067Y4781D01*
X2073Y4773D01*
X2081Y4767D01*
X2090Y4764D01*
X2100Y4762D01*
X2110Y4764D01*
X2119Y4767D01*
X2127Y4773D01*
X2133Y4781D01*
X2136Y4790D01*
X2138Y4800D01*
X2136Y4810D01*
X2133Y4819D01*
X2127Y4827D01*
X2119Y4833D01*
X2110Y4836D01*
X2100Y4838D01*
D02*
G37*
G36*
X3361Y4731D02*
X3347D01*
X3348Y4729D01*
X3352Y4722D01*
X3358Y4718D01*
X3361Y4717D01*
Y4731D01*
D02*
G37*
G36*
X2444D02*
X2430D01*
Y4717D01*
X2433Y4718D01*
X2439Y4722D01*
X2444Y4729D01*
X2444Y4731D01*
D02*
G37*
G36*
X2420D02*
X2406D01*
X2407Y4729D01*
X2411Y4722D01*
X2418Y4718D01*
X2420Y4717D01*
Y4731D01*
D02*
G37*
G36*
X2430Y4755D02*
Y4741D01*
X2444D01*
X2444Y4744D01*
X2439Y4750D01*
X2433Y4755D01*
X2430Y4755D01*
D02*
G37*
G36*
X2420D02*
X2418Y4755D01*
X2411Y4750D01*
X2407Y4744D01*
X2406Y4741D01*
X2420D01*
Y4755D01*
D02*
G37*
G36*
X3385Y4731D02*
X3371D01*
Y4717D01*
X3374Y4718D01*
X3380Y4722D01*
X3385Y4729D01*
X3385Y4731D01*
D02*
G37*
G36*
X2593Y4799D02*
X2591Y4798D01*
X2584Y4794D01*
X2580Y4787D01*
X2579Y4785D01*
X2593D01*
Y4799D01*
D02*
G37*
G36*
X2731Y4865D02*
X2713D01*
Y4848D01*
X2731D01*
Y4865D01*
D02*
G37*
G36*
X3397Y4858D02*
X3379D01*
Y4840D01*
X3397D01*
Y4858D01*
D02*
G37*
G36*
X3369D02*
X3351D01*
Y4840D01*
X3369D01*
Y4858D01*
D02*
G37*
G36*
X3013Y4866D02*
Y4851D01*
X3027D01*
X3026Y4854D01*
X3022Y4861D01*
X3016Y4865D01*
X3013Y4866D01*
D02*
G37*
G36*
X3003D02*
X3000Y4865D01*
X2994Y4861D01*
X2989Y4854D01*
X2989Y4851D01*
X3003D01*
Y4866D01*
D02*
G37*
G36*
X2759Y4865D02*
X2741D01*
Y4848D01*
X2759D01*
Y4865D01*
D02*
G37*
G36*
X2731Y4838D02*
X2713D01*
Y4820D01*
X2731D01*
Y4838D01*
D02*
G37*
G36*
X3369Y4830D02*
X3351D01*
Y4812D01*
X3369D01*
Y4830D01*
D02*
G37*
G36*
X2603Y4799D02*
Y4785D01*
X2618D01*
X2617Y4787D01*
X2613Y4794D01*
X2606Y4798D01*
X2603Y4799D01*
D02*
G37*
G36*
X3027Y4841D02*
X3013D01*
Y4827D01*
X3016Y4828D01*
X3022Y4832D01*
X3026Y4839D01*
X3027Y4841D01*
D02*
G37*
G36*
X3003D02*
X2989D01*
X2989Y4839D01*
X2994Y4832D01*
X3000Y4828D01*
X3003Y4827D01*
Y4841D01*
D02*
G37*
G36*
X2759Y4838D02*
X2741D01*
Y4820D01*
X2759D01*
Y4838D01*
D02*
G37*
G36*
X2452Y4971D02*
X2438D01*
Y4957D01*
X2441Y4958D01*
X2447Y4962D01*
X2452Y4969D01*
X2452Y4971D01*
D02*
G37*
G36*
X3133Y5101D02*
X3119D01*
X3119Y5099D01*
X3124Y5092D01*
X3130Y5088D01*
X3133Y5087D01*
Y5101D01*
D02*
G37*
G36*
X3043D02*
X3029D01*
Y5087D01*
X3031Y5088D01*
X3038Y5092D01*
X3042Y5099D01*
X3043Y5101D01*
D02*
G37*
G36*
X3019D02*
X3005D01*
X3005Y5099D01*
X3009Y5092D01*
X3016Y5088D01*
X3019Y5087D01*
Y5101D01*
D02*
G37*
G36*
X2712Y5109D02*
X2694D01*
Y5092D01*
X2712D01*
Y5109D01*
D02*
G37*
G36*
X2684D02*
X2666D01*
Y5092D01*
X2684D01*
Y5109D01*
D02*
G37*
G36*
X3157Y5101D02*
X3143D01*
Y5087D01*
X3145Y5088D01*
X3152Y5092D01*
X3156Y5099D01*
X3157Y5101D01*
D02*
G37*
G36*
X3318Y5086D02*
X3300D01*
Y5068D01*
X3318D01*
Y5086D01*
D02*
G37*
G36*
X3291Y5113D02*
X3245D01*
Y5110D01*
X3240Y5109D01*
X3234Y5105D01*
X3229Y5098D01*
X3228Y5091D01*
X3229Y5083D01*
X3234Y5076D01*
X3240Y5072D01*
X3245Y5071D01*
Y5068D01*
X3291D01*
Y5113D01*
D02*
G37*
G36*
X2712Y5082D02*
X2694D01*
Y5064D01*
X2712D01*
Y5082D01*
D02*
G37*
G36*
X2940Y5101D02*
X2926D01*
Y5087D01*
X2929Y5088D01*
X2935Y5092D01*
X2940Y5099D01*
X2940Y5101D01*
D02*
G37*
G36*
X2916D02*
X2902D01*
X2903Y5099D01*
X2907Y5092D01*
X2914Y5088D01*
X2916Y5087D01*
Y5101D01*
D02*
G37*
G36*
X3346Y5086D02*
X3328D01*
Y5068D01*
X3346D01*
Y5086D01*
D02*
G37*
G36*
X3318Y5113D02*
X3300D01*
Y5096D01*
X3318D01*
Y5113D01*
D02*
G37*
G36*
X3143Y5125D02*
Y5111D01*
X3157D01*
X3156Y5114D01*
X3152Y5120D01*
X3145Y5125D01*
X3143Y5125D01*
D02*
G37*
G36*
X3133D02*
X3130Y5125D01*
X3124Y5120D01*
X3119Y5114D01*
X3119Y5111D01*
X3133D01*
Y5125D01*
D02*
G37*
G36*
X3029D02*
Y5111D01*
X3043D01*
X3042Y5114D01*
X3038Y5120D01*
X3031Y5125D01*
X3029Y5125D01*
D02*
G37*
G36*
X2621Y5137D02*
X2618Y5137D01*
X2612Y5132D01*
X2607Y5126D01*
X2607Y5123D01*
X2621D01*
Y5137D01*
D02*
G37*
G36*
X2712Y5141D02*
X2694D01*
Y5123D01*
X2712D01*
Y5141D01*
D02*
G37*
G36*
X2684D02*
X2666D01*
Y5123D01*
X2684D01*
Y5141D01*
D02*
G37*
G36*
X2645Y5113D02*
X2631D01*
Y5099D01*
X2634Y5100D01*
X2640Y5104D01*
X2645Y5110D01*
X2645Y5113D01*
D02*
G37*
G36*
X2621D02*
X2607D01*
X2607Y5110D01*
X2612Y5104D01*
X2618Y5100D01*
X2621Y5099D01*
Y5113D01*
D02*
G37*
G36*
X3346Y5113D02*
X3328D01*
Y5096D01*
X3346D01*
Y5113D01*
D02*
G37*
G36*
X3019Y5125D02*
X3016Y5125D01*
X3009Y5120D01*
X3005Y5114D01*
X3005Y5111D01*
X3019D01*
Y5125D01*
D02*
G37*
G36*
X2926D02*
Y5111D01*
X2940D01*
X2940Y5114D01*
X2935Y5120D01*
X2929Y5125D01*
X2926Y5125D01*
D02*
G37*
G36*
X2916D02*
X2914Y5125D01*
X2907Y5120D01*
X2903Y5114D01*
X2902Y5111D01*
X2916D01*
Y5125D01*
D02*
G37*
G36*
X2684Y5082D02*
X2666D01*
Y5064D01*
X2684D01*
Y5082D01*
D02*
G37*
G36*
X2452Y4995D02*
X2414D01*
X2415Y4992D01*
X2417Y4988D01*
X2415Y4984D01*
X2414Y4981D01*
X2452D01*
X2452Y4984D01*
X2449Y4988D01*
X2452Y4992D01*
X2452Y4995D01*
D02*
G37*
G36*
X3537Y4995D02*
X3505D01*
Y4963D01*
X3510Y4964D01*
X3519Y4967D01*
X3527Y4973D01*
X3533Y4981D01*
X3536Y4990D01*
X3537Y4995D01*
D02*
G37*
G36*
X3495D02*
X3463D01*
X3464Y4990D01*
X3467Y4981D01*
X3473Y4973D01*
X3481Y4967D01*
X3490Y4964D01*
X3495Y4963D01*
Y4995D01*
D02*
G37*
G36*
X2507Y5003D02*
X2493D01*
X2493Y5000D01*
X2498Y4994D01*
X2504Y4989D01*
X2507Y4989D01*
Y5003D01*
D02*
G37*
G36*
X2712D02*
X2694D01*
Y4985D01*
X2712D01*
Y5003D01*
D02*
G37*
G36*
X2684D02*
X2666D01*
Y4985D01*
X2684D01*
Y5003D01*
D02*
G37*
G36*
X2100Y5038D02*
X2090Y5036D01*
X2081Y5033D01*
X2073Y5027D01*
X2067Y5019D01*
X2064Y5010D01*
X2062Y5000D01*
X2064Y4990D01*
X2067Y4981D01*
X2073Y4973D01*
X2081Y4967D01*
X2090Y4964D01*
X2100Y4962D01*
X2110Y4964D01*
X2119Y4967D01*
X2127Y4973D01*
X2133Y4981D01*
X2136Y4990D01*
X2138Y5000D01*
X2136Y5010D01*
X2133Y5019D01*
X2127Y5027D01*
X2119Y5033D01*
X2110Y5036D01*
X2100Y5038D01*
D02*
G37*
G36*
X2655Y4972D02*
Y4958D01*
X2669D01*
X2668Y4960D01*
X2664Y4967D01*
X2657Y4971D01*
X2655Y4972D01*
D02*
G37*
G36*
X2645D02*
X2642Y4971D01*
X2635Y4967D01*
X2631Y4960D01*
X2631Y4958D01*
X2645D01*
Y4972D01*
D02*
G37*
G36*
X3900Y5038D02*
X3890Y5036D01*
X3881Y5033D01*
X3873Y5027D01*
X3867Y5019D01*
X3864Y5010D01*
X3862Y5000D01*
X3864Y4990D01*
X3867Y4981D01*
X3873Y4973D01*
X3881Y4967D01*
X3890Y4964D01*
X3900Y4962D01*
X3910Y4964D01*
X3919Y4967D01*
X3927Y4973D01*
X3933Y4981D01*
X3936Y4990D01*
X3938Y5000D01*
X3936Y5010D01*
X3933Y5019D01*
X3927Y5027D01*
X3919Y5033D01*
X3910Y5036D01*
X3900Y5038D01*
D02*
G37*
G36*
X3600D02*
X3590Y5036D01*
X3581Y5033D01*
X3573Y5027D01*
X3567Y5019D01*
X3564Y5010D01*
X3562Y5000D01*
X3564Y4990D01*
X3567Y4981D01*
X3573Y4973D01*
X3581Y4967D01*
X3590Y4964D01*
X3600Y4962D01*
X3610Y4964D01*
X3619Y4967D01*
X3627Y4973D01*
X3633Y4981D01*
X3636Y4990D01*
X3638Y5000D01*
X3636Y5010D01*
X3633Y5019D01*
X3627Y5027D01*
X3619Y5033D01*
X3610Y5036D01*
X3600Y5038D01*
D02*
G37*
G36*
X2200D02*
X2190Y5036D01*
X2181Y5033D01*
X2173Y5027D01*
X2167Y5019D01*
X2164Y5010D01*
X2162Y5000D01*
X2164Y4990D01*
X2167Y4981D01*
X2173Y4973D01*
X2181Y4967D01*
X2190Y4964D01*
X2200Y4962D01*
X2210Y4964D01*
X2219Y4967D01*
X2227Y4973D01*
X2233Y4981D01*
X2236Y4990D01*
X2238Y5000D01*
X2236Y5010D01*
X2233Y5019D01*
X2227Y5027D01*
X2219Y5033D01*
X2210Y5036D01*
X2200Y5038D01*
D02*
G37*
G36*
X2531Y5003D02*
X2517D01*
Y4989D01*
X2519Y4989D01*
X2526Y4994D01*
X2530Y5000D01*
X2531Y5003D01*
D02*
G37*
G36*
X2712Y5031D02*
X2694D01*
Y5013D01*
X2712D01*
Y5031D01*
D02*
G37*
G36*
X2684D02*
X2666D01*
Y5013D01*
X2684D01*
Y5031D01*
D02*
G37*
G36*
X2517Y5027D02*
Y5013D01*
X2531D01*
X2530Y5016D01*
X2526Y5022D01*
X2519Y5026D01*
X2517Y5027D01*
D02*
G37*
G36*
X3900Y5138D02*
X3890Y5136D01*
X3881Y5133D01*
X3873Y5127D01*
X3867Y5119D01*
X3864Y5110D01*
X3862Y5100D01*
X3864Y5090D01*
X3867Y5081D01*
X3873Y5073D01*
X3881Y5067D01*
X3890Y5064D01*
X3900Y5062D01*
X3910Y5064D01*
X3919Y5067D01*
X3927Y5073D01*
X3933Y5081D01*
X3936Y5090D01*
X3938Y5100D01*
X3936Y5110D01*
X3933Y5119D01*
X3927Y5127D01*
X3919Y5133D01*
X3910Y5136D01*
X3900Y5138D01*
D02*
G37*
G36*
X2200D02*
X2190Y5136D01*
X2181Y5133D01*
X2173Y5127D01*
X2167Y5119D01*
X2164Y5110D01*
X2162Y5100D01*
X2164Y5090D01*
X2167Y5081D01*
X2173Y5073D01*
X2181Y5067D01*
X2190Y5064D01*
X2200Y5062D01*
X2210Y5064D01*
X2219Y5067D01*
X2227Y5073D01*
X2233Y5081D01*
X2236Y5090D01*
X2238Y5100D01*
X2236Y5110D01*
X2233Y5119D01*
X2227Y5127D01*
X2219Y5133D01*
X2210Y5136D01*
X2200Y5138D01*
D02*
G37*
G36*
X2100D02*
X2090Y5136D01*
X2081Y5133D01*
X2073Y5127D01*
X2067Y5119D01*
X2064Y5110D01*
X2062Y5100D01*
X2064Y5090D01*
X2067Y5081D01*
X2073Y5073D01*
X2081Y5067D01*
X2090Y5064D01*
X2100Y5062D01*
X2110Y5064D01*
X2119Y5067D01*
X2127Y5073D01*
X2133Y5081D01*
X2136Y5090D01*
X2138Y5100D01*
X2136Y5110D01*
X2133Y5119D01*
X2127Y5127D01*
X2119Y5133D01*
X2110Y5136D01*
X2100Y5138D01*
D02*
G37*
G36*
X2428Y5019D02*
X2425Y5019D01*
X2419Y5014D01*
X2415Y5008D01*
X2414Y5005D01*
X2428D01*
Y5019D01*
D02*
G37*
G36*
X3505Y5037D02*
Y5005D01*
X3537D01*
X3536Y5010D01*
X3533Y5019D01*
X3527Y5027D01*
X3519Y5033D01*
X3510Y5036D01*
X3505Y5037D01*
D02*
G37*
G36*
X3495D02*
X3490Y5036D01*
X3481Y5033D01*
X3473Y5027D01*
X3467Y5019D01*
X3464Y5010D01*
X3463Y5005D01*
X3495D01*
Y5037D01*
D02*
G37*
G36*
X2507Y5027D02*
X2504Y5026D01*
X2498Y5022D01*
X2493Y5016D01*
X2493Y5013D01*
X2507D01*
Y5027D01*
D02*
G37*
G36*
X2839Y5044D02*
X2835D01*
X2828Y5042D01*
X2827Y5042D01*
X2820Y5038D01*
X2789Y5007D01*
X2784Y5008D01*
X2782Y5016D01*
X2778Y5022D01*
X2771Y5026D01*
X2767Y5027D01*
Y5031D01*
X2721D01*
Y4985D01*
X2761D01*
X2763Y4980D01*
X2668Y4885D01*
X2663Y4879D01*
X2662Y4871D01*
Y4865D01*
X2658D01*
Y4820D01*
X2662D01*
Y4775D01*
X2631D01*
Y4735D01*
X2680D01*
X2682Y4735D01*
X2684Y4735D01*
X2733D01*
Y4775D01*
X2702D01*
Y4820D01*
X2704D01*
Y4865D01*
X2844Y5005D01*
X2846Y5005D01*
X2853Y5009D01*
X2857Y5016D01*
X2859Y5024D01*
X2857Y5031D01*
X2853Y5038D01*
X2846Y5042D01*
X2839Y5044D01*
D02*
G37*
G36*
X2438Y5019D02*
Y5005D01*
X2452D01*
X2452Y5008D01*
X2447Y5014D01*
X2441Y5019D01*
X2438Y5019D01*
D02*
G37*
G36*
X2800Y4438D02*
X2790Y4436D01*
X2781Y4433D01*
X2773Y4427D01*
X2767Y4419D01*
X2764Y4410D01*
X2762Y4400D01*
X2764Y4390D01*
X2767Y4381D01*
X2773Y4373D01*
X2781Y4367D01*
X2790Y4364D01*
X2800Y4362D01*
X2810Y4364D01*
X2819Y4367D01*
X2827Y4373D01*
X2833Y4381D01*
X2836Y4390D01*
X2838Y4400D01*
X2836Y4410D01*
X2833Y4419D01*
X2827Y4427D01*
X2819Y4433D01*
X2810Y4436D01*
X2800Y4438D01*
D02*
G37*
G36*
X2700D02*
X2690Y4436D01*
X2681Y4433D01*
X2673Y4427D01*
X2667Y4419D01*
X2664Y4410D01*
X2662Y4400D01*
X2664Y4390D01*
X2667Y4381D01*
X2673Y4373D01*
X2681Y4367D01*
X2690Y4364D01*
X2700Y4362D01*
X2710Y4364D01*
X2719Y4367D01*
X2727Y4373D01*
X2733Y4381D01*
X2736Y4390D01*
X2738Y4400D01*
X2736Y4410D01*
X2733Y4419D01*
X2727Y4427D01*
X2719Y4433D01*
X2710Y4436D01*
X2700Y4438D01*
D02*
G37*
G36*
X2600D02*
X2590Y4436D01*
X2581Y4433D01*
X2573Y4427D01*
X2567Y4419D01*
X2564Y4410D01*
X2562Y4400D01*
X2564Y4390D01*
X2567Y4381D01*
X2573Y4373D01*
X2581Y4367D01*
X2590Y4364D01*
X2600Y4362D01*
X2610Y4364D01*
X2619Y4367D01*
X2627Y4373D01*
X2633Y4381D01*
X2636Y4390D01*
X2638Y4400D01*
X2636Y4410D01*
X2633Y4419D01*
X2627Y4427D01*
X2619Y4433D01*
X2610Y4436D01*
X2600Y4438D01*
D02*
G37*
G36*
X3100D02*
X3090Y4436D01*
X3081Y4433D01*
X3073Y4427D01*
X3067Y4419D01*
X3064Y4410D01*
X3062Y4400D01*
X3064Y4390D01*
X3067Y4381D01*
X3073Y4373D01*
X3081Y4367D01*
X3090Y4364D01*
X3100Y4362D01*
X3110Y4364D01*
X3119Y4367D01*
X3127Y4373D01*
X3133Y4381D01*
X3136Y4390D01*
X3138Y4400D01*
X3136Y4410D01*
X3133Y4419D01*
X3127Y4427D01*
X3119Y4433D01*
X3110Y4436D01*
X3100Y4438D01*
D02*
G37*
G36*
X3000D02*
X2990Y4436D01*
X2981Y4433D01*
X2973Y4427D01*
X2967Y4419D01*
X2964Y4410D01*
X2962Y4400D01*
X2964Y4390D01*
X2967Y4381D01*
X2973Y4373D01*
X2981Y4367D01*
X2990Y4364D01*
X3000Y4362D01*
X3010Y4364D01*
X3019Y4367D01*
X3027Y4373D01*
X3033Y4381D01*
X3036Y4390D01*
X3038Y4400D01*
X3036Y4410D01*
X3033Y4419D01*
X3027Y4427D01*
X3019Y4433D01*
X3010Y4436D01*
X3000Y4438D01*
D02*
G37*
G36*
X2900D02*
X2890Y4436D01*
X2881Y4433D01*
X2873Y4427D01*
X2867Y4419D01*
X2864Y4410D01*
X2862Y4400D01*
X2864Y4390D01*
X2867Y4381D01*
X2873Y4373D01*
X2881Y4367D01*
X2890Y4364D01*
X2900Y4362D01*
X2910Y4364D01*
X2919Y4367D01*
X2927Y4373D01*
X2933Y4381D01*
X2936Y4390D01*
X2938Y4400D01*
X2936Y4410D01*
X2933Y4419D01*
X2927Y4427D01*
X2919Y4433D01*
X2910Y4436D01*
X2900Y4438D01*
D02*
G37*
G36*
X2995Y4337D02*
X2990Y4336D01*
X2981Y4333D01*
X2973Y4327D01*
X2967Y4319D01*
X2964Y4310D01*
X2963Y4305D01*
X2995D01*
Y4337D01*
D02*
G37*
G36*
X3037Y4295D02*
X3005D01*
Y4263D01*
X3010Y4264D01*
X3019Y4267D01*
X3027Y4273D01*
X3033Y4281D01*
X3036Y4290D01*
X3037Y4295D01*
D02*
G37*
G36*
X2995D02*
X2963D01*
X2964Y4290D01*
X2967Y4281D01*
X2973Y4273D01*
X2981Y4267D01*
X2990Y4264D01*
X2995Y4263D01*
Y4295D01*
D02*
G37*
G36*
X2500Y4438D02*
X2490Y4436D01*
X2481Y4433D01*
X2473Y4427D01*
X2467Y4419D01*
X2464Y4410D01*
X2462Y4400D01*
X2464Y4390D01*
X2467Y4381D01*
X2473Y4373D01*
X2481Y4367D01*
X2490Y4364D01*
X2500Y4362D01*
X2510Y4364D01*
X2519Y4367D01*
X2527Y4373D01*
X2533Y4381D01*
X2536Y4390D01*
X2538Y4400D01*
X2536Y4410D01*
X2533Y4419D01*
X2527Y4427D01*
X2519Y4433D01*
X2510Y4436D01*
X2500Y4438D01*
D02*
G37*
G36*
X2400D02*
X2390Y4436D01*
X2381Y4433D01*
X2373Y4427D01*
X2367Y4419D01*
X2364Y4410D01*
X2362Y4400D01*
X2364Y4390D01*
X2367Y4381D01*
X2373Y4373D01*
X2381Y4367D01*
X2390Y4364D01*
X2400Y4362D01*
X2410Y4364D01*
X2419Y4367D01*
X2427Y4373D01*
X2433Y4381D01*
X2436Y4390D01*
X2438Y4400D01*
X2436Y4410D01*
X2433Y4419D01*
X2427Y4427D01*
X2419Y4433D01*
X2410Y4436D01*
X2400Y4438D01*
D02*
G37*
G36*
X3005Y4337D02*
Y4305D01*
X3037D01*
X3036Y4310D01*
X3033Y4319D01*
X3027Y4327D01*
X3019Y4333D01*
X3010Y4336D01*
X3005Y4337D01*
D02*
G37*
G36*
X3200Y4438D02*
X3190Y4436D01*
X3181Y4433D01*
X3173Y4427D01*
X3167Y4419D01*
X3164Y4410D01*
X3162Y4400D01*
X3164Y4390D01*
X3167Y4381D01*
X3173Y4373D01*
X3181Y4367D01*
X3190Y4364D01*
X3200Y4362D01*
X3210Y4364D01*
X3219Y4367D01*
X3227Y4373D01*
X3233Y4381D01*
X3236Y4390D01*
X3238Y4400D01*
X3236Y4410D01*
X3233Y4419D01*
X3227Y4427D01*
X3219Y4433D01*
X3210Y4436D01*
X3200Y4438D01*
D02*
G37*
G36*
X3605Y4437D02*
Y4405D01*
X3637D01*
X3636Y4410D01*
X3633Y4419D01*
X3627Y4427D01*
X3619Y4433D01*
X3610Y4436D01*
X3605Y4437D01*
D02*
G37*
G36*
X3595D02*
X3590Y4436D01*
X3581Y4433D01*
X3573Y4427D01*
X3567Y4419D01*
X3564Y4410D01*
X3563Y4405D01*
X3595D01*
Y4437D01*
D02*
G37*
G36*
X3688Y4408D02*
X3674D01*
Y4394D01*
X3677Y4395D01*
X3683Y4399D01*
X3688Y4406D01*
X3688Y4408D01*
D02*
G37*
G36*
X3952Y4432D02*
X3938D01*
X3938Y4429D01*
X3943Y4423D01*
X3949Y4418D01*
X3952Y4418D01*
Y4432D01*
D02*
G37*
G36*
X3838Y4424D02*
X3824D01*
Y4410D01*
X3827Y4411D01*
X3833Y4415D01*
X3837Y4421D01*
X3838Y4424D01*
D02*
G37*
G36*
X3814D02*
X3800D01*
X3800Y4421D01*
X3805Y4415D01*
X3811Y4411D01*
X3814Y4410D01*
Y4424D01*
D02*
G37*
G36*
X3500Y4438D02*
X3490Y4436D01*
X3481Y4433D01*
X3473Y4427D01*
X3467Y4419D01*
X3464Y4410D01*
X3462Y4400D01*
X3464Y4390D01*
X3467Y4381D01*
X3473Y4373D01*
X3481Y4367D01*
X3490Y4364D01*
X3500Y4362D01*
X3510Y4364D01*
X3519Y4367D01*
X3527Y4373D01*
X3533Y4381D01*
X3536Y4390D01*
X3538Y4400D01*
X3536Y4410D01*
X3533Y4419D01*
X3527Y4427D01*
X3519Y4433D01*
X3510Y4436D01*
X3500Y4438D01*
D02*
G37*
G36*
X3400D02*
X3390Y4436D01*
X3381Y4433D01*
X3373Y4427D01*
X3367Y4419D01*
X3364Y4410D01*
X3362Y4400D01*
X3364Y4390D01*
X3367Y4381D01*
X3373Y4373D01*
X3381Y4367D01*
X3390Y4364D01*
X3400Y4362D01*
X3410Y4364D01*
X3419Y4367D01*
X3427Y4373D01*
X3433Y4381D01*
X3436Y4390D01*
X3438Y4400D01*
X3436Y4410D01*
X3433Y4419D01*
X3427Y4427D01*
X3419Y4433D01*
X3410Y4436D01*
X3400Y4438D01*
D02*
G37*
G36*
X3300D02*
X3290Y4436D01*
X3281Y4433D01*
X3273Y4427D01*
X3267Y4419D01*
X3264Y4410D01*
X3262Y4400D01*
X3264Y4390D01*
X3267Y4381D01*
X3273Y4373D01*
X3281Y4367D01*
X3290Y4364D01*
X3300Y4362D01*
X3310Y4364D01*
X3319Y4367D01*
X3327Y4373D01*
X3333Y4381D01*
X3336Y4390D01*
X3338Y4400D01*
X3336Y4410D01*
X3333Y4419D01*
X3327Y4427D01*
X3319Y4433D01*
X3310Y4436D01*
X3300Y4438D01*
D02*
G37*
G36*
X3664Y4408D02*
X3650D01*
X3651Y4406D01*
X3655Y4399D01*
X3662Y4395D01*
X3664Y4394D01*
Y4408D01*
D02*
G37*
G36*
X3637Y4395D02*
X3605D01*
Y4363D01*
X3610Y4364D01*
X3619Y4367D01*
X3627Y4373D01*
X3633Y4381D01*
X3636Y4390D01*
X3637Y4395D01*
D02*
G37*
G36*
X3595D02*
X3563D01*
X3564Y4390D01*
X3567Y4381D01*
X3573Y4373D01*
X3581Y4367D01*
X3590Y4364D01*
X3595Y4363D01*
Y4395D01*
D02*
G37*
G36*
X2437Y4337D02*
X2363D01*
Y4263D01*
X2437D01*
Y4337D01*
D02*
G37*
G36*
X3785Y4259D02*
Y4245D01*
X3799D01*
X3798Y4248D01*
X3794Y4254D01*
X3787Y4259D01*
X3785Y4259D01*
D02*
G37*
G36*
X3775D02*
X3772Y4259D01*
X3765Y4254D01*
X3761Y4248D01*
X3760Y4245D01*
X3775D01*
Y4259D01*
D02*
G37*
G36*
X3968Y4243D02*
X3954D01*
Y4229D01*
X3957Y4229D01*
X3963Y4234D01*
X3967Y4240D01*
X3968Y4243D01*
D02*
G37*
G36*
X2296Y4267D02*
Y4253D01*
X2310D01*
X2310Y4256D01*
X2306Y4262D01*
X2299Y4267D01*
X2296Y4267D01*
D02*
G37*
G36*
X2286D02*
X2284Y4267D01*
X2277Y4262D01*
X2273Y4256D01*
X2272Y4253D01*
X2286D01*
Y4267D01*
D02*
G37*
G36*
X2036Y4263D02*
Y4249D01*
X2051D01*
X2050Y4252D01*
X2046Y4258D01*
X2039Y4263D01*
X2036Y4263D01*
D02*
G37*
G36*
X2051Y4239D02*
X2036D01*
Y4225D01*
X2039Y4226D01*
X2046Y4230D01*
X2050Y4236D01*
X2051Y4239D01*
D02*
G37*
G36*
X3799Y4235D02*
X3785D01*
Y4221D01*
X3787Y4222D01*
X3794Y4226D01*
X3798Y4232D01*
X3799Y4235D01*
D02*
G37*
G36*
X3775D02*
X3760D01*
X3761Y4232D01*
X3765Y4226D01*
X3772Y4222D01*
X3775Y4221D01*
Y4235D01*
D02*
G37*
G36*
X3944Y4243D02*
X3930D01*
X3930Y4240D01*
X3935Y4234D01*
X3941Y4229D01*
X3944Y4229D01*
Y4243D01*
D02*
G37*
G36*
X2310D02*
X2296D01*
Y4229D01*
X2299Y4229D01*
X2306Y4234D01*
X2310Y4240D01*
X2310Y4243D01*
D02*
G37*
G36*
X2286D02*
X2272D01*
X2273Y4240D01*
X2277Y4234D01*
X2284Y4229D01*
X2286Y4229D01*
Y4243D01*
D02*
G37*
G36*
X3944Y4267D02*
X3941Y4267D01*
X3935Y4262D01*
X3930Y4256D01*
X3930Y4253D01*
X3944D01*
Y4267D01*
D02*
G37*
G36*
X3300Y4338D02*
X3290Y4336D01*
X3281Y4333D01*
X3273Y4327D01*
X3267Y4319D01*
X3264Y4310D01*
X3262Y4300D01*
X3264Y4290D01*
X3267Y4281D01*
X3273Y4273D01*
X3281Y4267D01*
X3290Y4264D01*
X3300Y4262D01*
X3310Y4264D01*
X3319Y4267D01*
X3327Y4273D01*
X3333Y4281D01*
X3336Y4290D01*
X3338Y4300D01*
X3336Y4310D01*
X3333Y4319D01*
X3327Y4327D01*
X3319Y4333D01*
X3310Y4336D01*
X3300Y4338D01*
D02*
G37*
G36*
X3200D02*
X3190Y4336D01*
X3181Y4333D01*
X3173Y4327D01*
X3167Y4319D01*
X3164Y4310D01*
X3162Y4300D01*
X3164Y4290D01*
X3167Y4281D01*
X3173Y4273D01*
X3181Y4267D01*
X3190Y4264D01*
X3200Y4262D01*
X3210Y4264D01*
X3219Y4267D01*
X3227Y4273D01*
X3233Y4281D01*
X3236Y4290D01*
X3238Y4300D01*
X3236Y4310D01*
X3233Y4319D01*
X3227Y4327D01*
X3219Y4333D01*
X3210Y4336D01*
X3200Y4338D01*
D02*
G37*
G36*
X3100D02*
X3090Y4336D01*
X3081Y4333D01*
X3073Y4327D01*
X3067Y4319D01*
X3064Y4310D01*
X3062Y4300D01*
X3064Y4290D01*
X3067Y4281D01*
X3073Y4273D01*
X3081Y4267D01*
X3090Y4264D01*
X3100Y4262D01*
X3110Y4264D01*
X3119Y4267D01*
X3127Y4273D01*
X3133Y4281D01*
X3136Y4290D01*
X3138Y4300D01*
X3136Y4310D01*
X3133Y4319D01*
X3127Y4327D01*
X3119Y4333D01*
X3110Y4336D01*
X3100Y4338D01*
D02*
G37*
G36*
X3600D02*
X3590Y4336D01*
X3581Y4333D01*
X3573Y4327D01*
X3567Y4319D01*
X3564Y4310D01*
X3562Y4300D01*
X3564Y4290D01*
X3567Y4281D01*
X3573Y4273D01*
X3581Y4267D01*
X3590Y4264D01*
X3600Y4262D01*
X3610Y4264D01*
X3619Y4267D01*
X3627Y4273D01*
X3633Y4281D01*
X3636Y4290D01*
X3638Y4300D01*
X3636Y4310D01*
X3633Y4319D01*
X3627Y4327D01*
X3619Y4333D01*
X3610Y4336D01*
X3600Y4338D01*
D02*
G37*
G36*
X3500D02*
X3490Y4336D01*
X3481Y4333D01*
X3473Y4327D01*
X3467Y4319D01*
X3464Y4310D01*
X3462Y4300D01*
X3464Y4290D01*
X3467Y4281D01*
X3473Y4273D01*
X3481Y4267D01*
X3490Y4264D01*
X3500Y4262D01*
X3510Y4264D01*
X3519Y4267D01*
X3527Y4273D01*
X3533Y4281D01*
X3536Y4290D01*
X3538Y4300D01*
X3536Y4310D01*
X3533Y4319D01*
X3527Y4327D01*
X3519Y4333D01*
X3510Y4336D01*
X3500Y4338D01*
D02*
G37*
G36*
X3400D02*
X3390Y4336D01*
X3381Y4333D01*
X3373Y4327D01*
X3367Y4319D01*
X3364Y4310D01*
X3362Y4300D01*
X3364Y4290D01*
X3367Y4281D01*
X3373Y4273D01*
X3381Y4267D01*
X3390Y4264D01*
X3400Y4262D01*
X3410Y4264D01*
X3419Y4267D01*
X3427Y4273D01*
X3433Y4281D01*
X3436Y4290D01*
X3438Y4300D01*
X3436Y4310D01*
X3433Y4319D01*
X3427Y4327D01*
X3419Y4333D01*
X3410Y4336D01*
X3400Y4338D01*
D02*
G37*
G36*
X2600D02*
X2590Y4336D01*
X2581Y4333D01*
X2573Y4327D01*
X2567Y4319D01*
X2564Y4310D01*
X2562Y4300D01*
X2564Y4290D01*
X2567Y4281D01*
X2573Y4273D01*
X2581Y4267D01*
X2590Y4264D01*
X2600Y4262D01*
X2610Y4264D01*
X2619Y4267D01*
X2627Y4273D01*
X2633Y4281D01*
X2636Y4290D01*
X2638Y4300D01*
X2636Y4310D01*
X2633Y4319D01*
X2627Y4327D01*
X2619Y4333D01*
X2610Y4336D01*
X2600Y4338D01*
D02*
G37*
G36*
X2500D02*
X2490Y4336D01*
X2481Y4333D01*
X2473Y4327D01*
X2467Y4319D01*
X2464Y4310D01*
X2462Y4300D01*
X2464Y4290D01*
X2467Y4281D01*
X2473Y4273D01*
X2481Y4267D01*
X2490Y4264D01*
X2500Y4262D01*
X2510Y4264D01*
X2519Y4267D01*
X2527Y4273D01*
X2533Y4281D01*
X2536Y4290D01*
X2538Y4300D01*
X2536Y4310D01*
X2533Y4319D01*
X2527Y4327D01*
X2519Y4333D01*
X2510Y4336D01*
X2500Y4338D01*
D02*
G37*
G36*
X3954Y4267D02*
Y4253D01*
X3968D01*
X3967Y4256D01*
X3963Y4262D01*
X3957Y4267D01*
X3954Y4267D01*
D02*
G37*
G36*
X2900Y4338D02*
X2890Y4336D01*
X2881Y4333D01*
X2873Y4327D01*
X2867Y4319D01*
X2864Y4310D01*
X2862Y4300D01*
X2864Y4290D01*
X2867Y4281D01*
X2873Y4273D01*
X2881Y4267D01*
X2890Y4264D01*
X2900Y4262D01*
X2910Y4264D01*
X2919Y4267D01*
X2927Y4273D01*
X2933Y4281D01*
X2936Y4290D01*
X2938Y4300D01*
X2936Y4310D01*
X2933Y4319D01*
X2927Y4327D01*
X2919Y4333D01*
X2910Y4336D01*
X2900Y4338D01*
D02*
G37*
G36*
X2800D02*
X2790Y4336D01*
X2781Y4333D01*
X2773Y4327D01*
X2767Y4319D01*
X2764Y4310D01*
X2762Y4300D01*
X2764Y4290D01*
X2767Y4281D01*
X2773Y4273D01*
X2781Y4267D01*
X2790Y4264D01*
X2800Y4262D01*
X2810Y4264D01*
X2819Y4267D01*
X2827Y4273D01*
X2833Y4281D01*
X2836Y4290D01*
X2838Y4300D01*
X2836Y4310D01*
X2833Y4319D01*
X2827Y4327D01*
X2819Y4333D01*
X2810Y4336D01*
X2800Y4338D01*
D02*
G37*
G36*
X2700D02*
X2690Y4336D01*
X2681Y4333D01*
X2673Y4327D01*
X2667Y4319D01*
X2664Y4310D01*
X2662Y4300D01*
X2664Y4290D01*
X2667Y4281D01*
X2673Y4273D01*
X2681Y4267D01*
X2690Y4264D01*
X2700Y4262D01*
X2710Y4264D01*
X2719Y4267D01*
X2727Y4273D01*
X2733Y4281D01*
X2736Y4290D01*
X2738Y4300D01*
X2736Y4310D01*
X2733Y4319D01*
X2727Y4327D01*
X2719Y4333D01*
X2710Y4336D01*
X2700Y4338D01*
D02*
G37*
G36*
X3895Y4637D02*
X3863D01*
Y4605D01*
X3895D01*
Y4637D01*
D02*
G37*
G36*
X3505Y4637D02*
Y4605D01*
X3537D01*
X3536Y4610D01*
X3533Y4619D01*
X3527Y4627D01*
X3519Y4633D01*
X3510Y4636D01*
X3505Y4637D01*
D02*
G37*
G36*
X3495D02*
X3490Y4636D01*
X3481Y4633D01*
X3473Y4627D01*
X3467Y4619D01*
X3464Y4610D01*
X3463Y4605D01*
X3495D01*
Y4637D01*
D02*
G37*
G36*
X2882Y4625D02*
X2835D01*
Y4610D01*
X2882D01*
Y4625D01*
D02*
G37*
G36*
X2733D02*
X2631D01*
Y4617D01*
X2628Y4616D01*
X2626Y4615D01*
X2624Y4614D01*
X2624Y4614D01*
X2616Y4606D01*
X2610Y4607D01*
X2603Y4605D01*
X2596Y4601D01*
X2592Y4594D01*
X2590Y4587D01*
X2592Y4579D01*
X2596Y4572D01*
X2603Y4568D01*
X2610Y4567D01*
X2618Y4568D01*
X2624Y4572D01*
X2629Y4579D01*
X2630Y4585D01*
X2631D01*
X2631Y4585D01*
X2631Y4585D01*
X2631D01*
D01*
X2733D01*
Y4625D01*
D02*
G37*
G36*
X3937Y4637D02*
X3905D01*
Y4605D01*
X3937D01*
Y4637D01*
D02*
G37*
G36*
X2095Y4637D02*
X2090Y4636D01*
X2081Y4633D01*
X2073Y4627D01*
X2067Y4619D01*
X2064Y4610D01*
X2063Y4605D01*
X2095D01*
Y4637D01*
D02*
G37*
G36*
X3371Y4606D02*
Y4592D01*
X3385D01*
X3385Y4594D01*
X3380Y4601D01*
X3374Y4605D01*
X3371Y4606D01*
D02*
G37*
G36*
X3361D02*
X3358Y4605D01*
X3352Y4601D01*
X3348Y4594D01*
X3347Y4592D01*
X3361D01*
Y4606D01*
D02*
G37*
G36*
X2205Y4637D02*
Y4605D01*
X2237D01*
X2236Y4610D01*
X2233Y4619D01*
X2227Y4627D01*
X2219Y4633D01*
X2210Y4636D01*
X2205Y4637D01*
D02*
G37*
G36*
X2195D02*
X2190Y4636D01*
X2181Y4633D01*
X2173Y4627D01*
X2167Y4619D01*
X2164Y4610D01*
X2163Y4605D01*
X2195D01*
Y4637D01*
D02*
G37*
G36*
X2105D02*
Y4605D01*
X2137D01*
X2136Y4610D01*
X2133Y4619D01*
X2127Y4627D01*
X2119Y4633D01*
X2110Y4636D01*
X2105Y4637D01*
D02*
G37*
G36*
X3361Y4629D02*
X3347D01*
X3348Y4626D01*
X3352Y4620D01*
X3358Y4615D01*
X3361Y4615D01*
Y4629D01*
D02*
G37*
G36*
Y4680D02*
X3347D01*
X3348Y4677D01*
X3352Y4671D01*
X3358Y4666D01*
X3361Y4666D01*
Y4680D01*
D02*
G37*
G36*
X3900Y4738D02*
X3890Y4736D01*
X3881Y4733D01*
X3873Y4727D01*
X3867Y4719D01*
X3864Y4710D01*
X3862Y4700D01*
X3864Y4690D01*
X3867Y4681D01*
X3873Y4673D01*
X3881Y4667D01*
X3890Y4664D01*
X3900Y4662D01*
X3910Y4664D01*
X3919Y4667D01*
X3927Y4673D01*
X3933Y4681D01*
X3936Y4690D01*
X3938Y4700D01*
X3936Y4710D01*
X3933Y4719D01*
X3927Y4727D01*
X3919Y4733D01*
X3910Y4736D01*
X3900Y4738D01*
D02*
G37*
G36*
X3800D02*
X3790Y4736D01*
X3781Y4733D01*
X3773Y4727D01*
X3767Y4719D01*
X3764Y4710D01*
X3762Y4700D01*
X3764Y4690D01*
X3767Y4681D01*
X3773Y4673D01*
X3781Y4667D01*
X3790Y4664D01*
X3800Y4662D01*
X3810Y4664D01*
X3819Y4667D01*
X3827Y4673D01*
X3833Y4681D01*
X3836Y4690D01*
X3838Y4700D01*
X3836Y4710D01*
X3833Y4719D01*
X3827Y4727D01*
X3819Y4733D01*
X3810Y4736D01*
X3800Y4738D01*
D02*
G37*
G36*
X3371Y4704D02*
Y4690D01*
X3385D01*
X3385Y4693D01*
X3380Y4699D01*
X3374Y4704D01*
X3371Y4704D01*
D02*
G37*
G36*
X3361D02*
X3358Y4704D01*
X3352Y4699D01*
X3348Y4693D01*
X3347Y4690D01*
X3361D01*
Y4704D01*
D02*
G37*
G36*
X3385Y4680D02*
X3371D01*
Y4666D01*
X3374Y4666D01*
X3380Y4671D01*
X3385Y4677D01*
X3385Y4680D01*
D02*
G37*
G36*
X3371Y4653D02*
Y4639D01*
X3385D01*
X3385Y4642D01*
X3380Y4648D01*
X3374Y4652D01*
X3371Y4653D01*
D02*
G37*
G36*
X3361D02*
X3358Y4652D01*
X3352Y4648D01*
X3348Y4642D01*
X3347Y4639D01*
X3361D01*
Y4653D01*
D02*
G37*
G36*
X3385Y4629D02*
X3371D01*
Y4615D01*
X3374Y4615D01*
X3380Y4620D01*
X3385Y4626D01*
X3385Y4629D01*
D02*
G37*
G36*
X3500Y4738D02*
X3490Y4736D01*
X3481Y4733D01*
X3473Y4727D01*
X3467Y4719D01*
X3464Y4710D01*
X3462Y4700D01*
X3464Y4690D01*
X3467Y4681D01*
X3473Y4673D01*
X3481Y4667D01*
X3490Y4664D01*
X3500Y4662D01*
X3510Y4664D01*
X3519Y4667D01*
X3527Y4673D01*
X3533Y4681D01*
X3536Y4690D01*
X3538Y4700D01*
X3536Y4710D01*
X3533Y4719D01*
X3527Y4727D01*
X3519Y4733D01*
X3510Y4736D01*
X3500Y4738D01*
D02*
G37*
G36*
X2200D02*
X2190Y4736D01*
X2181Y4733D01*
X2173Y4727D01*
X2167Y4719D01*
X2164Y4710D01*
X2162Y4700D01*
X2164Y4690D01*
X2167Y4681D01*
X2173Y4673D01*
X2181Y4667D01*
X2190Y4664D01*
X2200Y4662D01*
X2210Y4664D01*
X2219Y4667D01*
X2227Y4673D01*
X2233Y4681D01*
X2236Y4690D01*
X2238Y4700D01*
X2236Y4710D01*
X2233Y4719D01*
X2227Y4727D01*
X2219Y4733D01*
X2210Y4736D01*
X2200Y4738D01*
D02*
G37*
G36*
X2100D02*
X2090Y4736D01*
X2081Y4733D01*
X2073Y4727D01*
X2067Y4719D01*
X2064Y4710D01*
X2062Y4700D01*
X2064Y4690D01*
X2067Y4681D01*
X2073Y4673D01*
X2081Y4667D01*
X2090Y4664D01*
X2100Y4662D01*
X2110Y4664D01*
X2119Y4667D01*
X2127Y4673D01*
X2133Y4681D01*
X2136Y4690D01*
X2138Y4700D01*
X2136Y4710D01*
X2133Y4719D01*
X2127Y4727D01*
X2119Y4733D01*
X2110Y4736D01*
X2100Y4738D01*
D02*
G37*
G36*
X2882Y4600D02*
X2835D01*
Y4585D01*
X2882D01*
Y4600D01*
D02*
G37*
G36*
X3558Y4523D02*
X3544D01*
Y4508D01*
X3547Y4509D01*
X3554Y4513D01*
X3558Y4520D01*
X3558Y4523D01*
D02*
G37*
G36*
X3534D02*
X3520D01*
X3521Y4520D01*
X3525Y4513D01*
X3532Y4509D01*
X3534Y4508D01*
Y4523D01*
D02*
G37*
G36*
X2040Y4480D02*
Y4466D01*
X2055D01*
X2054Y4468D01*
X2050Y4475D01*
X2043Y4479D01*
X2040Y4480D01*
D02*
G37*
G36*
X3800Y4638D02*
X3790Y4636D01*
X3781Y4633D01*
X3773Y4627D01*
X3767Y4619D01*
X3764Y4610D01*
X3762Y4600D01*
X3764Y4590D01*
X3767Y4581D01*
X3773Y4573D01*
X3781Y4567D01*
X3790Y4564D01*
X3800Y4562D01*
X3810Y4564D01*
X3819Y4567D01*
X3827Y4573D01*
X3833Y4581D01*
X3836Y4590D01*
X3838Y4600D01*
X3836Y4610D01*
X3833Y4619D01*
X3827Y4627D01*
X3819Y4633D01*
X3810Y4636D01*
X3800Y4638D01*
D02*
G37*
G36*
X3544Y4547D02*
Y4533D01*
X3558D01*
X3558Y4535D01*
X3554Y4542D01*
X3547Y4546D01*
X3544Y4547D01*
D02*
G37*
G36*
X3534D02*
X3532Y4546D01*
X3525Y4542D01*
X3521Y4535D01*
X3520Y4533D01*
X3534D01*
Y4547D01*
D02*
G37*
G36*
X3814Y4448D02*
X3811Y4448D01*
X3805Y4443D01*
X3800Y4437D01*
X3800Y4434D01*
X3814D01*
Y4448D01*
D02*
G37*
G36*
X3674Y4432D02*
Y4418D01*
X3688D01*
X3688Y4421D01*
X3683Y4428D01*
X3677Y4432D01*
X3674Y4432D01*
D02*
G37*
G36*
X3664D02*
X3662Y4432D01*
X3655Y4428D01*
X3651Y4421D01*
X3650Y4418D01*
X3664D01*
Y4432D01*
D02*
G37*
G36*
X3952Y4456D02*
X3949Y4456D01*
X3943Y4451D01*
X3938Y4445D01*
X3938Y4442D01*
X3952D01*
Y4456D01*
D02*
G37*
G36*
X2055Y4456D02*
X2040D01*
Y4442D01*
X2043Y4442D01*
X2050Y4446D01*
X2054Y4453D01*
X2055Y4456D01*
D02*
G37*
G36*
X3824Y4448D02*
Y4434D01*
X3838D01*
X3837Y4437D01*
X3833Y4443D01*
X3827Y4448D01*
X3824Y4448D01*
D02*
G37*
G36*
X3637Y4637D02*
X3563D01*
Y4563D01*
X3637D01*
Y4637D01*
D02*
G37*
G36*
X3361Y4582D02*
X3347D01*
X3348Y4579D01*
X3352Y4572D01*
X3358Y4568D01*
X3361Y4568D01*
Y4582D01*
D02*
G37*
G36*
X3537Y4595D02*
X3505D01*
Y4563D01*
X3510Y4564D01*
X3519Y4567D01*
X3527Y4573D01*
X3533Y4581D01*
X3536Y4590D01*
X3537Y4595D01*
D02*
G37*
G36*
X3495D02*
X3463D01*
X3464Y4590D01*
X3467Y4581D01*
X3473Y4573D01*
X3481Y4567D01*
X3490Y4564D01*
X3495Y4563D01*
Y4595D01*
D02*
G37*
G36*
X2952Y4586D02*
X2938D01*
Y4571D01*
X2941Y4572D01*
X2947Y4576D01*
X2952Y4583D01*
X2952Y4586D01*
D02*
G37*
G36*
X2938Y4625D02*
X2892D01*
Y4605D01*
Y4585D01*
X2914D01*
X2915Y4583D01*
X2919Y4576D01*
X2925Y4572D01*
X2928Y4571D01*
Y4591D01*
X2933D01*
Y4596D01*
X2952D01*
X2952Y4598D01*
X2947Y4605D01*
X2941Y4609D01*
X2938Y4610D01*
Y4625D01*
D02*
G37*
G36*
X3385Y4582D02*
X3371D01*
Y4568D01*
X3374Y4568D01*
X3380Y4572D01*
X3385Y4579D01*
X3385Y4582D01*
D02*
G37*
G36*
X2095Y4595D02*
X2063D01*
X2064Y4590D01*
X2067Y4581D01*
X2073Y4573D01*
X2081Y4567D01*
X2090Y4564D01*
X2095Y4563D01*
Y4595D01*
D02*
G37*
G36*
X3937D02*
X3905D01*
Y4563D01*
X3937D01*
Y4595D01*
D02*
G37*
G36*
X3895D02*
X3863D01*
Y4563D01*
X3895D01*
Y4595D01*
D02*
G37*
G36*
X2237D02*
X2205D01*
Y4563D01*
X2210Y4564D01*
X2219Y4567D01*
X2227Y4573D01*
X2233Y4581D01*
X2236Y4590D01*
X2237Y4595D01*
D02*
G37*
G36*
X2195D02*
X2163D01*
X2164Y4590D01*
X2167Y4581D01*
X2173Y4573D01*
X2181Y4567D01*
X2190Y4564D01*
X2195Y4563D01*
Y4595D01*
D02*
G37*
G36*
X2137D02*
X2105D01*
Y4563D01*
X2110Y4564D01*
X2119Y4567D01*
X2127Y4573D01*
X2133Y4581D01*
X2136Y4590D01*
X2137Y4595D01*
D02*
G37*
G36*
X2523Y5755D02*
X2477D01*
Y5683D01*
X2523D01*
Y5755D01*
D02*
G37*
G36*
X3125Y5684D02*
X3111D01*
Y5670D01*
X3114Y5670D01*
X3120Y5675D01*
X3125Y5681D01*
X3125Y5684D01*
D02*
G37*
G36*
X3101D02*
X3087D01*
X3088Y5681D01*
X3092Y5675D01*
X3099Y5670D01*
X3101Y5670D01*
Y5684D01*
D02*
G37*
G36*
X3111Y5708D02*
Y5694D01*
X3125D01*
X3125Y5697D01*
X3120Y5703D01*
X3114Y5708D01*
X3111Y5708D01*
D02*
G37*
G36*
X3101D02*
X3099Y5708D01*
X3092Y5703D01*
X3088Y5697D01*
X3087Y5694D01*
X3101D01*
Y5708D01*
D02*
G37*
G36*
X2578Y5755D02*
X2533D01*
Y5683D01*
X2578D01*
Y5755D01*
D02*
G37*
G36*
X2100Y5738D02*
X2090Y5736D01*
X2081Y5733D01*
X2073Y5727D01*
X2067Y5719D01*
X2064Y5710D01*
X2062Y5700D01*
X2064Y5690D01*
X2067Y5681D01*
X2073Y5673D01*
X2081Y5667D01*
X2090Y5664D01*
X2100Y5662D01*
X2110Y5664D01*
X2119Y5667D01*
X2127Y5673D01*
X2133Y5681D01*
X2136Y5690D01*
X2138Y5700D01*
X2136Y5710D01*
X2133Y5719D01*
X2127Y5727D01*
X2119Y5733D01*
X2110Y5736D01*
X2100Y5738D01*
D02*
G37*
G36*
X3513Y5661D02*
Y5647D01*
X3527D01*
X3526Y5649D01*
X3522Y5656D01*
X3516Y5660D01*
X3513Y5661D01*
D02*
G37*
G36*
X3503D02*
X3500Y5660D01*
X3494Y5656D01*
X3489Y5649D01*
X3489Y5647D01*
X3503D01*
Y5661D01*
D02*
G37*
G36*
X3900Y5738D02*
X3890Y5736D01*
X3881Y5733D01*
X3873Y5727D01*
X3867Y5719D01*
X3864Y5710D01*
X3862Y5700D01*
X3864Y5690D01*
X3867Y5681D01*
X3873Y5673D01*
X3881Y5667D01*
X3890Y5664D01*
X3900Y5662D01*
X3910Y5664D01*
X3919Y5667D01*
X3927Y5673D01*
X3933Y5681D01*
X3936Y5690D01*
X3938Y5700D01*
X3936Y5710D01*
X3933Y5719D01*
X3927Y5727D01*
X3919Y5733D01*
X3910Y5736D01*
X3900Y5738D01*
D02*
G37*
G36*
X3800D02*
X3790Y5736D01*
X3781Y5733D01*
X3773Y5727D01*
X3767Y5719D01*
X3764Y5710D01*
X3762Y5700D01*
X3764Y5690D01*
X3767Y5681D01*
X3773Y5673D01*
X3781Y5667D01*
X3790Y5664D01*
X3800Y5662D01*
X3810Y5664D01*
X3819Y5667D01*
X3827Y5673D01*
X3833Y5681D01*
X3836Y5690D01*
X3838Y5700D01*
X3836Y5710D01*
X3833Y5719D01*
X3827Y5727D01*
X3819Y5733D01*
X3810Y5736D01*
X3800Y5738D01*
D02*
G37*
G36*
X2200D02*
X2190Y5736D01*
X2181Y5733D01*
X2173Y5727D01*
X2167Y5719D01*
X2164Y5710D01*
X2162Y5700D01*
X2164Y5690D01*
X2167Y5681D01*
X2173Y5673D01*
X2181Y5667D01*
X2190Y5664D01*
X2200Y5662D01*
X2210Y5664D01*
X2219Y5667D01*
X2227Y5673D01*
X2233Y5681D01*
X2236Y5690D01*
X2238Y5700D01*
X2236Y5710D01*
X2233Y5719D01*
X2227Y5727D01*
X2219Y5733D01*
X2210Y5736D01*
X2200Y5738D01*
D02*
G37*
G36*
X3420Y5712D02*
X3406D01*
X3407Y5709D01*
X3411Y5702D01*
X3418Y5698D01*
X3420Y5697D01*
Y5712D01*
D02*
G37*
G36*
X3837Y5795D02*
X3805D01*
Y5763D01*
X3810Y5764D01*
X3819Y5767D01*
X3827Y5773D01*
X3833Y5781D01*
X3836Y5790D01*
X3837Y5795D01*
D02*
G37*
G36*
X3795D02*
X3763D01*
X3764Y5790D01*
X3767Y5781D01*
X3773Y5773D01*
X3781Y5767D01*
X3790Y5764D01*
X3795Y5763D01*
Y5795D01*
D02*
G37*
G36*
X2137D02*
X2105D01*
Y5763D01*
X2137D01*
Y5795D01*
D02*
G37*
G36*
X2767Y5789D02*
X2721D01*
Y5765D01*
X2767D01*
Y5789D01*
D02*
G37*
G36*
X3937Y5795D02*
X3905D01*
Y5763D01*
X3910Y5764D01*
X3919Y5767D01*
X3927Y5773D01*
X3933Y5781D01*
X3936Y5790D01*
X3937Y5795D01*
D02*
G37*
G36*
X3895D02*
X3863D01*
X3864Y5790D01*
X3867Y5781D01*
X3873Y5773D01*
X3881Y5767D01*
X3890Y5764D01*
X3895Y5763D01*
Y5795D01*
D02*
G37*
G36*
X3430Y5736D02*
Y5722D01*
X3444D01*
X3444Y5724D01*
X3439Y5731D01*
X3433Y5735D01*
X3430Y5736D01*
D02*
G37*
G36*
X3420D02*
X3418Y5735D01*
X3411Y5731D01*
X3407Y5724D01*
X3406Y5722D01*
X3420D01*
Y5736D01*
D02*
G37*
G36*
X3444Y5712D02*
X3430D01*
Y5697D01*
X3433Y5698D01*
X3439Y5702D01*
X3444Y5709D01*
X3444Y5712D01*
D02*
G37*
G36*
X2095Y5795D02*
X2063D01*
Y5763D01*
X2095D01*
Y5795D01*
D02*
G37*
G36*
X2822Y5755D02*
X2777D01*
Y5730D01*
X2822D01*
Y5755D01*
D02*
G37*
G36*
X2767D02*
X2721D01*
Y5730D01*
X2767D01*
Y5755D01*
D02*
G37*
G36*
X3678Y5657D02*
Y5643D01*
X3692D01*
X3692Y5645D01*
X3687Y5652D01*
X3681Y5656D01*
X3678Y5657D01*
D02*
G37*
G36*
X2200Y5638D02*
X2190Y5636D01*
X2181Y5633D01*
X2173Y5627D01*
X2167Y5619D01*
X2164Y5610D01*
X2162Y5600D01*
X2164Y5590D01*
X2167Y5581D01*
X2173Y5573D01*
X2181Y5567D01*
X2190Y5564D01*
X2200Y5562D01*
X2210Y5564D01*
X2219Y5567D01*
X2227Y5573D01*
X2233Y5581D01*
X2236Y5590D01*
X2238Y5600D01*
X2236Y5610D01*
X2233Y5619D01*
X2227Y5627D01*
X2219Y5633D01*
X2210Y5636D01*
X2200Y5638D01*
D02*
G37*
G36*
X2100D02*
X2090Y5636D01*
X2081Y5633D01*
X2073Y5627D01*
X2067Y5619D01*
X2064Y5610D01*
X2062Y5600D01*
X2064Y5590D01*
X2067Y5581D01*
X2073Y5573D01*
X2081Y5567D01*
X2090Y5564D01*
X2100Y5562D01*
X2110Y5564D01*
X2119Y5567D01*
X2127Y5573D01*
X2133Y5581D01*
X2136Y5590D01*
X2138Y5600D01*
X2136Y5610D01*
X2133Y5619D01*
X2127Y5627D01*
X2119Y5633D01*
X2110Y5636D01*
X2100Y5638D01*
D02*
G37*
G36*
X3306Y5574D02*
X3292D01*
Y5560D01*
X3295Y5560D01*
X3302Y5565D01*
X3306Y5571D01*
X3306Y5574D01*
D02*
G37*
G36*
X2739Y5578D02*
X2736Y5578D01*
X2730Y5573D01*
X2726Y5567D01*
X2725Y5564D01*
X2739D01*
Y5578D01*
D02*
G37*
G36*
X3900Y5638D02*
X3890Y5636D01*
X3881Y5633D01*
X3873Y5627D01*
X3867Y5619D01*
X3864Y5610D01*
X3862Y5600D01*
X3864Y5590D01*
X3867Y5581D01*
X3873Y5573D01*
X3881Y5567D01*
X3890Y5564D01*
X3900Y5562D01*
X3910Y5564D01*
X3919Y5567D01*
X3927Y5573D01*
X3933Y5581D01*
X3936Y5590D01*
X3938Y5600D01*
X3936Y5610D01*
X3933Y5619D01*
X3927Y5627D01*
X3919Y5633D01*
X3910Y5636D01*
X3900Y5638D01*
D02*
G37*
G36*
X3800D02*
X3790Y5636D01*
X3781Y5633D01*
X3773Y5627D01*
X3767Y5619D01*
X3764Y5610D01*
X3762Y5600D01*
X3764Y5590D01*
X3767Y5581D01*
X3773Y5573D01*
X3781Y5567D01*
X3790Y5564D01*
X3800Y5562D01*
X3810Y5564D01*
X3819Y5567D01*
X3827Y5573D01*
X3833Y5581D01*
X3836Y5590D01*
X3838Y5600D01*
X3836Y5610D01*
X3833Y5619D01*
X3827Y5627D01*
X3819Y5633D01*
X3810Y5636D01*
X3800Y5638D01*
D02*
G37*
G36*
X2763Y5554D02*
X2749D01*
Y5540D01*
X2752Y5541D01*
X2758Y5545D01*
X2763Y5551D01*
X2763Y5554D01*
D02*
G37*
G36*
X2739D02*
X2725D01*
X2726Y5551D01*
X2730Y5545D01*
X2736Y5541D01*
X2739Y5540D01*
Y5554D01*
D02*
G37*
G36*
X3058Y5530D02*
X3040D01*
Y5512D01*
X3058D01*
Y5530D01*
D02*
G37*
G36*
X3282Y5574D02*
X3268D01*
X3269Y5571D01*
X3273Y5565D01*
X3280Y5560D01*
X3282Y5560D01*
Y5574D01*
D02*
G37*
G36*
X3058Y5558D02*
X3040D01*
Y5540D01*
X3058D01*
Y5558D01*
D02*
G37*
G36*
X3030D02*
X3013D01*
Y5540D01*
X3030D01*
Y5558D01*
D02*
G37*
G36*
X2749Y5578D02*
Y5564D01*
X2763D01*
X2763Y5567D01*
X2758Y5573D01*
X2752Y5578D01*
X2749Y5578D01*
D02*
G37*
G36*
X3692Y5633D02*
X3678D01*
Y5619D01*
X3681Y5619D01*
X3687Y5624D01*
X3692Y5630D01*
X3692Y5633D01*
D02*
G37*
G36*
X3668D02*
X3654D01*
X3655Y5630D01*
X3659Y5624D01*
X3666Y5619D01*
X3668Y5619D01*
Y5633D01*
D02*
G37*
G36*
X3021Y5629D02*
Y5615D01*
X3035D01*
X3034Y5618D01*
X3030Y5624D01*
X3023Y5629D01*
X3021Y5629D01*
D02*
G37*
G36*
X3668Y5657D02*
X3666Y5656D01*
X3659Y5652D01*
X3655Y5645D01*
X3654Y5643D01*
X3668D01*
Y5657D01*
D02*
G37*
G36*
X3527Y5637D02*
X3513D01*
Y5623D01*
X3516Y5623D01*
X3522Y5628D01*
X3526Y5634D01*
X3527Y5637D01*
D02*
G37*
G36*
X3503D02*
X3489D01*
X3489Y5634D01*
X3494Y5628D01*
X3500Y5623D01*
X3503Y5623D01*
Y5637D01*
D02*
G37*
G36*
X3292Y5598D02*
Y5584D01*
X3306D01*
X3306Y5586D01*
X3302Y5593D01*
X3295Y5597D01*
X3292Y5598D01*
D02*
G37*
G36*
X3282D02*
X3280Y5597D01*
X3273Y5593D01*
X3269Y5586D01*
X3268Y5584D01*
X3282D01*
Y5598D01*
D02*
G37*
G36*
X2512Y5626D02*
X2504Y5625D01*
X2498Y5620D01*
X2493Y5614D01*
X2492Y5606D01*
Y5591D01*
X2476Y5575D01*
X2465D01*
X2454Y5586D01*
X2448Y5590D01*
X2440Y5592D01*
X2377D01*
Y5610D01*
X2340D01*
Y5579D01*
X2338Y5572D01*
X2340Y5565D01*
Y5537D01*
X2340D01*
D01*
D01*
X2340D01*
Y5537D01*
D01*
X2336Y5537D01*
X2336Y5537D01*
Y5537D01*
X2302D01*
Y5461D01*
X2309D01*
Y5388D01*
X2309Y5388D01*
X2310Y5383D01*
X2312Y5379D01*
X2334Y5358D01*
X2334Y5358D01*
X2338Y5355D01*
X2338Y5355D01*
X2338Y5355D01*
D01*
X2338Y5355D01*
X2338Y5355D01*
X2343Y5354D01*
X2343Y5354D01*
X2347D01*
Y5347D01*
X2393D01*
Y5353D01*
X2442D01*
Y5327D01*
X2518D01*
Y5353D01*
X2558D01*
X2558Y5353D01*
X2563Y5354D01*
X2564Y5355D01*
X2603D01*
Y5400D01*
X2557D01*
X2557Y5400D01*
Y5400D01*
X2555Y5399D01*
X2509Y5446D01*
X2505Y5448D01*
X2500Y5449D01*
X2500Y5449D01*
X2500D01*
X2498Y5451D01*
X2492Y5456D01*
X2484Y5457D01*
X2477Y5456D01*
X2470Y5451D01*
X2466Y5445D01*
X2464Y5437D01*
X2466Y5429D01*
X2470Y5423D01*
X2477Y5418D01*
X2484Y5417D01*
X2492Y5418D01*
X2498Y5422D01*
X2512Y5407D01*
X2511Y5403D01*
X2442D01*
Y5377D01*
X2393D01*
Y5393D01*
X2347D01*
Y5385D01*
X2343Y5383D01*
X2333Y5393D01*
Y5461D01*
X2340D01*
Y5533D01*
X2340Y5533D01*
D01*
X2340D01*
D01*
D01*
Y5533D01*
D01*
X2343Y5533D01*
X2343Y5533D01*
Y5533D01*
X2373D01*
X2373Y5533D01*
Y5533D01*
X2377Y5533D01*
D01*
Y5533D01*
X2377Y5533D01*
X2377Y5533D01*
Y5504D01*
X2362Y5489D01*
X2359Y5485D01*
X2358Y5480D01*
X2358Y5480D01*
Y5448D01*
X2347D01*
Y5430D01*
X2393D01*
Y5448D01*
X2382D01*
Y5461D01*
X2391D01*
Y5499D01*
Y5537D01*
X2381D01*
X2381Y5537D01*
Y5537D01*
X2377Y5537D01*
D01*
D01*
Y5537D01*
D01*
D01*
X2377D01*
X2377Y5537D01*
Y5552D01*
X2432D01*
X2443Y5541D01*
X2443Y5541D01*
X2443Y5540D01*
X2442Y5538D01*
X2442D01*
X2442Y5538D01*
Y5462D01*
X2518D01*
Y5471D01*
X2522Y5473D01*
X2557Y5438D01*
Y5410D01*
X2603D01*
Y5455D01*
X2597D01*
X2538Y5514D01*
X2531Y5519D01*
X2524Y5520D01*
X2518D01*
Y5538D01*
X2502D01*
X2501Y5539D01*
Y5544D01*
X2526Y5568D01*
X2530Y5575D01*
X2532Y5583D01*
Y5606D01*
X2530Y5614D01*
X2526Y5620D01*
X2519Y5625D01*
X2512Y5626D01*
D02*
G37*
G36*
X3011Y5629D02*
X3008Y5629D01*
X3002Y5624D01*
X2997Y5618D01*
X2997Y5615D01*
X3011D01*
Y5629D01*
D02*
G37*
G36*
X3035Y5605D02*
X3021D01*
Y5591D01*
X3023Y5592D01*
X3030Y5596D01*
X3034Y5603D01*
X3035Y5605D01*
D02*
G37*
G36*
X3011D02*
X2997D01*
X2997Y5603D01*
X3002Y5596D01*
X3008Y5592D01*
X3011Y5591D01*
Y5605D01*
D02*
G37*
G36*
X2405Y6037D02*
Y6005D01*
X2437D01*
X2436Y6010D01*
X2433Y6019D01*
X2427Y6027D01*
X2419Y6033D01*
X2410Y6036D01*
X2405Y6037D01*
D02*
G37*
G36*
X2395D02*
X2390Y6036D01*
X2381Y6033D01*
X2373Y6027D01*
X2367Y6019D01*
X2364Y6010D01*
X2363Y6005D01*
X2395D01*
Y6037D01*
D02*
G37*
G36*
X2180Y5984D02*
X2162D01*
Y5966D01*
X2180D01*
Y5984D01*
D02*
G37*
G36*
X2600Y6138D02*
X2590Y6136D01*
X2581Y6133D01*
X2573Y6127D01*
X2567Y6119D01*
X2564Y6110D01*
X2562Y6100D01*
X2564Y6090D01*
X2567Y6081D01*
X2573Y6073D01*
X2581Y6067D01*
X2590Y6064D01*
X2600Y6062D01*
X2610Y6064D01*
X2619Y6067D01*
X2627Y6073D01*
X2633Y6081D01*
X2636Y6090D01*
X2638Y6100D01*
X2636Y6110D01*
X2633Y6119D01*
X2627Y6127D01*
X2619Y6133D01*
X2610Y6136D01*
X2600Y6138D01*
D02*
G37*
G36*
X2500D02*
X2490Y6136D01*
X2481Y6133D01*
X2473Y6127D01*
X2467Y6119D01*
X2464Y6110D01*
X2462Y6100D01*
X2464Y6090D01*
X2467Y6081D01*
X2473Y6073D01*
X2481Y6067D01*
X2490Y6064D01*
X2500Y6062D01*
X2510Y6064D01*
X2519Y6067D01*
X2527Y6073D01*
X2533Y6081D01*
X2536Y6090D01*
X2538Y6100D01*
X2536Y6110D01*
X2533Y6119D01*
X2527Y6127D01*
X2519Y6133D01*
X2510Y6136D01*
X2500Y6138D01*
D02*
G37*
G36*
X2400D02*
X2390Y6136D01*
X2381Y6133D01*
X2373Y6127D01*
X2367Y6119D01*
X2364Y6110D01*
X2362Y6100D01*
X2364Y6090D01*
X2367Y6081D01*
X2373Y6073D01*
X2381Y6067D01*
X2390Y6064D01*
X2400Y6062D01*
X2410Y6064D01*
X2419Y6067D01*
X2427Y6073D01*
X2433Y6081D01*
X2436Y6090D01*
X2438Y6100D01*
X2436Y6110D01*
X2433Y6119D01*
X2427Y6127D01*
X2419Y6133D01*
X2410Y6136D01*
X2400Y6138D01*
D02*
G37*
G36*
X2437Y5995D02*
X2405D01*
Y5963D01*
X2410Y5964D01*
X2419Y5967D01*
X2427Y5973D01*
X2433Y5981D01*
X2436Y5990D01*
X2437Y5995D01*
D02*
G37*
G36*
X2395D02*
X2363D01*
X2364Y5990D01*
X2367Y5981D01*
X2373Y5973D01*
X2381Y5967D01*
X2390Y5964D01*
X2395Y5963D01*
Y5995D01*
D02*
G37*
G36*
X3600Y6038D02*
X3590Y6036D01*
X3581Y6033D01*
X3573Y6027D01*
X3567Y6019D01*
X3564Y6010D01*
X3562Y6000D01*
X3564Y5990D01*
X3567Y5981D01*
X3573Y5973D01*
X3581Y5967D01*
X3590Y5964D01*
X3600Y5962D01*
X3610Y5964D01*
X3619Y5967D01*
X3627Y5973D01*
X3633Y5981D01*
X3636Y5990D01*
X3638Y6000D01*
X3636Y6010D01*
X3633Y6019D01*
X3627Y6027D01*
X3619Y6033D01*
X3610Y6036D01*
X3600Y6038D01*
D02*
G37*
G36*
X2152Y5984D02*
X2135D01*
Y5966D01*
X2152D01*
Y5984D01*
D02*
G37*
G36*
X3898Y6020D02*
X3890Y6019D01*
X3883Y6014D01*
X3881Y6011D01*
X3879D01*
Y6006D01*
X3878Y6000D01*
X3879Y5994D01*
Y5965D01*
X3924D01*
Y6011D01*
X3914D01*
X3912Y6014D01*
X3905Y6019D01*
X3898Y6020D01*
D02*
G37*
G36*
X3799Y6024D02*
X3792Y6022D01*
X3785Y6018D01*
X3781Y6012D01*
X3781Y6011D01*
X3776D01*
Y5965D01*
X3822D01*
Y6011D01*
X3818D01*
X3818Y6012D01*
X3813Y6018D01*
X3807Y6022D01*
X3799Y6024D01*
D02*
G37*
G36*
X2700Y6138D02*
X2690Y6136D01*
X2681Y6133D01*
X2673Y6127D01*
X2667Y6119D01*
X2664Y6110D01*
X2662Y6100D01*
X2664Y6090D01*
X2667Y6081D01*
X2673Y6073D01*
X2681Y6067D01*
X2690Y6064D01*
X2700Y6062D01*
X2710Y6064D01*
X2719Y6067D01*
X2727Y6073D01*
X2733Y6081D01*
X2736Y6090D01*
X2738Y6100D01*
X2736Y6110D01*
X2733Y6119D01*
X2727Y6127D01*
X2719Y6133D01*
X2710Y6136D01*
X2700Y6138D01*
D02*
G37*
G36*
X3005Y6137D02*
Y6105D01*
X3037D01*
X3036Y6110D01*
X3033Y6119D01*
X3027Y6127D01*
X3019Y6133D01*
X3010Y6136D01*
X3005Y6137D01*
D02*
G37*
G36*
X2995D02*
X2990Y6136D01*
X2981Y6133D01*
X2973Y6127D01*
X2967Y6119D01*
X2964Y6110D01*
X2963Y6105D01*
X2995D01*
Y6137D01*
D02*
G37*
G36*
X2094Y6113D02*
X2080D01*
Y6099D01*
X2082Y6100D01*
X2089Y6104D01*
X2093Y6110D01*
X2094Y6113D01*
D02*
G37*
G36*
X2303Y6160D02*
X2288D01*
Y6146D01*
X2291Y6147D01*
X2298Y6151D01*
X2302Y6158D01*
X2303Y6160D01*
D02*
G37*
G36*
X2278D02*
X2264D01*
X2265Y6158D01*
X2269Y6151D01*
X2276Y6147D01*
X2278Y6146D01*
Y6160D01*
D02*
G37*
G36*
X3898Y6166D02*
X3890Y6164D01*
X3883Y6160D01*
X3879Y6153D01*
X3879Y6153D01*
X3879D01*
Y6151D01*
X3878Y6146D01*
X3879Y6140D01*
Y6107D01*
X3924D01*
Y6153D01*
X3916D01*
X3916Y6153D01*
X3912Y6160D01*
X3905Y6164D01*
X3898Y6166D01*
D02*
G37*
G36*
X3100Y6138D02*
X3090Y6136D01*
X3081Y6133D01*
X3073Y6127D01*
X3067Y6119D01*
X3064Y6110D01*
X3062Y6100D01*
X3064Y6090D01*
X3067Y6081D01*
X3073Y6073D01*
X3081Y6067D01*
X3090Y6064D01*
X3100Y6062D01*
X3110Y6064D01*
X3119Y6067D01*
X3127Y6073D01*
X3133Y6081D01*
X3136Y6090D01*
X3138Y6100D01*
X3136Y6110D01*
X3133Y6119D01*
X3127Y6127D01*
X3119Y6133D01*
X3110Y6136D01*
X3100Y6138D01*
D02*
G37*
G36*
X2900D02*
X2890Y6136D01*
X2881Y6133D01*
X2873Y6127D01*
X2867Y6119D01*
X2864Y6110D01*
X2862Y6100D01*
X2864Y6090D01*
X2867Y6081D01*
X2873Y6073D01*
X2881Y6067D01*
X2890Y6064D01*
X2900Y6062D01*
X2910Y6064D01*
X2919Y6067D01*
X2927Y6073D01*
X2933Y6081D01*
X2936Y6090D01*
X2938Y6100D01*
X2936Y6110D01*
X2933Y6119D01*
X2927Y6127D01*
X2919Y6133D01*
X2910Y6136D01*
X2900Y6138D01*
D02*
G37*
G36*
X2800D02*
X2790Y6136D01*
X2781Y6133D01*
X2773Y6127D01*
X2767Y6119D01*
X2764Y6110D01*
X2762Y6100D01*
X2764Y6090D01*
X2767Y6081D01*
X2773Y6073D01*
X2781Y6067D01*
X2790Y6064D01*
X2800Y6062D01*
X2810Y6064D01*
X2819Y6067D01*
X2827Y6073D01*
X2833Y6081D01*
X2836Y6090D01*
X2838Y6100D01*
X2836Y6110D01*
X2833Y6119D01*
X2827Y6127D01*
X2819Y6133D01*
X2810Y6136D01*
X2800Y6138D01*
D02*
G37*
G36*
X2243Y6109D02*
X2229D01*
X2229Y6106D01*
X2234Y6100D01*
X2240Y6096D01*
X2243Y6095D01*
Y6109D01*
D02*
G37*
G36*
X3037Y6095D02*
X3005D01*
Y6063D01*
X3010Y6064D01*
X3019Y6067D01*
X3027Y6073D01*
X3033Y6081D01*
X3036Y6090D01*
X3037Y6095D01*
D02*
G37*
G36*
X2995D02*
X2963D01*
X2964Y6090D01*
X2967Y6081D01*
X2973Y6073D01*
X2981Y6067D01*
X2990Y6064D01*
X2995Y6063D01*
Y6095D01*
D02*
G37*
G36*
X3500Y6038D02*
X3490Y6036D01*
X3481Y6033D01*
X3473Y6027D01*
X3467Y6019D01*
X3464Y6010D01*
X3462Y6000D01*
X3464Y5990D01*
X3467Y5981D01*
X3473Y5973D01*
X3481Y5967D01*
X3490Y5964D01*
X3500Y5962D01*
X3510Y5964D01*
X3519Y5967D01*
X3527Y5973D01*
X3533Y5981D01*
X3536Y5990D01*
X3538Y6000D01*
X3536Y6010D01*
X3533Y6019D01*
X3527Y6027D01*
X3519Y6033D01*
X3510Y6036D01*
X3500Y6038D01*
D02*
G37*
G36*
X2984Y5894D02*
X2922D01*
Y5855D01*
X2984D01*
Y5894D01*
D02*
G37*
G36*
X3594Y5849D02*
X3580D01*
Y5835D01*
X3582Y5836D01*
X3589Y5840D01*
X3593Y5847D01*
X3594Y5849D01*
D02*
G37*
G36*
X3570D02*
X3556D01*
X3556Y5847D01*
X3561Y5840D01*
X3567Y5836D01*
X3570Y5835D01*
Y5849D01*
D02*
G37*
G36*
X3580Y5873D02*
Y5859D01*
X3594D01*
X3593Y5862D01*
X3589Y5869D01*
X3582Y5873D01*
X3580Y5873D01*
D02*
G37*
G36*
X3570D02*
X3567Y5873D01*
X3561Y5869D01*
X3556Y5862D01*
X3556Y5859D01*
X3570D01*
Y5873D01*
D02*
G37*
G36*
X2475Y5870D02*
X2470Y5869D01*
X2469Y5869D01*
X2462Y5865D01*
X2462Y5865D01*
X2458Y5858D01*
X2457Y5855D01*
X2475D01*
Y5870D01*
D02*
G37*
G36*
X3805Y5837D02*
Y5805D01*
X3837D01*
X3836Y5810D01*
X3833Y5819D01*
X3827Y5827D01*
X3819Y5833D01*
X3810Y5836D01*
X3805Y5837D01*
D02*
G37*
G36*
X3795D02*
X3790Y5836D01*
X3781Y5833D01*
X3773Y5827D01*
X3767Y5819D01*
X3764Y5810D01*
X3763Y5805D01*
X3795D01*
Y5837D01*
D02*
G37*
G36*
X2822Y5789D02*
X2777D01*
Y5765D01*
X2822D01*
Y5789D01*
D02*
G37*
G36*
X2984Y5845D02*
X2922D01*
Y5805D01*
X2984D01*
Y5845D01*
D02*
G37*
G36*
X3905Y5837D02*
Y5805D01*
X3937D01*
X3936Y5810D01*
X3933Y5819D01*
X3927Y5827D01*
X3919Y5833D01*
X3910Y5836D01*
X3905Y5837D01*
D02*
G37*
G36*
X3895D02*
X3890Y5836D01*
X3881Y5833D01*
X3873Y5827D01*
X3867Y5819D01*
X3864Y5810D01*
X3863Y5805D01*
X3895D01*
Y5837D01*
D02*
G37*
G36*
X3223Y5881D02*
X3209D01*
X3210Y5878D01*
X3214Y5872D01*
X3221Y5867D01*
X3223Y5867D01*
Y5881D01*
D02*
G37*
G36*
X2800Y6038D02*
X2790Y6036D01*
X2781Y6033D01*
X2773Y6027D01*
X2767Y6019D01*
X2764Y6010D01*
X2762Y6000D01*
X2764Y5990D01*
X2767Y5981D01*
X2773Y5973D01*
X2781Y5967D01*
X2790Y5964D01*
X2800Y5962D01*
X2810Y5964D01*
X2819Y5967D01*
X2827Y5973D01*
X2833Y5981D01*
X2836Y5990D01*
X2838Y6000D01*
X2836Y6010D01*
X2833Y6019D01*
X2827Y6027D01*
X2819Y6033D01*
X2810Y6036D01*
X2800Y6038D01*
D02*
G37*
G36*
X2700D02*
X2690Y6036D01*
X2681Y6033D01*
X2673Y6027D01*
X2667Y6019D01*
X2664Y6010D01*
X2662Y6000D01*
X2664Y5990D01*
X2667Y5981D01*
X2673Y5973D01*
X2681Y5967D01*
X2690Y5964D01*
X2700Y5962D01*
X2710Y5964D01*
X2719Y5967D01*
X2727Y5973D01*
X2733Y5981D01*
X2736Y5990D01*
X2738Y6000D01*
X2736Y6010D01*
X2733Y6019D01*
X2727Y6027D01*
X2719Y6033D01*
X2710Y6036D01*
X2700Y6038D01*
D02*
G37*
G36*
X2600D02*
X2590Y6036D01*
X2581Y6033D01*
X2573Y6027D01*
X2567Y6019D01*
X2564Y6010D01*
X2562Y6000D01*
X2564Y5990D01*
X2567Y5981D01*
X2573Y5973D01*
X2581Y5967D01*
X2590Y5964D01*
X2600Y5962D01*
X2610Y5964D01*
X2619Y5967D01*
X2627Y5973D01*
X2633Y5981D01*
X2636Y5990D01*
X2638Y6000D01*
X2636Y6010D01*
X2633Y6019D01*
X2627Y6027D01*
X2619Y6033D01*
X2610Y6036D01*
X2600Y6038D01*
D02*
G37*
G36*
X3400D02*
X3390Y6036D01*
X3381Y6033D01*
X3373Y6027D01*
X3367Y6019D01*
X3364Y6010D01*
X3362Y6000D01*
X3364Y5990D01*
X3367Y5981D01*
X3373Y5973D01*
X3381Y5967D01*
X3390Y5964D01*
X3400Y5962D01*
X3410Y5964D01*
X3419Y5967D01*
X3427Y5973D01*
X3433Y5981D01*
X3436Y5990D01*
X3438Y6000D01*
X3436Y6010D01*
X3433Y6019D01*
X3427Y6027D01*
X3419Y6033D01*
X3410Y6036D01*
X3400Y6038D01*
D02*
G37*
G36*
X3000D02*
X2990Y6036D01*
X2981Y6033D01*
X2973Y6027D01*
X2967Y6019D01*
X2964Y6010D01*
X2962Y6000D01*
X2964Y5990D01*
X2967Y5981D01*
X2973Y5973D01*
X2981Y5967D01*
X2990Y5964D01*
X3000Y5962D01*
X3010Y5964D01*
X3019Y5967D01*
X3027Y5973D01*
X3033Y5981D01*
X3036Y5990D01*
X3038Y6000D01*
X3036Y6010D01*
X3033Y6019D01*
X3027Y6027D01*
X3019Y6033D01*
X3010Y6036D01*
X3000Y6038D01*
D02*
G37*
G36*
X2900D02*
X2890Y6036D01*
X2881Y6033D01*
X2873Y6027D01*
X2867Y6019D01*
X2864Y6010D01*
X2862Y6000D01*
X2864Y5990D01*
X2867Y5981D01*
X2873Y5973D01*
X2881Y5967D01*
X2890Y5964D01*
X2900Y5962D01*
X2910Y5964D01*
X2919Y5967D01*
X2927Y5973D01*
X2933Y5981D01*
X2936Y5990D01*
X2938Y6000D01*
X2936Y6010D01*
X2933Y6019D01*
X2927Y6027D01*
X2919Y6033D01*
X2910Y6036D01*
X2900Y6038D01*
D02*
G37*
G36*
X3233Y5905D02*
Y5891D01*
X3247D01*
X3247Y5894D01*
X3243Y5900D01*
X3236Y5904D01*
X3233Y5905D01*
D02*
G37*
G36*
X3223D02*
X3221Y5904D01*
X3214Y5900D01*
X3210Y5894D01*
X3209Y5891D01*
X3223D01*
Y5905D01*
D02*
G37*
G36*
X3247Y5881D02*
X3233D01*
Y5867D01*
X3236Y5867D01*
X3243Y5872D01*
X3247Y5878D01*
X3247Y5881D01*
D02*
G37*
G36*
X2500Y6038D02*
X2490Y6036D01*
X2481Y6033D01*
X2473Y6027D01*
X2467Y6019D01*
X2464Y6010D01*
X2462Y6000D01*
X2463Y5996D01*
X2409Y5942D01*
X2408Y5941D01*
X2401D01*
Y5924D01*
X2396Y5923D01*
X2387Y5916D01*
X2380Y5907D01*
X2376Y5896D01*
X2375Y5885D01*
X2376Y5876D01*
X2376Y5876D01*
X2376Y5876D01*
X2376Y5874D01*
X2376Y5874D01*
X2376Y5874D01*
X2376D01*
X2376Y5874D01*
D01*
X2377Y5874D01*
X2377Y5872D01*
X2380Y5867D01*
X2385Y5864D01*
X2391Y5863D01*
X2397Y5864D01*
D01*
Y5864D01*
X2398Y5861D01*
X2400Y5853D01*
X2401Y5851D01*
Y5846D01*
X2402Y5844D01*
X2445D01*
X2444Y5850D01*
X2444Y5850D01*
X2441Y5854D01*
Y5858D01*
X2441Y5861D01*
X2444Y5864D01*
X2445Y5864D01*
X2451Y5865D01*
X2456Y5868D01*
X2459Y5873D01*
X2460Y5875D01*
X2460Y5876D01*
X2460D01*
X2461Y5885D01*
X2460Y5896D01*
X2456Y5907D01*
X2449Y5916D01*
X2440Y5923D01*
X2436Y5924D01*
Y5935D01*
X2474Y5973D01*
X2481Y5967D01*
X2490Y5964D01*
X2500Y5962D01*
X2510Y5964D01*
X2519Y5967D01*
X2527Y5973D01*
X2533Y5981D01*
X2536Y5990D01*
X2538Y6000D01*
X2536Y6010D01*
X2533Y6019D01*
X2527Y6027D01*
X2519Y6033D01*
X2510Y6036D01*
X2500Y6038D01*
D02*
G37*
G36*
X2180Y5956D02*
X2162D01*
Y5938D01*
X2180D01*
Y5956D01*
D02*
G37*
G36*
X2152D02*
X2135D01*
Y5938D01*
X2152D01*
Y5956D01*
D02*
G37*
G36*
X3397Y5298D02*
X3382D01*
X3383Y5295D01*
X3387Y5289D01*
X3394Y5285D01*
X3397Y5284D01*
Y5298D01*
D02*
G37*
G36*
X3369Y5291D02*
X3351D01*
Y5273D01*
X3369D01*
Y5291D01*
D02*
G37*
G36*
X3341D02*
X3324D01*
Y5273D01*
X3341D01*
Y5291D01*
D02*
G37*
G36*
Y5318D02*
X3324D01*
Y5300D01*
X3341D01*
Y5318D01*
D02*
G37*
G36*
X2760Y5303D02*
X2757D01*
Y5298D01*
X2760D01*
Y5303D01*
D02*
G37*
G36*
X3421Y5298D02*
X3407D01*
Y5284D01*
X3409Y5285D01*
X3416Y5289D01*
X3420Y5295D01*
X3421Y5298D01*
D02*
G37*
G36*
X2237Y5295D02*
X2205D01*
Y5263D01*
X2210Y5264D01*
X2219Y5267D01*
X2227Y5273D01*
X2233Y5281D01*
X2236Y5290D01*
X2237Y5295D01*
D02*
G37*
G36*
X2195D02*
X2163D01*
X2164Y5290D01*
X2167Y5281D01*
X2173Y5273D01*
X2181Y5267D01*
X2190Y5264D01*
X2195Y5263D01*
Y5295D01*
D02*
G37*
G36*
X3900Y5338D02*
X3890Y5336D01*
X3881Y5333D01*
X3873Y5327D01*
X3867Y5319D01*
X3864Y5310D01*
X3862Y5300D01*
X3864Y5290D01*
X3867Y5281D01*
X3873Y5273D01*
X3881Y5267D01*
X3890Y5264D01*
X3900Y5262D01*
X3910Y5264D01*
X3919Y5267D01*
X3927Y5273D01*
X3933Y5281D01*
X3936Y5290D01*
X3938Y5300D01*
X3936Y5310D01*
X3933Y5319D01*
X3927Y5327D01*
X3919Y5333D01*
X3910Y5336D01*
X3900Y5338D01*
D02*
G37*
G36*
X2940Y5278D02*
X2926D01*
Y5264D01*
X2929Y5265D01*
X2935Y5269D01*
X2940Y5276D01*
X2940Y5278D01*
D02*
G37*
G36*
X2780Y5288D02*
X2757D01*
Y5264D01*
X2780D01*
Y5288D01*
D02*
G37*
G36*
X2747Y5323D02*
X2706D01*
Y5293D01*
Y5264D01*
X2747D01*
Y5293D01*
Y5323D01*
D02*
G37*
G36*
X3369Y5318D02*
X3351D01*
Y5300D01*
X3369D01*
Y5318D01*
D02*
G37*
G36*
X3125Y5338D02*
X3111D01*
X3111Y5335D01*
X3116Y5328D01*
X3122Y5324D01*
X3125Y5323D01*
Y5338D01*
D02*
G37*
G36*
X2916Y5358D02*
X2914Y5357D01*
X2909Y5354D01*
X2903D01*
Y5321D01*
X2931D01*
X2935Y5324D01*
X2940Y5331D01*
X2940Y5334D01*
X2921D01*
Y5339D01*
X2916D01*
Y5358D01*
D02*
G37*
G36*
X2891D02*
Y5339D01*
X2886D01*
Y5334D01*
X2867D01*
X2867Y5331D01*
X2870Y5326D01*
Y5321D01*
X2893D01*
Y5357D01*
X2891Y5358D01*
D02*
G37*
G36*
X3369Y5346D02*
X3351D01*
Y5328D01*
X3369D01*
Y5346D01*
D02*
G37*
G36*
X3341D02*
X3324D01*
Y5328D01*
X3341D01*
Y5346D01*
D02*
G37*
G36*
X3149Y5338D02*
X3135D01*
Y5323D01*
X3138Y5324D01*
X3144Y5328D01*
X3148Y5335D01*
X3149Y5338D01*
D02*
G37*
G36*
X2205Y5337D02*
Y5305D01*
X2237D01*
X2236Y5310D01*
X2233Y5319D01*
X2227Y5327D01*
X2219Y5333D01*
X2210Y5336D01*
X2205Y5337D01*
D02*
G37*
G36*
X2195D02*
X2190Y5336D01*
X2181Y5333D01*
X2173Y5327D01*
X2167Y5319D01*
X2164Y5310D01*
X2163Y5305D01*
X2195D01*
Y5337D01*
D02*
G37*
G36*
X2633Y5323D02*
X2631D01*
Y5303D01*
X2621D01*
Y5323D01*
X2600D01*
Y5294D01*
X2633D01*
Y5323D01*
D02*
G37*
G36*
X3407Y5322D02*
Y5308D01*
X3421D01*
X3420Y5311D01*
X3416Y5317D01*
X3409Y5322D01*
X3407Y5322D01*
D02*
G37*
G36*
X3397D02*
X3394Y5322D01*
X3387Y5317D01*
X3383Y5311D01*
X3382Y5308D01*
X3397D01*
Y5322D01*
D02*
G37*
G36*
X2780Y5323D02*
X2765D01*
Y5308D01*
X2780D01*
Y5323D01*
D02*
G37*
G36*
X3800Y5338D02*
X3790Y5336D01*
X3781Y5333D01*
X3773Y5327D01*
X3767Y5319D01*
X3764Y5310D01*
X3762Y5300D01*
X3763Y5292D01*
X3737Y5265D01*
X3732Y5258D01*
X3731Y5251D01*
Y4849D01*
X3731Y4849D01*
X3731D01*
X3732Y4842D01*
X3737Y4835D01*
X3763Y4808D01*
X3762Y4800D01*
X3763Y4792D01*
X3742Y4771D01*
X3630D01*
X3628Y4775D01*
X3633Y4781D01*
X3636Y4790D01*
X3638Y4800D01*
X3636Y4810D01*
X3633Y4819D01*
X3627Y4827D01*
X3619Y4833D01*
X3610Y4836D01*
X3600Y4838D01*
X3590Y4836D01*
X3581Y4833D01*
X3573Y4827D01*
X3567Y4819D01*
X3564Y4810D01*
X3562Y4800D01*
X3564Y4790D01*
X3567Y4781D01*
X3572Y4775D01*
X3570Y4771D01*
X3558D01*
X3537Y4792D01*
X3538Y4800D01*
X3536Y4810D01*
X3533Y4819D01*
X3527Y4827D01*
X3519Y4833D01*
X3510Y4836D01*
X3500Y4838D01*
X3490Y4836D01*
X3481Y4833D01*
X3473Y4827D01*
X3467Y4819D01*
X3464Y4810D01*
X3463Y4807D01*
X3397D01*
Y4812D01*
X3397D01*
Y4812D01*
X3397D01*
Y4830D01*
X3379D01*
Y4812D01*
X3393D01*
X3393Y4811D01*
D01*
X3393Y4807D01*
D01*
X3393Y4807D01*
X3389Y4806D01*
X3382Y4802D01*
X3377Y4796D01*
X3330D01*
X3311Y4815D01*
Y4884D01*
X3314Y4886D01*
X3319Y4892D01*
X3320Y4900D01*
X3319Y4908D01*
X3314Y4914D01*
X3308Y4919D01*
X3306Y4919D01*
Y4924D01*
X3297D01*
X3222Y4999D01*
X3223Y5000D01*
X3225Y5008D01*
X3223Y5016D01*
X3219Y5022D01*
X3212Y5026D01*
X3205Y5028D01*
X3199Y5027D01*
X3193Y5028D01*
X3187Y5027D01*
X3181Y5028D01*
X3173Y5026D01*
X3167Y5022D01*
X3163Y5016D01*
X3161Y5008D01*
X3163Y5000D01*
X3165Y4996D01*
X3163Y4992D01*
X3161Y4984D01*
X3163Y4977D01*
X3167Y4970D01*
X3173Y4966D01*
X3181Y4964D01*
X3189Y4966D01*
X3193Y4968D01*
X3197Y4966D01*
X3199Y4965D01*
X3235Y4929D01*
X3234Y4924D01*
X3233D01*
Y4907D01*
X3251D01*
Y4907D01*
X3256Y4909D01*
X3261Y4904D01*
Y4879D01*
X3271D01*
Y4807D01*
X3271Y4807D01*
X3271D01*
X3273Y4799D01*
X3277Y4793D01*
X3308Y4762D01*
X3314Y4758D01*
X3322Y4756D01*
X3352D01*
X3354Y4752D01*
X3352Y4750D01*
X3348Y4744D01*
X3347Y4741D01*
X3385D01*
X3385Y4744D01*
X3380Y4750D01*
X3379Y4752D01*
X3380Y4756D01*
X3385D01*
X3393Y4758D01*
X3400Y4762D01*
X3405Y4767D01*
X3481D01*
X3481Y4767D01*
X3490Y4764D01*
X3500Y4762D01*
X3508Y4763D01*
X3535Y4737D01*
X3542Y4732D01*
X3549Y4731D01*
X3571D01*
X3573Y4726D01*
X3567Y4719D01*
X3564Y4710D01*
X3562Y4700D01*
X3564Y4690D01*
X3567Y4681D01*
X3573Y4673D01*
X3581Y4667D01*
X3590Y4664D01*
X3600Y4662D01*
X3610Y4664D01*
X3619Y4667D01*
X3627Y4673D01*
X3633Y4681D01*
X3636Y4690D01*
X3638Y4700D01*
X3636Y4710D01*
X3633Y4719D01*
X3627Y4726D01*
X3629Y4731D01*
X3751D01*
X3758Y4732D01*
X3765Y4737D01*
X3792Y4763D01*
X3800Y4762D01*
X3810Y4764D01*
X3819Y4767D01*
X3827Y4773D01*
X3833Y4781D01*
X3836Y4790D01*
X3838Y4800D01*
X3836Y4810D01*
X3833Y4819D01*
X3827Y4827D01*
X3819Y4833D01*
X3810Y4836D01*
X3800Y4838D01*
X3792Y4837D01*
X3771Y4858D01*
Y4870D01*
X3775Y4872D01*
X3781Y4867D01*
X3790Y4864D01*
X3800Y4862D01*
X3810Y4864D01*
X3819Y4867D01*
X3827Y4873D01*
X3833Y4881D01*
X3836Y4890D01*
X3838Y4900D01*
X3836Y4910D01*
X3833Y4919D01*
X3827Y4927D01*
X3819Y4933D01*
X3810Y4936D01*
X3800Y4938D01*
X3790Y4936D01*
X3781Y4933D01*
X3775Y4928D01*
X3771Y4930D01*
Y4970D01*
X3775Y4972D01*
X3781Y4967D01*
X3790Y4964D01*
X3800Y4962D01*
X3810Y4964D01*
X3819Y4967D01*
X3827Y4973D01*
X3833Y4981D01*
X3836Y4990D01*
X3838Y5000D01*
X3836Y5010D01*
X3833Y5019D01*
X3827Y5027D01*
X3819Y5033D01*
X3810Y5036D01*
X3800Y5038D01*
X3790Y5036D01*
X3781Y5033D01*
X3775Y5028D01*
X3771Y5030D01*
Y5070D01*
X3775Y5072D01*
X3781Y5067D01*
X3790Y5064D01*
X3800Y5062D01*
X3810Y5064D01*
X3819Y5067D01*
X3827Y5073D01*
X3833Y5081D01*
X3836Y5090D01*
X3838Y5100D01*
X3836Y5110D01*
X3833Y5119D01*
X3827Y5127D01*
X3819Y5133D01*
X3810Y5136D01*
X3800Y5138D01*
X3790Y5136D01*
X3781Y5133D01*
X3775Y5128D01*
X3771Y5130D01*
Y5170D01*
X3775Y5172D01*
X3781Y5167D01*
X3790Y5164D01*
X3800Y5162D01*
X3810Y5164D01*
X3819Y5167D01*
X3827Y5173D01*
X3833Y5181D01*
X3836Y5190D01*
X3838Y5200D01*
X3836Y5210D01*
X3833Y5219D01*
X3827Y5227D01*
X3819Y5233D01*
X3810Y5236D01*
X3800Y5238D01*
X3790Y5236D01*
X3781Y5233D01*
X3775Y5228D01*
X3771Y5230D01*
Y5242D01*
X3792Y5263D01*
X3800Y5262D01*
X3810Y5264D01*
X3819Y5267D01*
X3827Y5273D01*
X3833Y5281D01*
X3836Y5290D01*
X3838Y5300D01*
X3836Y5310D01*
X3833Y5319D01*
X3827Y5327D01*
X3819Y5333D01*
X3810Y5336D01*
X3800Y5338D01*
D02*
G37*
G36*
X2377Y5188D02*
X2363D01*
Y5174D01*
X2366Y5174D01*
X2372Y5179D01*
X2377Y5185D01*
X2377Y5188D01*
D02*
G37*
G36*
X2353D02*
X2339D01*
X2340Y5185D01*
X2344Y5179D01*
X2351Y5174D01*
X2353Y5174D01*
Y5188D01*
D02*
G37*
G36*
X3900Y5238D02*
X3890Y5236D01*
X3881Y5233D01*
X3873Y5227D01*
X3867Y5219D01*
X3864Y5210D01*
X3862Y5200D01*
X3864Y5190D01*
X3867Y5181D01*
X3873Y5173D01*
X3881Y5167D01*
X3890Y5164D01*
X3900Y5162D01*
X3910Y5164D01*
X3919Y5167D01*
X3927Y5173D01*
X3933Y5181D01*
X3936Y5190D01*
X3938Y5200D01*
X3936Y5210D01*
X3933Y5219D01*
X3927Y5227D01*
X3919Y5233D01*
X3910Y5236D01*
X3900Y5238D01*
D02*
G37*
G36*
X2363Y5212D02*
Y5198D01*
X2377D01*
X2377Y5201D01*
X2372Y5207D01*
X2366Y5211D01*
X2363Y5212D01*
D02*
G37*
G36*
X2353D02*
X2351Y5211D01*
X2344Y5207D01*
X2340Y5201D01*
X2339Y5198D01*
X2353D01*
Y5212D01*
D02*
G37*
G36*
X3046Y5196D02*
X3001D01*
Y5186D01*
X3046D01*
Y5196D01*
D02*
G37*
G36*
X2712Y5169D02*
X2694D01*
Y5151D01*
X2712D01*
Y5169D01*
D02*
G37*
G36*
X2684D02*
X2666D01*
Y5151D01*
X2684D01*
Y5169D01*
D02*
G37*
G36*
X2631Y5137D02*
Y5123D01*
X2645D01*
X2645Y5126D01*
X2640Y5132D01*
X2634Y5137D01*
X2631Y5137D01*
D02*
G37*
G36*
X2100Y5238D02*
X2090Y5236D01*
X2081Y5233D01*
X2073Y5227D01*
X2067Y5219D01*
X2064Y5210D01*
X2062Y5200D01*
X2064Y5190D01*
X2067Y5181D01*
X2073Y5173D01*
X2081Y5167D01*
X2090Y5164D01*
X2100Y5162D01*
X2110Y5164D01*
X2119Y5167D01*
X2127Y5173D01*
X2133Y5181D01*
X2136Y5190D01*
X2138Y5200D01*
X2136Y5210D01*
X2133Y5219D01*
X2127Y5227D01*
X2119Y5233D01*
X2110Y5236D01*
X2100Y5238D01*
D02*
G37*
G36*
X3043Y5176D02*
X3029D01*
Y5162D01*
X3031Y5163D01*
X3038Y5167D01*
X3042Y5173D01*
X3043Y5176D01*
D02*
G37*
G36*
X3019D02*
X3005D01*
X3005Y5173D01*
X3009Y5167D01*
X3016Y5163D01*
X3019Y5162D01*
Y5176D01*
D02*
G37*
G36*
X3046Y5215D02*
X3001D01*
Y5206D01*
X3046D01*
Y5215D01*
D02*
G37*
G36*
X3341Y5263D02*
X3324D01*
Y5245D01*
X3341D01*
Y5263D01*
D02*
G37*
G36*
X2839Y5363D02*
X2831Y5361D01*
X2824Y5357D01*
X2823Y5354D01*
X2790D01*
Y5278D01*
X2807D01*
X2843Y5242D01*
X2841Y5237D01*
X2813D01*
X2804Y5245D01*
X2797Y5251D01*
X2787Y5252D01*
X2780D01*
Y5256D01*
X2675D01*
X2675Y5256D01*
X2675Y5256D01*
X2675Y5256D01*
X2675Y5256D01*
X2675D01*
Y5264D01*
X2696D01*
Y5293D01*
Y5323D01*
X2643D01*
Y5289D01*
X2638D01*
Y5284D01*
X2600D01*
Y5260D01*
X2600Y5260D01*
X2600Y5260D01*
X2597Y5259D01*
Y5259D01*
X2596Y5258D01*
X2593Y5262D01*
X2586Y5267D01*
X2584Y5267D01*
Y5248D01*
Y5229D01*
X2586Y5229D01*
X2593Y5234D01*
X2596Y5238D01*
X2600Y5236D01*
Y5181D01*
X2675D01*
Y5197D01*
X2741D01*
X2746Y5191D01*
X2752Y5186D01*
X2760Y5185D01*
X2768Y5186D01*
X2773Y5190D01*
X2778Y5188D01*
Y5164D01*
X2821D01*
X2823Y5162D01*
X2821Y5158D01*
X2775D01*
X2774Y5160D01*
X2768Y5164D01*
X2767Y5164D01*
Y5169D01*
X2721D01*
Y5123D01*
X2742D01*
X2744Y5118D01*
X2741Y5114D01*
X2741Y5112D01*
X2739Y5109D01*
X2721D01*
Y5064D01*
X2767D01*
Y5081D01*
X2774Y5088D01*
X2778Y5095D01*
X2779Y5097D01*
X2782Y5103D01*
X2784Y5110D01*
X2782Y5118D01*
X2778Y5124D01*
X2775Y5127D01*
X2774Y5131D01*
X2774Y5131D01*
X2774D01*
Y5131D01*
D01*
X2775Y5134D01*
X2823D01*
X2824Y5131D01*
X2831Y5127D01*
X2839Y5126D01*
X2846Y5127D01*
X2853Y5131D01*
X2857Y5138D01*
X2859Y5146D01*
X2857Y5153D01*
X2853Y5160D01*
X2852Y5160D01*
X2852Y5164D01*
X2852D01*
Y5227D01*
X2857Y5229D01*
X2862Y5226D01*
X2862Y5226D01*
X2864Y5224D01*
Y5164D01*
X2939D01*
Y5177D01*
X2969D01*
X2975Y5178D01*
X2991D01*
Y5195D01*
X2993Y5201D01*
X2991Y5207D01*
Y5224D01*
X2975D01*
X2969Y5225D01*
X2939D01*
Y5237D01*
X2919D01*
X2895Y5261D01*
X2895Y5266D01*
X2900Y5269D01*
X2901Y5271D01*
X2906D01*
X2907Y5269D01*
X2914Y5265D01*
X2916Y5264D01*
Y5283D01*
X2921D01*
Y5288D01*
X2940D01*
X2940Y5291D01*
X2935Y5298D01*
X2929Y5302D01*
X2926Y5303D01*
Y5311D01*
X2870D01*
Y5296D01*
X2867Y5291D01*
X2862Y5291D01*
X2854Y5299D01*
X2857Y5303D01*
X2859Y5311D01*
X2857Y5319D01*
X2853Y5325D01*
Y5328D01*
X2857Y5335D01*
X2859Y5343D01*
X2857Y5350D01*
X2853Y5357D01*
X2846Y5361D01*
X2839Y5363D01*
D02*
G37*
G36*
X3143Y5247D02*
Y5233D01*
X3157D01*
X3156Y5236D01*
X3152Y5243D01*
X3145Y5247D01*
X3143Y5247D01*
D02*
G37*
G36*
X2100Y5338D02*
X2090Y5336D01*
X2081Y5333D01*
X2073Y5327D01*
X2067Y5319D01*
X2064Y5310D01*
X2062Y5300D01*
X2064Y5290D01*
X2067Y5281D01*
X2073Y5273D01*
X2081Y5267D01*
X2090Y5264D01*
X2100Y5262D01*
X2110Y5264D01*
X2119Y5267D01*
X2127Y5273D01*
X2133Y5281D01*
X2136Y5290D01*
X2138Y5300D01*
X2136Y5310D01*
X2133Y5319D01*
X2127Y5327D01*
X2119Y5333D01*
X2110Y5336D01*
X2100Y5338D01*
D02*
G37*
G36*
X2574Y5267D02*
X2571Y5267D01*
X2565Y5262D01*
X2560Y5256D01*
X2560Y5253D01*
X2574D01*
Y5267D01*
D02*
G37*
G36*
X3369Y5263D02*
X3351D01*
Y5245D01*
X3369D01*
Y5263D01*
D02*
G37*
G36*
X3019Y5240D02*
X3016Y5239D01*
X3009Y5235D01*
X3005Y5228D01*
X3005Y5225D01*
X3019D01*
Y5240D01*
D02*
G37*
G36*
X3157Y5223D02*
X3143D01*
Y5209D01*
X3145Y5210D01*
X3152Y5214D01*
X3156Y5221D01*
X3157Y5223D01*
D02*
G37*
G36*
X3133D02*
X3119D01*
X3119Y5221D01*
X3124Y5214D01*
X3130Y5210D01*
X3133Y5209D01*
Y5223D01*
D02*
G37*
G36*
Y5247D02*
X3130Y5247D01*
X3124Y5243D01*
X3119Y5236D01*
X3119Y5233D01*
X3133D01*
Y5247D01*
D02*
G37*
G36*
X2574Y5243D02*
X2560D01*
X2560Y5240D01*
X2565Y5234D01*
X2571Y5229D01*
X2574Y5229D01*
Y5243D01*
D02*
G37*
G36*
X3029Y5240D02*
Y5225D01*
X3043D01*
X3042Y5228D01*
X3038Y5235D01*
X3031Y5239D01*
X3029Y5240D01*
D02*
G37*
G36*
X3511Y5475D02*
X3497D01*
X3497Y5473D01*
X3502Y5466D01*
X3508Y5462D01*
X3511Y5461D01*
Y5475D01*
D02*
G37*
G36*
X2414Y5494D02*
X2401D01*
Y5461D01*
X2414D01*
Y5494D01*
D02*
G37*
G36*
X3409Y5471D02*
X3395D01*
Y5457D01*
X3397Y5458D01*
X3404Y5462D01*
X3408Y5469D01*
X3409Y5471D01*
D02*
G37*
G36*
X2200Y5538D02*
X2190Y5536D01*
X2181Y5533D01*
X2173Y5527D01*
X2167Y5519D01*
X2164Y5510D01*
X2162Y5500D01*
X2164Y5490D01*
X2167Y5481D01*
X2173Y5473D01*
X2181Y5467D01*
X2190Y5464D01*
X2200Y5462D01*
X2210Y5464D01*
X2219Y5467D01*
X2227Y5473D01*
X2233Y5481D01*
X2236Y5490D01*
X2238Y5500D01*
X2236Y5510D01*
X2233Y5519D01*
X2227Y5527D01*
X2219Y5533D01*
X2210Y5536D01*
X2200Y5538D01*
D02*
G37*
G36*
X2100D02*
X2090Y5536D01*
X2081Y5533D01*
X2073Y5527D01*
X2067Y5519D01*
X2064Y5510D01*
X2062Y5500D01*
X2064Y5490D01*
X2067Y5481D01*
X2073Y5473D01*
X2081Y5467D01*
X2090Y5464D01*
X2100Y5462D01*
X2110Y5464D01*
X2119Y5467D01*
X2127Y5473D01*
X2133Y5481D01*
X2136Y5490D01*
X2138Y5500D01*
X2136Y5510D01*
X2133Y5519D01*
X2127Y5527D01*
X2119Y5533D01*
X2110Y5536D01*
X2100Y5538D01*
D02*
G37*
G36*
X3535Y5475D02*
X3521D01*
Y5461D01*
X3523Y5462D01*
X3530Y5466D01*
X3534Y5473D01*
X3535Y5475D01*
D02*
G37*
G36*
X3243Y5464D02*
X3229D01*
Y5449D01*
X3232Y5450D01*
X3239Y5454D01*
X3243Y5461D01*
X3243Y5464D01*
D02*
G37*
G36*
X3219D02*
X3205D01*
X3206Y5461D01*
X3210Y5454D01*
X3217Y5450D01*
X3219Y5449D01*
Y5464D01*
D02*
G37*
G36*
X3365Y5464D02*
X3347D01*
Y5446D01*
X3365D01*
Y5464D01*
D02*
G37*
G36*
X3385Y5471D02*
X3371D01*
X3371Y5469D01*
X3376Y5462D01*
X3382Y5458D01*
X3385Y5457D01*
Y5471D01*
D02*
G37*
G36*
X2661D02*
X2647D01*
Y5457D01*
X2649Y5458D01*
X2656Y5462D01*
X2660Y5469D01*
X2661Y5471D01*
D02*
G37*
G36*
X2637D02*
X2623D01*
X2623Y5469D01*
X2628Y5462D01*
X2634Y5458D01*
X2637Y5457D01*
Y5471D01*
D02*
G37*
G36*
X3800Y5538D02*
X3790Y5536D01*
X3781Y5533D01*
X3773Y5527D01*
X3767Y5519D01*
X3764Y5510D01*
X3762Y5500D01*
X3764Y5490D01*
X3767Y5481D01*
X3773Y5473D01*
X3781Y5467D01*
X3790Y5464D01*
X3800Y5462D01*
X3810Y5464D01*
X3819Y5467D01*
X3827Y5473D01*
X3833Y5481D01*
X3836Y5490D01*
X3838Y5500D01*
X3836Y5510D01*
X3833Y5519D01*
X3827Y5527D01*
X3819Y5533D01*
X3810Y5536D01*
X3800Y5538D01*
D02*
G37*
G36*
X3521Y5499D02*
Y5485D01*
X3535D01*
X3534Y5488D01*
X3530Y5495D01*
X3523Y5499D01*
X3521Y5499D01*
D02*
G37*
G36*
X3511D02*
X3508Y5499D01*
X3502Y5495D01*
X3497Y5488D01*
X3497Y5485D01*
X3511D01*
Y5499D01*
D02*
G37*
G36*
X3395Y5495D02*
Y5481D01*
X3409D01*
X3408Y5484D01*
X3404Y5491D01*
X3397Y5495D01*
X3395Y5495D01*
D02*
G37*
G36*
X3030Y5530D02*
X3013D01*
Y5512D01*
X3030D01*
Y5530D01*
D02*
G37*
G36*
X2414Y5537D02*
X2401D01*
Y5504D01*
X2414D01*
Y5537D01*
D02*
G37*
G36*
X3058Y5503D02*
X3013D01*
Y5497D01*
X3008Y5495D01*
X3002Y5499D01*
X2994Y5500D01*
X2987Y5499D01*
X2980Y5495D01*
X2976Y5488D01*
X2974Y5480D01*
X2976Y5473D01*
X2980Y5466D01*
X2982Y5465D01*
Y5415D01*
X2980Y5413D01*
X2976Y5407D01*
X2974Y5399D01*
X2976Y5392D01*
X2980Y5385D01*
X2987Y5381D01*
X2994Y5379D01*
X3002Y5381D01*
X3009Y5385D01*
X3013Y5392D01*
X3015Y5399D01*
X3013Y5407D01*
X3009Y5413D01*
X3007Y5415D01*
Y5452D01*
X3011Y5453D01*
X3013Y5450D01*
X3020Y5446D01*
X3028Y5444D01*
X3035Y5446D01*
X3037Y5447D01*
X3040Y5446D01*
X3047Y5444D01*
X3055Y5446D01*
X3061Y5450D01*
X3066Y5457D01*
X3067Y5465D01*
X3066Y5472D01*
X3061Y5479D01*
X3058Y5481D01*
Y5503D01*
D02*
G37*
G36*
X3229Y5488D02*
Y5474D01*
X3243D01*
X3243Y5476D01*
X3239Y5483D01*
X3232Y5487D01*
X3229Y5488D01*
D02*
G37*
G36*
X3219D02*
X3217Y5487D01*
X3210Y5483D01*
X3206Y5476D01*
X3205Y5474D01*
X3219D01*
Y5488D01*
D02*
G37*
G36*
X3900Y5538D02*
X3890Y5536D01*
X3881Y5533D01*
X3873Y5527D01*
X3867Y5519D01*
X3864Y5510D01*
X3862Y5500D01*
X3864Y5490D01*
X3867Y5481D01*
X3873Y5473D01*
X3881Y5467D01*
X3890Y5464D01*
X3900Y5462D01*
X3910Y5464D01*
X3919Y5467D01*
X3927Y5473D01*
X3933Y5481D01*
X3936Y5490D01*
X3938Y5500D01*
X3936Y5510D01*
X3933Y5519D01*
X3927Y5527D01*
X3919Y5533D01*
X3910Y5536D01*
X3900Y5538D01*
D02*
G37*
G36*
X3385Y5495D02*
X3382Y5495D01*
X3376Y5491D01*
X3371Y5484D01*
X3371Y5481D01*
X3385D01*
Y5495D01*
D02*
G37*
G36*
X2647D02*
Y5481D01*
X2661D01*
X2660Y5484D01*
X2656Y5491D01*
X2649Y5495D01*
X2647Y5495D01*
D02*
G37*
G36*
X2637D02*
X2634Y5495D01*
X2628Y5491D01*
X2623Y5484D01*
X2623Y5481D01*
X2637D01*
Y5495D01*
D02*
G37*
G36*
X3337Y5464D02*
X3320D01*
Y5446D01*
X3337D01*
Y5464D01*
D02*
G37*
G36*
X3021Y5369D02*
Y5355D01*
X3035D01*
X3034Y5358D01*
X3030Y5365D01*
X3023Y5369D01*
X3021Y5369D01*
D02*
G37*
G36*
X3011D02*
X3008Y5369D01*
X3002Y5365D01*
X2997Y5358D01*
X2997Y5355D01*
X3011D01*
Y5369D01*
D02*
G37*
G36*
X3135Y5362D02*
Y5348D01*
X3149D01*
X3148Y5350D01*
X3144Y5357D01*
X3138Y5361D01*
X3135Y5362D01*
D02*
G37*
G36*
X2095Y5395D02*
X2063D01*
X2064Y5390D01*
X2067Y5381D01*
X2073Y5373D01*
X2081Y5367D01*
X2090Y5364D01*
X2095Y5363D01*
Y5395D01*
D02*
G37*
G36*
X3800Y5438D02*
X3790Y5436D01*
X3781Y5433D01*
X3773Y5427D01*
X3767Y5419D01*
X3764Y5410D01*
X3762Y5400D01*
X3764Y5390D01*
X3767Y5381D01*
X3773Y5373D01*
X3781Y5367D01*
X3790Y5364D01*
X3800Y5362D01*
X3810Y5364D01*
X3819Y5367D01*
X3827Y5373D01*
X3833Y5381D01*
X3836Y5390D01*
X3838Y5400D01*
X3836Y5410D01*
X3833Y5419D01*
X3827Y5427D01*
X3819Y5433D01*
X3810Y5436D01*
X3800Y5438D01*
D02*
G37*
G36*
X2200D02*
X2190Y5436D01*
X2181Y5433D01*
X2173Y5427D01*
X2167Y5419D01*
X2164Y5410D01*
X2162Y5400D01*
X2164Y5390D01*
X2167Y5381D01*
X2173Y5373D01*
X2181Y5367D01*
X2190Y5364D01*
X2200Y5362D01*
X2210Y5364D01*
X2219Y5367D01*
X2227Y5373D01*
X2233Y5381D01*
X2236Y5390D01*
X2238Y5400D01*
X2236Y5410D01*
X2233Y5419D01*
X2227Y5427D01*
X2219Y5433D01*
X2210Y5436D01*
X2200Y5438D01*
D02*
G37*
G36*
X3314Y5346D02*
X3269D01*
Y5341D01*
X3268Y5341D01*
X3261Y5337D01*
X3260Y5335D01*
X3212D01*
X3211Y5337D01*
X3205Y5341D01*
X3197Y5343D01*
X3189Y5341D01*
X3183Y5337D01*
X3178Y5331D01*
X3177Y5323D01*
X3178Y5315D01*
X3183Y5309D01*
X3189Y5304D01*
X3197Y5303D01*
X3205Y5304D01*
X3211Y5309D01*
X3212Y5311D01*
X3260D01*
X3261Y5309D01*
X3268Y5304D01*
X3269Y5304D01*
Y5300D01*
D01*
X3269D01*
D01*
D01*
D01*
Y5300D01*
Y5300D01*
Y5299D01*
X3264Y5298D01*
X3257Y5294D01*
X3253Y5287D01*
X3252Y5280D01*
X3253Y5272D01*
X3257Y5265D01*
X3264Y5261D01*
X3269Y5260D01*
Y5245D01*
X3314D01*
Y5291D01*
X3288D01*
X3286Y5294D01*
X3284Y5295D01*
X3285Y5300D01*
X3314D01*
Y5346D01*
D02*
G37*
G36*
X3035Y5345D02*
X3021D01*
Y5331D01*
X3023Y5332D01*
X3030Y5336D01*
X3034Y5343D01*
X3035Y5345D01*
D02*
G37*
G36*
X3011D02*
X2997D01*
X2997Y5343D01*
X3002Y5336D01*
X3008Y5332D01*
X3011Y5331D01*
Y5345D01*
D02*
G37*
G36*
X3125Y5362D02*
X3122Y5361D01*
X3116Y5357D01*
X3111Y5350D01*
X3111Y5348D01*
X3125D01*
Y5362D01*
D02*
G37*
G36*
X2926Y5358D02*
Y5344D01*
X2940D01*
X2940Y5346D01*
X2935Y5353D01*
X2929Y5357D01*
X2926Y5358D01*
D02*
G37*
G36*
X2881D02*
X2878Y5357D01*
X2873Y5354D01*
X2870D01*
Y5351D01*
X2867Y5346D01*
X2867Y5344D01*
X2881D01*
Y5358D01*
D02*
G37*
G36*
X2137Y5395D02*
X2105D01*
Y5363D01*
X2110Y5364D01*
X2119Y5367D01*
X2127Y5373D01*
X2133Y5381D01*
X2136Y5390D01*
X2137Y5395D01*
D02*
G37*
G36*
X3905Y5437D02*
Y5405D01*
X3937D01*
X3936Y5410D01*
X3933Y5419D01*
X3927Y5427D01*
X3919Y5433D01*
X3910Y5436D01*
X3905Y5437D01*
D02*
G37*
G36*
X3895D02*
X3890Y5436D01*
X3881Y5433D01*
X3873Y5427D01*
X3867Y5419D01*
X3864Y5410D01*
X3863Y5405D01*
X3895D01*
Y5437D01*
D02*
G37*
G36*
X2105D02*
Y5405D01*
X2137D01*
X2136Y5410D01*
X2133Y5419D01*
X2127Y5427D01*
X2119Y5433D01*
X2110Y5436D01*
X2105Y5437D01*
D02*
G37*
G36*
X3365Y5436D02*
X3347D01*
Y5418D01*
X3365D01*
Y5436D01*
D02*
G37*
G36*
X3337D02*
X3320D01*
Y5418D01*
X3337D01*
Y5436D01*
D02*
G37*
G36*
X3310Y5464D02*
X3265D01*
Y5460D01*
X3264Y5459D01*
X3257Y5455D01*
X3253Y5449D01*
X3252Y5441D01*
X3253Y5433D01*
X3257Y5427D01*
X3264Y5422D01*
X3265Y5422D01*
Y5418D01*
X3310D01*
Y5464D01*
D02*
G37*
G36*
X2858Y5465D02*
X2851Y5463D01*
X2844Y5459D01*
X2840Y5453D01*
X2839Y5449D01*
X2830D01*
Y5437D01*
X2827Y5436D01*
X2820Y5432D01*
X2816Y5425D01*
X2815Y5417D01*
X2816Y5410D01*
X2820Y5403D01*
X2827Y5399D01*
X2830Y5398D01*
Y5383D01*
X2886D01*
Y5449D01*
X2878D01*
X2877Y5453D01*
X2872Y5459D01*
X2866Y5463D01*
X2858Y5465D01*
D02*
G37*
G36*
X3937Y5395D02*
X3905D01*
Y5363D01*
X3910Y5364D01*
X3919Y5367D01*
X3927Y5373D01*
X3933Y5381D01*
X3936Y5390D01*
X3937Y5395D01*
D02*
G37*
G36*
X3895D02*
X3863D01*
X3864Y5390D01*
X3867Y5381D01*
X3873Y5373D01*
X3881Y5367D01*
X3890Y5364D01*
X3895Y5363D01*
Y5395D01*
D02*
G37*
G36*
X2095Y5437D02*
X2090Y5436D01*
X2081Y5433D01*
X2073Y5427D01*
X2067Y5419D01*
X2064Y5410D01*
X2063Y5405D01*
X2095D01*
Y5437D01*
D02*
G37*
G36*
X2393Y5420D02*
X2375D01*
Y5402D01*
X2393D01*
Y5420D01*
D02*
G37*
G36*
X2365D02*
X2347D01*
Y5402D01*
X2365D01*
Y5420D01*
D02*
G37*
%LPD*%
D10*
X2424Y5882D02*
G03*
X2424Y5882I-5J0D01*
G01*
D11*
X2445Y5879D02*
G03*
X2391Y5878I-27J6D01*
G01*
D12*
X2917Y5680D02*
D03*
Y5850D02*
D03*
D14*
X2887Y4705D02*
D03*
Y4655D02*
D03*
Y4605D02*
D03*
X2682Y4755D02*
D03*
Y4705D02*
D03*
Y4655D02*
D03*
Y4605D02*
D03*
X2887Y4755D02*
D03*
D19*
X2418Y5866D02*
D03*
D20*
Y5923D02*
D03*
D21*
X2744Y5146D02*
D03*
X2689D02*
D03*
X3346Y5323D02*
D03*
X3291D02*
D03*
X2744Y5087D02*
D03*
X2689D02*
D03*
X2969Y5201D02*
D03*
X3024D02*
D03*
X2157Y5961D02*
D03*
X2102D02*
D03*
X2689Y5008D02*
D03*
X2744D02*
D03*
X3291Y5268D02*
D03*
X3346D02*
D03*
X3283Y4902D02*
D03*
X3228D02*
D03*
X3287Y5441D02*
D03*
X3342D02*
D03*
X3268Y5091D02*
D03*
X3323D02*
D03*
X2681Y4843D02*
D03*
X2736D02*
D03*
D22*
X3035Y5480D02*
D03*
Y5535D02*
D03*
X2996Y4953D02*
D03*
Y4898D02*
D03*
X2370Y5370D02*
D03*
Y5425D02*
D03*
X3902Y5933D02*
D03*
Y5988D02*
D03*
X3799Y5933D02*
D03*
Y5988D02*
D03*
Y6075D02*
D03*
Y6130D02*
D03*
X3902Y6075D02*
D03*
Y6130D02*
D03*
X2580Y5432D02*
D03*
Y5378D02*
D03*
X3374Y5004D02*
D03*
Y4949D02*
D03*
Y4890D02*
D03*
Y4835D02*
D03*
X3051Y4953D02*
D03*
Y4898D02*
D03*
D23*
X2887Y4755D02*
X2916D01*
X2937Y4776D02*
X2945D01*
X2916Y4755D02*
X2937Y4776D01*
X2421Y5921D02*
Y5929D01*
X2500Y5976D02*
Y6000D01*
X2417Y5933D02*
X2421Y5929D01*
X2417Y5933D02*
X2484Y6000D01*
X2500D01*
Y5987D02*
Y6000D01*
X3157Y6039D02*
X3201Y5996D01*
X3157Y6039D02*
Y6146D01*
X3189Y6177D01*
X3835D01*
X3850Y6161D01*
Y6094D02*
Y6161D01*
Y6094D02*
X3870Y6075D01*
X3902D01*
X3209Y6106D02*
X3248Y6146D01*
X3728D01*
X3799Y6075D01*
X3256Y5957D02*
Y6067D01*
Y5957D02*
X3306Y5906D01*
X3256Y6067D02*
X3291Y6102D01*
X3306Y5906D02*
X3819D01*
X3846Y5933D01*
X3902D01*
X3354D02*
X3799D01*
X3303Y5984D02*
X3354Y5933D01*
X2919Y4605D02*
X2933Y4591D01*
X2887Y4605D02*
X2919D01*
X2730Y4655D02*
X2744Y4669D01*
X2682Y4655D02*
X2730D01*
X2610Y4587D02*
X2614D01*
X2633Y4605D01*
X2682D01*
X2776Y4727D02*
X2848Y4655D01*
X2887D01*
X2682Y4705D02*
X2775D01*
X2799Y4681D01*
X2838Y4705D02*
X2887D01*
X2819Y4724D02*
X2838Y4705D01*
X2799Y4665D02*
Y4681D01*
X2370Y5480D02*
X2390Y5500D01*
X2370Y5425D02*
Y5480D01*
X2360Y5365D02*
X2480D01*
X2343Y5366D02*
X2370D01*
X2360Y5365D02*
X2370Y5370D01*
X2321Y5388D02*
X2343Y5366D01*
X2321Y5388D02*
Y5499D01*
X2575Y5382D02*
X2579D01*
X2555D02*
X2575D01*
X2500Y5437D02*
X2555Y5382D01*
X2484Y5437D02*
X2500D01*
X2558Y5365D02*
X2575Y5382D01*
X2480Y5365D02*
X2558D01*
X2327Y4980D02*
X2331Y4976D01*
X2501Y6001D02*
X2503D01*
X2994Y5399D02*
Y5480D01*
X2760Y5146D02*
X2839D01*
X2996Y4969D02*
Y5047D01*
X3197Y5323D02*
X3276D01*
X3276Y5323D01*
X2800Y4300D02*
Y4305D01*
D24*
X2638Y5289D02*
X2750D01*
X2752Y5291D01*
X2642Y5228D02*
X2787D01*
X2626Y5213D02*
X2642Y5228D01*
X2787D02*
X2815Y5201D01*
X2818Y5301D02*
X2871Y5248D01*
X2874D02*
X2913Y5209D01*
X2902Y5201D02*
X2969D01*
X2871Y5248D02*
X2874D01*
X2818Y5301D02*
Y5316D01*
D25*
X2418Y5861D02*
Y5877D01*
X2418Y5878D02*
X2418Y5877D01*
Y5861D02*
X2421Y5858D01*
Y5846D02*
Y5858D01*
Y5846D02*
X2425Y5843D01*
X2399Y6095D02*
X2406Y6102D01*
X2300Y5880D02*
Y5969D01*
X3193Y5000D02*
X3291Y4902D01*
X3193Y5000D02*
Y5008D01*
X2917Y5850D02*
X2925Y5854D01*
X2476Y5850D02*
X2772D01*
X2476Y5850D02*
X2476Y5850D01*
X2772D02*
X2921D01*
X2425Y5839D02*
Y5843D01*
X2315Y5795D02*
X2319Y5791D01*
X2350Y5760D02*
X2772D01*
X2319Y5791D02*
X2350Y5760D01*
X2772D02*
X2776Y5764D01*
X2921Y5850D02*
X2925Y5854D01*
X2799Y5681D02*
X2909D01*
X3100Y5872D01*
Y6000D01*
X2102Y5799D02*
Y5961D01*
X2102Y5799D02*
X2102Y5799D01*
X2760Y5102D02*
Y5106D01*
X2744Y5087D02*
X2760Y5102D01*
X2835Y5024D02*
X2839D01*
X2682Y4871D02*
X2835Y5024D01*
X2682Y4755D02*
Y4871D01*
X2512Y5583D02*
Y5606D01*
X2484Y5555D02*
X2512Y5583D01*
X2457Y5555D02*
X2484D01*
X2457D02*
X2488Y5524D01*
X2440Y5572D02*
X2457Y5555D01*
X2358Y5572D02*
X2440D01*
X2484Y5500D02*
X2524D01*
X2583Y5437D02*
Y5441D01*
X2524Y5500D02*
X2583Y5441D01*
X2039Y6154D02*
X2075Y6118D01*
X2075D02*
X2075D01*
X3291Y4807D02*
Y4902D01*
X3396Y4787D02*
X3513D01*
X3500Y4800D02*
X3513Y4787D01*
X3291Y4807D02*
X3322Y4776D01*
X3385D01*
X3396Y4787D01*
X3513D02*
X3549Y4751D01*
X2327Y4976D02*
Y4980D01*
Y5073D01*
X2200Y5200D02*
X2327Y5073D01*
X3549Y4751D02*
X3751D01*
X3800Y4800D01*
X3751Y4849D02*
X3800Y4800D01*
X3751Y4849D02*
Y5251D01*
X3800Y5300D01*
X2480Y5500D02*
Y5512D01*
X2160Y5950D02*
Y5965D01*
X2789Y5669D02*
X2800Y5681D01*
X2160Y5950D02*
X2315Y5795D01*
X2035Y6055D02*
Y6063D01*
Y6114D01*
X2079Y6161D02*
X2118D01*
X2035Y6114D02*
Y6154D01*
X2043Y6161D02*
X2079D01*
X2035Y6154D02*
X2043Y6161D01*
X2079Y6110D02*
Y6161D01*
X2051Y6110D02*
X2079D01*
X2047Y6114D02*
X2051Y6110D01*
X2039Y6154D02*
Y6165D01*
D28*
X2311Y5883D02*
D03*
X3500Y4600D02*
D03*
X3600Y4700D02*
D03*
X3500D02*
D03*
X3600Y4800D02*
D03*
X3500D02*
D03*
X3600Y4900D02*
D03*
X3500D02*
D03*
X3600Y5000D02*
D03*
X3500D02*
D03*
X3600Y6000D02*
D03*
X3500Y6100D02*
D03*
Y6000D02*
D03*
X3400Y6100D02*
D03*
Y6000D02*
D03*
X3300Y6100D02*
D03*
Y6000D02*
D03*
X3200Y6100D02*
D03*
Y6000D02*
D03*
X3100Y6100D02*
D03*
Y6000D02*
D03*
X3000Y6100D02*
D03*
Y6000D02*
D03*
X2900Y6100D02*
D03*
Y6000D02*
D03*
X2800Y6100D02*
D03*
Y6000D02*
D03*
X2700Y6100D02*
D03*
Y6000D02*
D03*
X2600Y6100D02*
D03*
Y6000D02*
D03*
X2500Y6100D02*
D03*
Y6000D02*
D03*
X2400Y6100D02*
D03*
Y6000D02*
D03*
X2200Y5800D02*
D03*
X2100Y5700D02*
D03*
X2200D02*
D03*
X2100Y5600D02*
D03*
X2200D02*
D03*
X2100Y5500D02*
D03*
X2200D02*
D03*
X2100Y5400D02*
D03*
X2200D02*
D03*
X2100Y5300D02*
D03*
X2200D02*
D03*
X2100Y5200D02*
D03*
X2200D02*
D03*
X2100Y5100D02*
D03*
X2200D02*
D03*
X2100Y5000D02*
D03*
X2200D02*
D03*
X2100Y4900D02*
D03*
X2200D02*
D03*
X2100Y4800D02*
D03*
X2200D02*
D03*
X2100Y4700D02*
D03*
X2200D02*
D03*
X2100Y4600D02*
D03*
X2200D02*
D03*
X3600Y4400D02*
D03*
Y4300D02*
D03*
X3500Y4400D02*
D03*
Y4300D02*
D03*
X3400Y4400D02*
D03*
Y4300D02*
D03*
X3300Y4400D02*
D03*
Y4300D02*
D03*
X3200Y4400D02*
D03*
Y4300D02*
D03*
X3100Y4400D02*
D03*
Y4300D02*
D03*
X3000Y4400D02*
D03*
Y4300D02*
D03*
X2900Y4400D02*
D03*
Y4300D02*
D03*
X2800Y4400D02*
D03*
Y4300D02*
D03*
X2700Y4400D02*
D03*
Y4300D02*
D03*
X2600Y4400D02*
D03*
Y4300D02*
D03*
X2500Y4400D02*
D03*
Y4300D02*
D03*
X2400Y4400D02*
D03*
X3800Y5800D02*
D03*
X3900D02*
D03*
X3800Y5700D02*
D03*
X3900D02*
D03*
X3800Y5600D02*
D03*
X3900D02*
D03*
X3800Y5500D02*
D03*
X3900D02*
D03*
X3800Y5400D02*
D03*
X3900D02*
D03*
X3800Y5300D02*
D03*
X3900D02*
D03*
X3800Y5200D02*
D03*
X3900D02*
D03*
X3800Y5100D02*
D03*
X3900D02*
D03*
X3800Y5000D02*
D03*
X3900D02*
D03*
X3800Y4900D02*
D03*
X3900D02*
D03*
X3800Y4800D02*
D03*
X3900D02*
D03*
X3800Y4700D02*
D03*
X3900D02*
D03*
X3800Y4600D02*
D03*
D29*
X2311Y5783D02*
D03*
X3600Y4600D02*
D03*
X2100Y5800D02*
D03*
X3900Y4600D02*
D03*
D30*
X3600Y6100D02*
D03*
X2400Y4300D02*
D03*
D31*
X2839Y5311D02*
D03*
X2760Y5303D02*
D03*
X2579Y5248D02*
D03*
X2626Y5303D02*
D03*
X3016Y5350D02*
D03*
X3516Y5480D02*
D03*
X3575Y5854D02*
D03*
X3287Y5579D02*
D03*
X3024Y5106D02*
D03*
X3130Y5343D02*
D03*
X3138Y5228D02*
D03*
X3224Y5469D02*
D03*
X3138Y5106D02*
D03*
X3228Y5886D02*
D03*
X3425Y5717D02*
D03*
X2744Y5559D02*
D03*
X2283Y6165D02*
D03*
X3949Y4248D02*
D03*
X2035Y4461D02*
D03*
X3673Y5638D02*
D03*
X3106Y5689D02*
D03*
X3024Y5220D02*
D03*
X3508Y5642D02*
D03*
X3819Y4429D02*
D03*
X3539Y4528D02*
D03*
X2921Y5106D02*
D03*
X2425Y4736D02*
D03*
X3957Y4437D02*
D03*
X2291Y4248D02*
D03*
X2031Y4244D02*
D03*
X3780Y4240D02*
D03*
X2598Y4780D02*
D03*
X3024Y5181D02*
D03*
X3669Y4413D02*
D03*
X2358Y5193D02*
D03*
X2626Y5118D02*
D03*
X2512Y5008D02*
D03*
X2945Y4776D02*
D03*
X3043Y4976D02*
D03*
X3008Y4846D02*
D03*
X2520Y5850D02*
D03*
X2480D02*
D03*
X2425Y5839D02*
D03*
X3366Y4587D02*
D03*
Y4634D02*
D03*
Y4685D02*
D03*
Y4736D02*
D03*
X2886Y5339D02*
D03*
X2921D02*
D03*
Y5283D02*
D03*
X2886D02*
D03*
X3047Y5465D02*
D03*
X3028D02*
D03*
X3272Y5441D02*
D03*
Y5280D02*
D03*
X3248Y5091D02*
D03*
X2764Y5110D02*
D03*
Y5008D02*
D03*
X2839Y5024D02*
D03*
X2933Y4591D02*
D03*
X2744Y4665D02*
D03*
X2610Y4587D02*
D03*
X2819Y4724D02*
D03*
X2764Y4732D02*
D03*
X2799Y4665D02*
D03*
X2642Y5476D02*
D03*
X2650Y4953D02*
D03*
X3394Y4961D02*
D03*
X3402Y5303D02*
D03*
X3390Y5476D02*
D03*
X3016Y5610D02*
D03*
X2994Y5399D02*
D03*
Y5480D02*
D03*
X2248Y6114D02*
D03*
X2193Y6161D02*
D03*
X2512Y5606D02*
D03*
X2075Y6118D02*
D03*
X3205Y4984D02*
D03*
X3181D02*
D03*
X3205Y5008D02*
D03*
X3181D02*
D03*
X3394Y4898D02*
D03*
X2331Y5000D02*
D03*
X2839Y5343D02*
D03*
Y5283D02*
D03*
X2835Y5417D02*
D03*
X2858Y5445D02*
D03*
X2760Y5205D02*
D03*
X2839Y5146D02*
D03*
X2760D02*
D03*
X2996Y5047D02*
D03*
Y4969D02*
D03*
X3197Y5323D02*
D03*
X3276Y5323D02*
D03*
X3398Y5008D02*
D03*
X2433Y5000D02*
D03*
Y4976D02*
D03*
X2035Y6063D02*
D03*
Y6114D02*
D03*
X2079Y6161D02*
D03*
X2252Y5996D02*
D03*
Y5945D02*
D03*
X2331Y4976D02*
D03*
X2484Y5437D02*
D03*
X3898Y6000D02*
D03*
X3799Y6004D02*
D03*
X3898Y6146D02*
D03*
X3799D02*
D03*
X3300Y4900D02*
D03*
X2035Y6161D02*
D03*
D32*
X2303Y5976D02*
D03*
D33*
X2480Y5500D02*
D03*
Y5365D02*
D03*
D34*
X2858Y5416D02*
D03*
D35*
X2898Y5316D02*
D03*
X2818D02*
D03*
D36*
X2772Y5850D02*
D03*
Y5669D02*
D03*
D37*
Y5760D02*
D03*
D38*
X2528D02*
D03*
D39*
X2396Y5499D02*
D03*
X2321D02*
D03*
X2358Y5572D02*
D03*
D40*
X2638Y5215D02*
D03*
Y5289D02*
D03*
D41*
X2752Y5226D02*
D03*
Y5293D02*
D03*
X2701Y5226D02*
D03*
Y5293D02*
D03*
D42*
X2902Y5201D02*
D03*
X2815D02*
D03*
M02*
