%FSLAX23Y23*%
%MOIN*%
G70*
G01*
G75*
G04 Layer_Color=8388736*
%ADD10C,0.012*%
%ADD11C,0.014*%
%ADD12R,0.118X0.073*%
%ADD13R,0.031X0.031*%
%ADD14R,0.087X0.024*%
%ADD15R,0.087X0.024*%
%ADD16O,0.010X0.080*%
%ADD17O,0.080X0.010*%
%ADD18R,0.079X0.047*%
%ADD19R,0.014X0.014*%
%ADD20R,0.020X0.020*%
%ADD21R,0.030X0.030*%
%ADD22R,0.030X0.030*%
%ADD23C,0.008*%
%ADD24C,0.031*%
%ADD25C,0.024*%
%ADD26C,0.020*%
%ADD27C,0.016*%
%ADD28C,0.059*%
%ADD29R,0.059X0.059*%
%ADD30R,0.059X0.059*%
%ADD31C,0.024*%
%ADD32C,0.030*%
%ADD33R,0.060X0.060*%
%ADD34R,0.040X0.050*%
%ADD35R,0.040X0.060*%
%ADD36R,0.085X0.043*%
%ADD37R,0.085X0.043*%
%ADD38R,0.085X0.138*%
%ADD39R,0.022X0.061*%
%ADD40R,0.059X0.051*%
%ADD41R,0.039X0.043*%
%ADD42R,0.059X0.057*%
%ADD43C,0.010*%
%ADD44C,0.010*%
%ADD45C,0.008*%
%ADD46C,0.004*%
%ADD47C,0.005*%
%ADD48C,0.006*%
%ADD49C,0.012*%
%ADD50C,0.006*%
%ADD51C,0.031*%
%ADD52C,0.016*%
%ADD53R,0.126X0.081*%
%ADD54R,0.039X0.039*%
%ADD55R,0.095X0.032*%
%ADD56R,0.095X0.032*%
%ADD57O,0.018X0.088*%
%ADD58O,0.088X0.018*%
%ADD59R,0.087X0.055*%
%ADD60R,0.038X0.038*%
%ADD61R,0.038X0.038*%
%ADD62C,0.067*%
%ADD63R,0.067X0.067*%
%ADD64R,0.067X0.067*%
%ADD65C,0.032*%
D19*
X2302Y6015D02*
D03*
X3347Y4524D02*
D03*
D20*
X2302Y6073D02*
D03*
X3347Y4466D02*
D03*
D51*
X2313Y6037D02*
G03*
X2313Y6037I-11J0D01*
G01*
X3358Y4502D02*
G03*
X3358Y4502I-11J0D01*
G01*
D52*
X2330Y6027D02*
G03*
X2275Y6028I-27J7D01*
G01*
X3320Y4512D02*
G03*
X3375Y4511I27J-7D01*
G01*
D53*
X2512Y5645D02*
D03*
Y5814D02*
D03*
D54*
X3900Y6130D02*
D03*
Y6070D02*
D03*
Y5990D02*
D03*
Y5930D02*
D03*
X3800Y5990D02*
D03*
Y5930D02*
D03*
Y6130D02*
D03*
Y6070D02*
D03*
D55*
X3322Y4635D02*
D03*
Y4685D02*
D03*
Y4735D02*
D03*
X3118Y4585D02*
D03*
Y4635D02*
D03*
Y4685D02*
D03*
Y4735D02*
D03*
D56*
X3322Y4585D02*
D03*
D57*
X2779Y5539D02*
D03*
X2798Y5539D02*
D03*
X2818D02*
D03*
X2838Y5539D02*
D03*
X2857Y5539D02*
D03*
X2877Y5539D02*
D03*
X2897Y5539D02*
D03*
X2917D02*
D03*
X2936D02*
D03*
X2956D02*
D03*
X2976D02*
D03*
X2995D02*
D03*
X3015D02*
D03*
X3035D02*
D03*
X3054D02*
D03*
X3074D02*
D03*
X3094D02*
D03*
X3113D02*
D03*
X3133D02*
D03*
X3153D02*
D03*
X3172D02*
D03*
X3192D02*
D03*
X3212D02*
D03*
X3231D02*
D03*
X3251D02*
D03*
Y4909D02*
D03*
X3231D02*
D03*
X3212D02*
D03*
X3192D02*
D03*
X3172D02*
D03*
X3153D02*
D03*
X3133D02*
D03*
X3113D02*
D03*
X3094D02*
D03*
X3074D02*
D03*
X3054D02*
D03*
X3035D02*
D03*
X3015D02*
D03*
X2995D02*
D03*
X2976D02*
D03*
X2956D02*
D03*
X2936Y4909D02*
D03*
X2917D02*
D03*
X2897D02*
D03*
X2877D02*
D03*
X2857Y4909D02*
D03*
X2838D02*
D03*
X2818Y4909D02*
D03*
X2798D02*
D03*
X2779Y4909D02*
D03*
D58*
X3330Y5460D02*
D03*
Y5440D02*
D03*
Y5421D02*
D03*
Y5401D02*
D03*
Y5381D02*
D03*
Y5362D02*
D03*
Y5342D02*
D03*
Y5322D02*
D03*
Y5303D02*
D03*
Y5283D02*
D03*
Y5263D02*
D03*
Y5243D02*
D03*
Y5224D02*
D03*
Y5204D02*
D03*
Y5184D02*
D03*
Y5165D02*
D03*
X3330Y5145D02*
D03*
X3330Y5125D02*
D03*
Y5106D02*
D03*
Y5066D02*
D03*
Y5047D02*
D03*
Y5027D02*
D03*
Y5007D02*
D03*
Y4988D02*
D03*
X2700D02*
D03*
Y5007D02*
D03*
Y5027D02*
D03*
Y5047D02*
D03*
Y5066D02*
D03*
Y5086D02*
D03*
Y5106D02*
D03*
Y5125D02*
D03*
Y5145D02*
D03*
Y5165D02*
D03*
Y5184D02*
D03*
Y5204D02*
D03*
Y5224D02*
D03*
Y5243D02*
D03*
Y5263D02*
D03*
Y5283D02*
D03*
Y5303D02*
D03*
Y5322D02*
D03*
Y5342D02*
D03*
Y5362D02*
D03*
Y5381D02*
D03*
Y5401D02*
D03*
Y5421D02*
D03*
Y5440D02*
D03*
Y5460D02*
D03*
X3330Y5086D02*
D03*
D59*
X2444Y5058D02*
D03*
X2334D02*
D03*
X2444Y5128D02*
D03*
X2334D02*
D03*
D60*
X2417Y4984D02*
D03*
X2362D02*
D03*
X2441Y5193D02*
D03*
X2496D02*
D03*
D61*
X2531Y5114D02*
D03*
Y5059D02*
D03*
X3689Y4524D02*
D03*
Y4469D02*
D03*
D62*
X2311Y5883D02*
D03*
X3500Y4600D02*
D03*
X3600Y4700D02*
D03*
X3500D02*
D03*
X3600Y4800D02*
D03*
X3500D02*
D03*
X3600Y4900D02*
D03*
X3500D02*
D03*
X3600Y5000D02*
D03*
X3500D02*
D03*
X3600Y6000D02*
D03*
X3500Y6100D02*
D03*
Y6000D02*
D03*
X3400Y6100D02*
D03*
Y6000D02*
D03*
X3300Y6100D02*
D03*
Y6000D02*
D03*
X3200Y6100D02*
D03*
Y6000D02*
D03*
X3100Y6100D02*
D03*
Y6000D02*
D03*
X3000Y6100D02*
D03*
Y6000D02*
D03*
X2900Y6100D02*
D03*
Y6000D02*
D03*
X2800Y6100D02*
D03*
Y6000D02*
D03*
X2700Y6100D02*
D03*
Y6000D02*
D03*
X2600Y6100D02*
D03*
Y6000D02*
D03*
X2500Y6100D02*
D03*
Y6000D02*
D03*
X2400Y6100D02*
D03*
Y6000D02*
D03*
X2200Y5800D02*
D03*
X2100Y5700D02*
D03*
X2200D02*
D03*
X2100Y5600D02*
D03*
X2200D02*
D03*
X2100Y5500D02*
D03*
X2200D02*
D03*
X2100Y5400D02*
D03*
X2200D02*
D03*
X2100Y5300D02*
D03*
X2200D02*
D03*
X2100Y5200D02*
D03*
X2200D02*
D03*
X2100Y5100D02*
D03*
X2200D02*
D03*
X2100Y5000D02*
D03*
X2200D02*
D03*
X2100Y4900D02*
D03*
X2200D02*
D03*
X2100Y4800D02*
D03*
X2200D02*
D03*
X2100Y4700D02*
D03*
X2200D02*
D03*
X2100Y4600D02*
D03*
X2200D02*
D03*
X3600Y4400D02*
D03*
Y4300D02*
D03*
X3500Y4400D02*
D03*
Y4300D02*
D03*
X3400Y4400D02*
D03*
Y4300D02*
D03*
X3300Y4400D02*
D03*
Y4300D02*
D03*
X3200Y4400D02*
D03*
Y4300D02*
D03*
X3100Y4400D02*
D03*
Y4300D02*
D03*
X3000Y4400D02*
D03*
Y4300D02*
D03*
X2900Y4400D02*
D03*
Y4300D02*
D03*
X2800Y4400D02*
D03*
Y4300D02*
D03*
X2700Y4400D02*
D03*
Y4300D02*
D03*
X2600Y4400D02*
D03*
Y4300D02*
D03*
X2500Y4400D02*
D03*
Y4300D02*
D03*
X2400Y4400D02*
D03*
X3800Y5800D02*
D03*
X3900D02*
D03*
X3800Y5700D02*
D03*
X3900D02*
D03*
X3800Y5600D02*
D03*
X3900D02*
D03*
X3800Y5500D02*
D03*
X3900D02*
D03*
X3800Y5400D02*
D03*
X3900D02*
D03*
X3800Y5300D02*
D03*
X3900D02*
D03*
X3800Y5200D02*
D03*
X3900D02*
D03*
X3800Y5100D02*
D03*
X3900D02*
D03*
X3800Y5000D02*
D03*
X3900D02*
D03*
X3800Y4900D02*
D03*
X3900D02*
D03*
X3800Y4800D02*
D03*
X3900D02*
D03*
X3800Y4700D02*
D03*
X3900D02*
D03*
X3800Y4600D02*
D03*
D63*
X2311Y5783D02*
D03*
X3600Y4600D02*
D03*
X2100Y5800D02*
D03*
X3900Y4600D02*
D03*
D64*
X3600Y6100D02*
D03*
X2400Y4300D02*
D03*
D65*
X2945Y4776D02*
D03*
X2520Y5850D02*
D03*
X2480D02*
D03*
X2425Y5839D02*
D03*
M02*
