%FSLAX23Y23*%
%MOIN*%
G70*
G01*
G75*
G04 Layer_Color=8388736*
%ADD10C,0.012*%
%ADD11C,0.014*%
%ADD12R,0.118X0.073*%
%ADD13R,0.031X0.031*%
%ADD14R,0.087X0.024*%
%ADD15R,0.087X0.024*%
%ADD16O,0.010X0.080*%
%ADD17O,0.080X0.010*%
%ADD18R,0.079X0.047*%
%ADD19R,0.014X0.014*%
%ADD20R,0.020X0.020*%
%ADD21R,0.030X0.030*%
%ADD22R,0.030X0.030*%
%ADD23C,0.008*%
%ADD24C,0.031*%
%ADD25C,0.024*%
%ADD26C,0.020*%
%ADD27C,0.016*%
%ADD28C,0.059*%
%ADD29R,0.059X0.059*%
%ADD30R,0.059X0.059*%
%ADD31C,0.024*%
%ADD32C,0.030*%
%ADD33R,0.060X0.060*%
%ADD34R,0.040X0.050*%
%ADD35R,0.040X0.060*%
%ADD36R,0.085X0.043*%
%ADD37R,0.085X0.043*%
%ADD38R,0.085X0.138*%
%ADD39R,0.022X0.061*%
%ADD40R,0.059X0.051*%
%ADD41R,0.039X0.043*%
%ADD42R,0.059X0.057*%
%ADD43C,0.010*%
%ADD44C,0.010*%
%ADD45C,0.008*%
%ADD46C,0.004*%
%ADD47C,0.005*%
%ADD48C,0.006*%
%ADD49C,0.012*%
%ADD50C,0.006*%
%ADD51C,0.031*%
%ADD52C,0.016*%
%ADD53R,0.126X0.081*%
%ADD54R,0.039X0.039*%
%ADD55R,0.095X0.032*%
%ADD56R,0.095X0.032*%
%ADD57O,0.018X0.088*%
%ADD58O,0.088X0.018*%
%ADD59R,0.087X0.055*%
%ADD60R,0.038X0.038*%
%ADD61R,0.038X0.038*%
%ADD62C,0.067*%
%ADD63R,0.067X0.067*%
%ADD64R,0.067X0.067*%
%ADD65C,0.032*%
%ADD66R,0.068X0.068*%
%ADD67R,0.048X0.058*%
%ADD68R,0.048X0.068*%
%ADD69R,0.093X0.051*%
%ADD70R,0.093X0.051*%
%ADD71R,0.093X0.146*%
%ADD72R,0.030X0.069*%
%ADD73R,0.067X0.059*%
%ADD74R,0.047X0.051*%
%ADD75R,0.067X0.065*%
%ADD76C,0.006*%
D44*
X1833Y4201D02*
X1985D01*
X1833Y6201D02*
X1985D01*
X1843Y4201D02*
Y5029D01*
Y5341D02*
Y6201D01*
Y4201D02*
X1863Y4261D01*
X1823D02*
X1843Y4201D01*
X1823Y6141D02*
X1843Y6201D01*
X1863Y6141D01*
X4000Y4002D02*
Y4186D01*
X2000Y4002D02*
Y4186D01*
X3200Y4012D02*
X4000D01*
X2000D02*
X2768D01*
X3940Y4032D02*
X4000Y4012D01*
X3940Y3992D02*
X4000Y4012D01*
X2000D02*
X2060Y3992D01*
X2000Y4012D02*
X2060Y4032D01*
D76*
X1829Y5085D02*
Y5045D01*
X1859D01*
X1849Y5065D01*
Y5075D01*
X1859Y5085D01*
X1879D01*
X1889Y5075D01*
Y5055D01*
X1879Y5045D01*
X1839Y5105D02*
X1829Y5115D01*
Y5135D01*
X1839Y5145D01*
X1879D01*
X1889Y5135D01*
Y5115D01*
X1879Y5105D01*
X1839D01*
X1899Y5175D02*
X1889Y5185D01*
X1879D01*
Y5175D01*
X1889D01*
Y5185D01*
X1899Y5175D01*
X1908Y5165D01*
X1839Y5225D02*
X1829Y5235D01*
Y5255D01*
X1839Y5265D01*
X1849D01*
X1859Y5255D01*
X1869Y5265D01*
X1879D01*
X1889Y5255D01*
Y5235D01*
X1879Y5225D01*
X1869D01*
X1859Y5235D01*
X1849Y5225D01*
X1839D01*
X1859Y5235D02*
Y5255D01*
X1839Y5285D02*
X1829Y5295D01*
Y5315D01*
X1839Y5325D01*
X1879D01*
X1889Y5315D01*
Y5295D01*
X1879Y5285D01*
X1839D01*
X2824Y3966D02*
X2784D01*
X2824Y4006D01*
Y4016D01*
X2814Y4026D01*
X2794D01*
X2784Y4016D01*
X2844D02*
X2854Y4026D01*
X2874D01*
X2884Y4016D01*
Y3976D01*
X2874Y3966D01*
X2854D01*
X2844Y3976D01*
Y4016D01*
X2904D02*
X2914Y4026D01*
X2934D01*
X2944Y4016D01*
Y3976D01*
X2934Y3966D01*
X2914D01*
X2904Y3976D01*
Y4016D01*
X2964D02*
X2974Y4026D01*
X2994D01*
X3004Y4016D01*
Y3976D01*
X2994Y3966D01*
X2974D01*
X2964Y3976D01*
Y4016D01*
X3034Y3956D02*
X3044Y3966D01*
Y3976D01*
X3034D01*
Y3966D01*
X3044D01*
X3034Y3956D01*
X3024Y3946D01*
X3084Y4016D02*
X3094Y4026D01*
X3114D01*
X3124Y4016D01*
Y3976D01*
X3114Y3966D01*
X3094D01*
X3084Y3976D01*
Y4016D01*
X3144D02*
X3154Y4026D01*
X3174D01*
X3184Y4016D01*
Y3976D01*
X3174Y3966D01*
X3154D01*
X3144Y3976D01*
Y4016D01*
M02*
