M48
;Layer_Color=9474304
;FILE_FORMAT=2:3
INCH,LZ
;TYPE=PLATED
T1F00S00C0.012
T2F00S00C0.020
T3F00S00C0.035
%
T01
X02031Y04244
X02035Y04461
X02291Y04248
X0261Y04587
X02744Y04665
X02799Y04665
X02933Y04591
X03366Y04587
Y04634
Y04685
X03539Y04528
X03669Y04413
X03819Y04429
X03957Y04437
X03949Y04248
X0378Y0424
X03366Y04736
X03394Y04898
Y04961
X03398Y05008
X03205
Y04984
X03181
Y05008
X03138Y05106
Y05228
X0313Y05343
X03197Y05323
X03276Y05323
X03272Y0528
X03402Y05303
X0339Y05476
X03516Y0548
X03508Y05642
X03425Y05717
X03287Y05579
X03272Y05441
X03224Y05469
X03248Y05091
X033Y049
X03228Y05886
X03575Y05854
X03673Y05638
X03799Y06004
X03898Y06
Y06146
X03799
X03106Y05689
X03016Y0561
X02994Y0548
X03028Y05465
X03047
X02994Y05399
X03016Y0535
X02921Y05339
X02886
X02839Y05343
Y05311
Y05283
X02886
X02921
X03024Y0522
Y05181
Y05106
X02996Y05047
Y04969
X03043Y04976
X03008Y04846
X02945Y04776
X02819Y04724
X02764Y04732
X02598Y0478
X02425Y04736
X02433Y04976
Y05
X02512Y05008
X02331Y05
Y04976
X02358Y05193
X02579Y05248
X02626Y05303
X0276
Y05205
Y05146
X02764Y0511
Y05008
X02839Y05024
Y05146
X02921Y05106
X02626Y05118
X0265Y04953
X02642Y05476
X02744Y05559
X02858Y05445
X02835Y05417
X02484Y05437
X02512Y05606
X0252Y0585
X0248
X02425Y05839
X02252Y05945
Y05996
X02248Y06114
X02283Y06165
X02193Y06161
X02079
X02035
Y06114
X02075Y06118
X02035Y06063
T02
X02303Y05976
T03
X021Y046
X022
X024Y044
X025
X026
X027
X028
X029
X03
X031
Y043
X03
X029
X028
X027
X026
X025
X024
X032
X033
X034
X035
X036
Y044
X035
X034
X033
X032
X035Y046
X036
X038
X039
Y047
Y048
Y049
Y05
Y051
Y052
Y053
Y054
Y055
Y056
Y057
Y058
X038
Y057
Y056
Y055
Y054
Y053
Y052
Y051
Y05
Y049
Y048
Y047
X036
X035
Y048
X036
Y049
X035
Y05
X036
Y06
Y061
X035
Y06
X034
Y061
X033
Y06
X032
Y061
X031
Y06
X03
Y061
X029
Y06
X028
Y061
X027
Y06
X026
Y061
X025
Y06
X024
Y061
X02311Y05883
Y05783
X022Y058
X021
Y057
X022
Y056
X021
Y055
X022
Y054
X021
Y053
X022
Y052
X021
Y051
X022
Y05
X021
Y049
X022
Y048
X021
Y047
X022
M30
